<svg width="12" height="15" viewBox="0 0 12 15" fill="none" xmlns="http://www.w3.org/2000/svg">
<path d="M1.5 12.75C1.5 13.575 2.175 14.25 3 14.25H9C9.825 14.25 10.5 13.575 10.5 12.75V5.25C10.5 4.425 9.825 3.75 9 3.75H3C2.175 3.75 1.5 4.425 1.5 5.25V12.75ZM10.5 1.5H8.625L8.0925 0.9675C7.9575 0.8325 7.7625 0.75 7.5675 0.75H4.4325C4.2375 0.75 4.0425 0.8325 3.9075 0.9675L3.375 1.5H1.5C1.0875 1.5 0.75 1.8375 0.75 2.25C0.75 2.6625 1.0875 3 1.5 3H10.5C10.9125 3 11.25 2.6625 11.25 2.25C11.25 1.8375 10.9125 1.5 10.5 1.5Z" fill="#565454"/>
</svg>
