<svg width="23" height="22" viewBox="0 0 23 22" fill="none" xmlns="http://www.w3.org/2000/svg">
<path d="M21.3571 0H1.64286C1.20714 0 0.789277 0.173086 0.481182 0.481182C0.173086 0.789277 0 1.20714 0 1.64286V16.4286C0 16.8643 0.173086 17.2822 0.481182 17.5902C0.789277 17.8983 1.20714 18.0714 1.64286 18.0714H3.28571V20.5357C3.28615 20.6905 3.33034 20.8421 3.41318 20.9729C3.49602 21.1037 3.61414 21.2084 3.75393 21.275C3.86314 21.331 3.98445 21.3592 4.10714 21.3571C4.29243 21.3561 4.47191 21.2924 4.61643 21.1764L8.50179 18.0714H21.3571C21.7929 18.0714 22.2107 17.8983 22.5188 17.5902C22.8269 17.2822 23 16.8643 23 16.4286V1.64286C23 1.20714 22.8269 0.789277 22.5188 0.481182C22.2107 0.173086 21.7929 0 21.3571 0ZM14.7857 9.85714H12.3214V12.3214C12.3214 12.5393 12.2349 12.7482 12.0808 12.9023C11.9268 13.0563 11.7179 13.1429 11.5 13.1429C11.2821 13.1429 11.0732 13.0563 10.9192 12.9023C10.7651 12.7482 10.6786 12.5393 10.6786 12.3214V9.85714H8.21429C7.99643 9.85714 7.7875 9.7706 7.63345 9.61655C7.4794 9.4625 7.39286 9.25357 7.39286 9.03571C7.39286 8.81786 7.4794 8.60892 7.63345 8.45488C7.7875 8.30083 7.99643 8.21428 8.21429 8.21428H10.6786V5.75C10.6786 5.53214 10.7651 5.32321 10.9192 5.16916C11.0732 5.01511 11.2821 4.92857 11.5 4.92857C11.7179 4.92857 11.9268 5.01511 12.0808 5.16916C12.2349 5.32321 12.3214 5.53214 12.3214 5.75V8.21428H14.7857C15.0036 8.21428 15.2125 8.30083 15.3666 8.45488C15.5206 8.60892 15.6071 8.81786 15.6071 9.03571C15.6071 9.25357 15.5206 9.4625 15.3666 9.61655C15.2125 9.7706 15.0036 9.85714 14.7857 9.85714Z" fill="#F9F9F9"/>
</svg>
