<svg width="23" height="28" viewBox="0 0 23 28" fill="none" xmlns="http://www.w3.org/2000/svg">
<path fill-rule="evenodd" clip-rule="evenodd" d="M18.0489 2.42989C20.057 2.42989 21.6851 4.05776 21.6851 6.06614C21.6851 8.07422 20.057 9.70238 18.0489 9.70238C16.0405 9.70238 14.4126 8.07451 14.4126 6.06614C14.4126 4.05776 16.0402 2.42989 18.0489 2.42989ZM20.1128 18.5388C20.1117 18.4896 20.1111 18.4399 20.1111 18.3895V12.6739C20.1111 11.7838 20.0302 10.9553 19.8798 10.1873C19.3201 10.4363 18.7002 10.5748 18.0486 10.5748C15.5582 10.5748 13.5396 8.55624 13.5396 6.06584C13.5396 5.08028 13.8561 4.1686 14.3926 3.42651C9.38065 1.60489 2.88893 4.68611 2.88893 12.6739V18.3892C2.88893 18.4396 2.88835 18.4893 2.88718 18.5385L20.1128 18.5388ZM6.19849 10.6789C6.14671 10.9134 5.91458 11.0612 5.6804 11.0097C5.44623 10.9582 5.29816 10.7258 5.34965 10.4916C5.69291 8.93848 6.41783 7.54129 7.53605 6.56387C8.54635 5.68098 9.86558 5.14369 11.5001 5.14369C11.741 5.14369 11.9365 5.33918 11.9365 5.58004C11.9365 5.82091 11.741 6.01639 11.5001 6.01639C10.0913 6.01639 8.96379 6.47107 8.10942 7.21839C7.13723 8.06753 6.50336 9.29978 6.19849 10.6789ZM2.79962 19.4115C2.35571 21.8166 0.38457 22.3981 0 23.0407H8.19552H14.8048H23C22.616 22.3981 20.6449 21.8166 20.2007 19.4115H2.79962ZM10.3168 2.12037V1.18338C10.3168 0.532638 10.8491 0 11.4999 0C12.1506 0 12.6829 0.532638 12.6829 1.18338V2.12124C12.2853 2.07063 11.8836 2.04561 11.4812 2.04648C11.09 2.04706 10.7008 2.07208 10.3168 2.12037ZM14.8045 23.9134H8.19523V24.0403C8.19523 25.8578 9.68231 27.3449 11.4999 27.3449C13.3174 27.3449 14.8045 25.8575 14.8045 24.04V23.9134ZM19.9182 5.62979H18.4849V4.19681C18.4849 3.95566 18.2895 3.76046 18.0486 3.76046C17.8077 3.76046 17.6122 3.95595 17.6122 4.19681V5.62979H16.1793C15.9381 5.62979 15.7429 5.82527 15.7429 6.06614C15.7429 6.307 15.9381 6.50249 16.1793 6.50249H17.6122V7.93546C17.6122 8.17632 17.8077 8.37181 18.0486 8.37181C18.2895 8.37181 18.4849 8.17632 18.4849 7.93546V6.50249H19.9182C20.1588 6.50249 20.3546 6.307 20.3546 6.06614C20.3546 5.82527 20.1591 5.62979 19.9182 5.62979Z" fill="#FBFBFB"/>
</svg>
