<svg width="23" height="25" viewBox="0 0 23 25" fill="none" xmlns="http://www.w3.org/2000/svg">
<path d="M8.77827 9.76048C11.5488 9.76048 13.7948 7.57552 13.7948 4.88024C13.7948 2.18496 11.5488 0 8.77827 0C6.00771 0 3.76172 2.18496 3.76172 4.88024C3.76172 7.57552 6.00771 9.76048 8.77827 9.76048Z" fill="#FAFAFA"/>
<path d="M15.7309 13.2212C14.4436 11.8446 12.5878 10.9805 10.5255 10.9805H7.03316C3.14822 10.9805 0 14.0446 0 17.8224V19.2449C0 20.0708 0.688264 20.7412 1.53714 20.7412H11.4458C11.326 20.262 11.2648 19.7598 11.2648 19.2449C11.2648 16.4051 13.1461 14.0038 15.7309 13.2212Z" fill="#FAFAFA"/>
<path d="M17.418 13.6465C16.8526 13.6465 16.3098 13.7302 15.7964 13.8862C13.5031 14.5806 11.834 16.711 11.834 19.2305C11.834 19.6874 11.8883 20.1329 11.9946 20.5581C12.5894 23.003 14.79 24.8145 17.418 24.8145C20.5006 24.8145 22.9998 22.3154 22.9998 19.2305C22.9998 16.1479 20.5006 13.6465 17.418 13.6465ZM19.596 19.9791H18.1666V21.4108C18.1666 21.8246 17.8296 22.1594 17.418 22.1594C17.0041 22.1594 16.6671 21.8246 16.6671 21.4108V19.9791H15.2378C14.8239 19.9791 14.4892 19.6444 14.4892 19.2305C14.4892 18.8166 14.8239 18.4819 15.2378 18.4819H16.6671V17.0525C16.6671 16.7178 16.8865 16.4374 17.1896 16.3401C17.2619 16.3175 17.3389 16.3039 17.418 16.3039C17.8296 16.3039 18.1666 16.6386 18.1666 17.0525V18.4819H19.596C20.0099 18.4819 20.3446 18.8166 20.3446 19.2305C20.3446 19.6444 20.0099 19.9791 19.596 19.9791Z" fill="#FAFAFA"/>
</svg>
