<svg width="53" height="69" viewBox="0 0 53 69" fill="none" xmlns="http://www.w3.org/2000/svg">
<path d="M43.9102 42.3028C43.8804 41.9415 43.8542 41.5908 43.8287 41.2506C43.6687 39.0927 43.5306 37.2293 42.6035 35.8327C41.8535 34.7017 40.9385 34.022 39.7388 33.7184C39.4442 33.0942 38.8564 32.6619 38.1723 32.6619C37.4882 32.6619 36.9011 33.0935 36.6065 33.7177C35.4103 34.0206 34.4932 34.6996 33.7411 35.8327C32.814 37.2307 32.6752 39.0962 32.5151 41.2562C32.4904 41.5943 32.4642 41.9443 32.4344 42.3035C32.331 43.556 31.5853 44.5338 31.2043 44.8768C30.6334 45.392 30.319 46.2102 30.319 47.1802C30.319 47.7621 30.7949 48.2345 31.3813 48.2345H35.5229V49.1855C35.5229 50.6363 36.712 51.8164 38.173 51.8164C39.634 51.8164 40.8231 50.6363 40.8231 49.1855V48.2345H44.9647C45.5511 48.2345 46.027 47.7621 46.027 47.1802C46.027 46.4934 45.8733 45.5368 45.1418 44.8754C44.7607 44.5331 44.0143 43.556 43.9102 42.3028ZM38.6978 49.1855C38.6978 49.4737 38.462 49.7077 38.1723 49.7077C37.8826 49.7077 37.6468 49.4737 37.6468 49.1855V48.2345H38.6978V49.1855ZM32.945 46.1258C33.6639 45.3414 34.4231 44.0284 34.5519 42.4757C34.5824 42.1102 34.6086 41.7559 34.6341 41.4108C34.7786 39.4666 34.8926 37.9315 35.5158 36.9917C36.1603 36.0204 36.872 35.6527 38.0993 35.6352C38.1213 35.6366 38.1673 35.6366 38.2042 35.6373C39.4733 35.6527 40.1843 36.0196 40.8281 36.9917C41.452 37.9308 41.5653 39.4645 41.7098 41.4045C41.7353 41.751 41.7615 42.1081 41.7919 42.4757C41.9222 44.0291 42.6822 45.3421 43.4003 46.1251L32.945 46.1258ZM38.1716 27.8689C37.423 27.8689 36.6943 27.942 35.9754 28.0489V5.27168C35.9754 2.36453 33.5923 0 30.6639 0H5.31154C2.3817 0 0 2.36453 0 5.27168V63.7283C0 66.6362 2.3817 69 5.31154 69H30.6646C33.593 69 35.9762 66.6362 35.9762 63.7283V57.1225C36.695 57.2294 37.4237 57.3025 38.1723 57.3025C46.3485 57.3025 53 50.7009 53 42.5861C53 34.4712 46.3478 27.8689 38.1716 27.8689ZM23.9834 4.14354H24.5145C25.1009 4.14354 25.5769 4.61589 25.5769 5.19788C25.5769 5.78058 25.1009 6.25222 24.5145 6.25222H23.9834C23.397 6.25222 22.9211 5.78058 22.9211 5.19788C22.9211 4.61518 23.397 4.14354 23.9834 4.14354ZM13.0062 4.14354H20.6194C21.2058 4.14354 21.6817 4.61589 21.6817 5.19788C21.6817 5.78058 21.2058 6.25222 20.6194 6.25222H13.0062C12.4198 6.25222 11.9439 5.78058 11.9439 5.19788C11.9439 4.61518 12.4198 4.14354 13.0062 4.14354ZM17.987 66.7388C16.247 66.7388 14.8362 65.3386 14.8362 63.6102C14.8362 61.8825 16.247 60.4817 17.987 60.4817C19.7285 60.4817 21.1392 61.8825 21.1392 63.6102C21.1399 65.3386 19.7285 66.7388 17.987 66.7388ZM32.7935 58.6049H3.18126V10.4829H32.7935V28.8867C27.2716 31.0305 23.3439 36.3556 23.3439 42.5861C23.3439 48.8165 27.2716 54.1416 32.7935 56.2847V58.6049ZM38.1716 55.1931C31.1667 55.1931 25.4678 49.5376 25.4678 42.5854C25.4678 35.6331 31.1667 29.9769 38.1716 29.9769C45.1765 29.9769 50.8747 35.6331 50.8747 42.5854C50.8747 49.5376 45.1765 55.1931 38.1716 55.1931Z" fill="white"/>
</svg>
