<svg width="16" height="16" viewBox="0 0 16 16" fill="none" xmlns="http://www.w3.org/2000/svg">
<path d="M4.00002 3.2001C4.00002 2.77575 4.1686 2.36878 4.46865 2.06873C4.76871 1.76867 5.17568 1.6001 5.60002 1.6001H10.4C10.8244 1.6001 11.2313 1.76867 11.5314 2.06873C11.8315 2.36878 12 2.77575 12 3.2001V5.6681C11.7411 5.57698 11.4589 5.57698 11.2 5.6681V3.2001C11.2 2.98792 11.1157 2.78444 10.9657 2.63441C10.8157 2.48438 10.6122 2.4001 10.4 2.4001H5.60002C5.38785 2.4001 5.18437 2.48438 5.03434 2.63441C4.88431 2.78444 4.80002 2.98792 4.80002 3.2001V5.6681C4.54114 5.57698 4.25891 5.57698 4.00002 5.6681V3.2001ZM4.00002 11.1321C4.25842 11.2233 4.54162 11.2233 4.80002 11.1321V12.8001C4.80002 13.0123 4.88431 13.2158 5.03434 13.3658C5.18437 13.5158 5.38785 13.6001 5.60002 13.6001H10.4C10.6122 13.6001 10.8157 13.5158 10.9657 13.3658C11.1157 13.2158 11.2 13.0123 11.2 12.8001V11.1321C11.4584 11.2233 11.7416 11.2233 12 11.1321V12.8001C12 13.2244 11.8315 13.6314 11.5314 13.9315C11.2313 14.2315 10.8244 14.4001 10.4 14.4001H5.60002C5.17568 14.4001 4.76871 14.2315 4.46865 13.9315C4.1686 13.6314 4.00002 13.2244 4.00002 12.8001V11.1321ZM2.51762 8.1169L4.11762 6.5169C4.15481 6.47976 4.19896 6.45031 4.24753 6.43023C4.2961 6.41015 4.34815 6.39984 4.40071 6.39988C4.45327 6.39991 4.5053 6.4103 4.55384 6.43045C4.60239 6.4506 4.64649 6.48011 4.68362 6.5173C4.72076 6.55449 4.75021 6.59863 4.77029 6.6472C4.79037 6.69577 4.80068 6.74782 4.80065 6.80038C4.80061 6.85294 4.79022 6.90497 4.77007 6.95352C4.74993 7.00206 4.72041 7.04616 4.68322 7.0833L3.76562 8.0001H6.00002C6.10611 8.0001 6.20785 8.04224 6.28287 8.11725C6.35788 8.19227 6.40002 8.29401 6.40002 8.4001C6.40002 8.50618 6.35788 8.60793 6.28287 8.68294C6.20785 8.75796 6.10611 8.8001 6.00002 8.8001H3.76562L4.68322 9.7169C4.75833 9.79201 4.80053 9.89388 4.80053 10.0001C4.80053 10.1063 4.75833 10.2082 4.68322 10.2833C4.60812 10.3584 4.50625 10.4006 4.40002 10.4006C4.2938 10.4006 4.19193 10.3584 4.11682 10.2833L2.51682 8.6833C2.44237 8.60878 2.40038 8.50784 2.40002 8.4025V8.3977C2.4005 8.2934 2.44186 8.19344 2.51522 8.1193L2.51762 8.1169ZM11.8832 10.2833L13.4832 8.6833L13.4848 8.6809C13.5581 8.60671 13.5995 8.50678 13.6 8.4025V8.3977C13.5994 8.29265 13.5574 8.19207 13.4832 8.1177L11.8832 6.5177C11.8082 6.44259 11.7065 6.40035 11.6003 6.40028C11.4942 6.4002 11.3923 6.44229 11.3172 6.5173C11.2421 6.5923 11.1999 6.69407 11.1998 6.80022C11.1997 6.90636 11.2418 7.00819 11.3168 7.0833L12.2344 8.0001H10C9.89394 8.0001 9.7922 8.04224 9.71718 8.11725C9.64217 8.19227 9.60002 8.29401 9.60002 8.4001C9.60002 8.50618 9.64217 8.60793 9.71718 8.68294C9.7922 8.75796 9.89394 8.8001 10 8.8001H12.2344L11.3168 9.7169C11.2417 9.79201 11.1995 9.89388 11.1995 10.0001C11.1995 10.1063 11.2417 10.2082 11.3168 10.2833C11.3919 10.3584 11.4938 10.4006 11.6 10.4006C11.7062 10.4006 11.8081 10.3584 11.8832 10.2833Z" fill="#8F9FBC"/>
</svg>
