<svg width="16" height="16" viewBox="0 0 16 16" fill="none" xmlns="http://www.w3.org/2000/svg">
<path d="M7.33336 2.03667C6.21035 2.16217 5.1456 2.60221 4.26165 3.30616C3.3777 4.0101 2.71048 4.94933 2.33678 6.01575C1.96308 7.08217 1.89809 8.23243 2.14929 9.33416C2.40049 10.4359 2.95767 11.4443 3.7567 12.2433C4.55573 13.0424 5.56414 13.5995 6.66587 13.8507C7.76759 14.1019 8.91786 14.0369 9.98427 13.6632C11.0507 13.2895 11.9899 12.6223 12.6939 11.7384C13.3978 10.8544 13.8379 9.78968 13.9634 8.66667H7.33336V2.03667Z" stroke="#8F9FBC" stroke-linecap="round" stroke-linejoin="round"/>
<path d="M13.6587 6H10V2.34133C10.8436 2.64062 11.6098 3.12436 12.2427 3.75729C12.8756 4.39023 13.3594 5.15641 13.6587 6Z" stroke="#8F9FBC" stroke-linecap="round" stroke-linejoin="round"/>
</svg>
