<svg width="25" height="24" viewBox="0 0 25 24" fill="none" xmlns="http://www.w3.org/2000/svg">
<path d="M3.00986 7.22878C3.00986 5.53567 3.00901 4.15864 3.00986 2.7816C3.01071 1.71642 3.44913 1.09866 4.46083 0.77156C7.67229 -0.269053 10.8829 -0.257189 14.0859 0.807998C14.9534 1.09612 15.4063 1.73421 15.4096 2.64856C15.4122 3.33665 15.4232 4.02559 15.4046 4.71369C15.3969 5.01197 15.4792 5.12976 15.7938 5.11705C16.183 5.1018 16.574 5.08824 16.9641 5.15349C17.6544 5.26789 18.2115 5.59584 18.6516 6.13478C19.4895 7.15845 20.329 8.18042 21.1677 9.20408C21.5095 9.62101 21.5044 9.8676 21.0795 10.1913C20.8311 10.3803 20.8599 10.5142 21.0371 10.715C21.5256 11.2675 21.6901 11.9268 21.6867 12.653C21.6774 14.7071 21.6909 16.7621 21.6808 18.8162C21.6681 21.2898 20.0568 23.3176 17.6959 23.8616C17.2592 23.9625 16.814 23.9888 16.373 23.9896C15.1044 23.9896 13.8357 24.026 12.5671 23.9625C10.7659 23.8718 9.11477 22.4024 8.83747 20.6203C8.79676 20.3585 8.7586 20.0966 8.77387 19.8305C8.78489 19.6373 8.69839 19.5678 8.51013 19.5712C8.05559 19.578 7.6002 19.5763 7.14567 19.5712C6.32393 19.5628 5.66417 19.2323 5.22574 18.5315C4.07328 16.6918 3.37027 14.6893 3.12265 12.531C2.9081 10.6625 3.05565 8.78631 3.00816 7.23133L3.00986 7.22878ZM14.4225 6.93304C14.4225 5.52465 14.4234 4.11627 14.4225 2.70873C14.4225 2.16046 14.2504 1.92911 13.7272 1.75031C12.4585 1.31559 11.1483 1.08171 9.81354 1.0207C8.09799 0.942736 6.41976 1.19187 4.78477 1.71811C4.18522 1.91132 4.04275 2.10792 4.0419 2.73076C4.04105 5.19755 4.03851 7.6652 4.0436 10.132C4.04529 10.8192 4.03257 11.5056 4.10126 12.1937C4.30564 14.2521 4.95437 16.1553 6.02288 17.9213C6.29679 18.3739 6.70469 18.5713 7.2152 18.5738C8.54745 18.5789 9.88054 18.5781 11.2128 18.5738C11.7648 18.5721 12.1753 18.3349 12.4619 17.8493C13.739 15.6867 14.3903 13.3487 14.42 10.8404C14.4353 9.53796 14.4225 8.2355 14.4225 6.93389V6.93304ZM20.653 15.7511C20.653 14.6495 20.6453 13.5479 20.6572 12.4471C20.6614 12.0573 20.5487 11.7226 20.3172 11.415C20.0678 11.0836 20.0738 11.0794 19.749 11.3472C19.3377 11.6861 19.1053 11.6607 18.7619 11.2438C18.2302 10.5989 17.6925 9.95827 17.1659 9.30832C16.9293 9.01681 16.6486 8.85072 16.2636 8.87614C16.0948 8.88715 15.9244 8.88885 15.7565 8.87529C15.497 8.85411 15.4088 8.9558 15.4071 9.22019C15.4012 10.1303 15.4359 11.0396 15.3605 11.9497C15.1654 14.3038 14.4573 16.4867 13.2251 18.4976C12.7952 19.1992 12.1439 19.5509 11.3205 19.567C10.8973 19.5755 10.4742 19.5789 10.051 19.5661C9.81948 19.5594 9.76266 19.6585 9.77029 19.8712C9.83983 21.6897 11.1415 22.9583 12.9597 22.9634C14.1656 22.9668 15.3715 22.9685 16.5774 22.9634C18.8696 22.9532 20.6394 21.1881 20.653 18.8967C20.6598 17.8485 20.6538 16.7994 20.6538 15.7511H20.653ZM15.4156 6.97541C15.4156 7.03897 15.4147 7.10252 15.4156 7.16608C15.4275 7.93721 15.3087 7.85417 16.0889 7.83383C16.8945 7.81265 17.5238 8.10076 18.0097 8.74225C18.2777 9.09646 18.5762 9.42695 18.8611 9.76846C19.3691 10.3769 19.3597 10.365 19.9644 9.84981C20.1891 9.65829 20.1535 9.53542 19.9873 9.33882C19.3317 8.5626 18.6686 7.79061 18.0504 6.98558C17.584 6.37714 17.02 6.09665 16.2509 6.13139C15.4164 6.16868 15.4147 6.13902 15.4156 6.97541Z" fill="white"/>
<path d="M7.39412 10.5243C7.16177 10.5243 6.92771 10.5413 6.6962 10.5209C6.26456 10.4819 6.06103 10.1879 6.21198 9.78876C6.71316 8.46257 7.2313 7.14231 7.74351 5.81952C7.84358 5.5619 8.04116 5.43734 8.30914 5.43564C9.08084 5.43056 9.85339 5.42124 10.6251 5.43818C11.1373 5.4492 11.3408 5.80003 11.1254 6.26271C10.8931 6.76183 10.648 7.25417 10.4088 7.7499C10.2528 8.07276 10.257 8.08124 10.603 8.08293C11.0576 8.08463 11.513 8.08717 11.9675 8.08293C12.205 8.08039 12.4204 8.127 12.5238 8.36343C12.6366 8.61934 12.5289 8.8295 12.3584 9.02864C11.2153 10.3625 10.0764 11.6997 8.93583 13.036C8.72298 13.2852 8.51351 13.5377 8.29812 13.7851C8.11494 13.9953 7.897 14.1088 7.62648 13.9554C7.34748 13.7978 7.3178 13.5487 7.41193 13.2674C7.68076 12.4649 7.94279 11.659 8.22264 10.8607C8.30744 10.6175 8.29048 10.5031 7.99792 10.5268C7.79863 10.5438 7.59595 10.5302 7.39497 10.5302C7.39497 10.5277 7.39497 10.5252 7.39497 10.5226L7.39412 10.5243ZM10.949 9.12016C10.8812 9.09982 10.8617 9.08796 10.8422 9.08796C10.4402 9.08626 10.0391 9.08626 9.63714 9.08457C8.96975 9.08202 8.7747 8.77272 9.06388 8.177C9.29878 7.69143 9.53114 7.20418 9.76943 6.72031C9.85678 6.54405 9.81947 6.46693 9.61594 6.47202C9.34118 6.47795 9.06642 6.47964 8.79167 6.47202C8.6246 6.46693 8.54574 6.55083 8.48977 6.69489C8.16328 7.54398 7.8351 8.39308 7.50013 9.23879C7.41956 9.44217 7.47638 9.50318 7.6833 9.49979C8.09544 9.49217 8.50843 9.48963 8.92056 9.50149C9.40055 9.51505 9.60492 9.80486 9.46923 10.2684C9.39122 10.5362 9.29963 10.7997 9.21483 11.065C9.23179 11.0734 9.24875 11.0827 9.26571 11.0912C9.82032 10.443 10.3749 9.79469 10.9507 9.121L10.949 9.12016Z" fill="white"/>
</svg>
