<svg width="17" height="13" viewBox="0 0 17 13" fill="none" xmlns="http://www.w3.org/2000/svg">
<path d="M0.0949707 4.16L1.15997 3.095L2.74997 4.6925L4.33997 3.095L5.40497 4.16L3.80747 5.75L5.40497 7.34L4.33997 8.405L2.74997 6.8075L1.15997 8.405L0.0949707 7.34L1.69247 5.75L0.0949707 4.16ZM10.25 0.5C11.0456 0.5 11.8087 0.81607 12.3713 1.37868C12.9339 1.94129 13.25 2.70435 13.25 3.5C13.25 4.29565 12.9339 5.05871 12.3713 5.62132C11.8087 6.18393 11.0456 6.5 10.25 6.5C9.45432 6.5 8.69126 6.18393 8.12865 5.62132C7.56604 5.05871 7.24997 4.29565 7.24997 3.5C7.24997 2.70435 7.56604 1.94129 8.12865 1.37868C8.69126 0.81607 9.45432 0.5 10.25 0.5ZM10.25 1.925C9.83225 1.925 9.43165 2.09094 9.13628 2.38631C8.84091 2.68168 8.67497 3.08228 8.67497 3.5C8.67497 3.91772 8.84091 4.31832 9.13628 4.61369C9.43165 4.90906 9.83225 5.075 10.25 5.075C10.6677 5.075 11.0683 4.90906 11.3637 4.61369C11.659 4.31832 11.825 3.91772 11.825 3.5C11.825 3.08228 11.659 2.68168 11.3637 2.38631C11.0683 2.09094 10.6677 1.925 10.25 1.925ZM10.25 7.25C12.2525 7.25 16.25 8.2475 16.25 10.25V12.5H4.24997V10.25C4.24997 8.2475 8.24747 7.25 10.25 7.25ZM10.25 8.675C7.99997 8.675 5.67497 9.77 5.67497 10.25V11.075H14.825V10.25C14.825 9.77 12.4775 8.675 10.25 8.675Z" fill="#565454"/>
</svg>
