<svg width="24" height="24" viewBox="0 0 24 24" fill="none" xmlns="http://www.w3.org/2000/svg">
<path fill-rule="evenodd" clip-rule="evenodd" d="M8.97141 13.7585C6.23754 14.0647 3.9276 14.7793 2.46002 15.7063C1.16392 16.5248 0.489746 17.5434 0.489746 18.5775C0.489746 19.7322 1.35013 20.8767 2.96639 21.7426C5.0029 22.8337 8.28546 23.5605 11.9897 23.5605C15.6944 23.5605 18.977 22.8337 21.0131 21.7426C22.6294 20.8767 23.4897 19.7322 23.4897 18.5775C23.4897 17.5379 22.8082 16.5137 21.4989 15.6931C20.0305 14.7727 17.7294 14.0636 15.0084 13.7585L17.2348 8.83061C17.5892 8.08063 17.788 7.24269 17.788 6.35876C17.788 3.15863 15.1899 0.560547 11.9897 0.560547C8.78999 0.560547 6.19191 3.15863 6.19191 6.35876C6.19191 7.24343 6.39063 8.08173 6.74575 8.83245L6.74464 8.83061L8.97141 13.7585ZM14.2253 15.4914L12.6886 18.8928C12.6816 18.9087 12.6739 18.9237 12.6661 18.9388C13.9873 18.8527 15.1409 18.5164 15.8942 18.0122C16.2957 17.7439 16.5897 17.454 16.5897 17.0963C16.5897 16.7809 16.3524 16.5178 16.0245 16.2719C15.5785 15.9378 14.9558 15.6725 14.2253 15.4914ZM9.75415 15.4914C9.06525 15.6618 8.4724 15.9084 8.03154 16.2167C7.66059 16.4762 7.38975 16.7555 7.38975 17.0963C7.38975 17.454 7.68415 17.7439 8.08527 18.0122C8.83893 18.5164 9.99261 18.8527 11.3137 18.9388C11.3056 18.9237 11.2983 18.9087 11.2913 18.8928L9.75415 15.4914ZM11.3042 4.05103L10.1542 6.35103C10.0353 6.58876 10.0482 6.87101 10.1877 7.09696C10.3275 7.32291 10.574 7.46055 10.8397 7.46055H11.8992L11.3042 8.65103C11.115 9.0297 11.2685 9.49044 11.6471 9.67959C12.0254 9.86911 12.4865 9.71528 12.6757 9.33698L13.8257 7.03698C13.9446 6.79925 13.9317 6.51699 13.7922 6.29104C13.6524 6.06509 13.4054 5.92746 13.1397 5.92746H12.0803L12.6757 4.73698C12.8648 4.35831 12.711 3.89757 12.3327 3.70842C11.9544 3.5189 11.4933 3.67272 11.3042 4.05103Z" fill="white"/>
</svg>
