<svg width="54" height="54" viewBox="0 0 54 54" fill="none" xmlns="http://www.w3.org/2000/svg">
<path fill-rule="evenodd" clip-rule="evenodd" d="M20.0792 31.0428C13.765 31.75 8.42989 33.4006 5.04033 35.5416C2.04684 37.4318 0.489746 39.7845 0.489746 42.1728C0.489746 44.8399 2.47691 47.4832 6.20985 49.4831C10.9134 52.0032 18.4949 53.6819 27.0504 53.6819C35.6068 53.6819 43.1882 52.0032 47.8909 49.4831C51.6239 47.4832 53.6111 44.8399 53.6111 42.1728C53.6111 39.7717 52.037 37.4063 49.0129 35.511C45.6216 33.3853 40.3069 31.7474 34.0225 31.0428L39.1646 19.6613C39.9831 17.9291 40.4421 15.9938 40.4421 13.9522C40.4421 6.56113 34.4415 0.560547 27.0504 0.560547C19.6602 0.560547 13.6596 6.56113 13.6596 13.9522C13.6596 15.9955 14.1185 17.9316 14.9387 19.6655L14.9362 19.6613L20.0792 31.0428ZM32.2138 35.0452L28.6644 42.9012C28.6483 42.9377 28.6304 42.9726 28.6126 43.0074C31.6639 42.8086 34.3284 42.0317 36.0683 40.8673C36.9956 40.2477 37.6747 39.5779 37.6747 38.7518C37.6747 38.0234 37.1264 37.4157 36.3692 36.8479C35.339 36.0762 33.9009 35.4634 32.2138 35.0452ZM21.887 35.0452C20.2959 35.4387 18.9267 36.0082 17.9084 36.7204C17.0517 37.3196 16.4261 37.9647 16.4261 38.7518C16.4261 39.5779 17.1061 40.2477 18.0325 40.8673C19.7732 42.0317 22.4378 42.8086 25.4891 43.0074C25.4704 42.9726 25.4534 42.9377 25.4372 42.9012L21.887 35.0452ZM25.467 8.62224L22.8109 13.9344C22.5364 14.4834 22.5661 15.1353 22.8882 15.6572C23.2112 16.1791 23.7807 16.4969 24.3943 16.4969H26.8413L25.467 19.2465C25.0301 20.1211 25.3845 21.1852 26.2591 21.6221C27.1328 22.0598 28.1978 21.7045 28.6347 20.8308L31.2908 15.5187C31.5653 14.9696 31.5355 14.3177 31.2134 13.7958C30.8904 13.274 30.3201 12.9561 29.7065 12.9561H27.2595L28.6347 10.2065C29.0716 9.33194 28.7163 8.26781 27.8425 7.83094C26.9688 7.39322 25.9038 7.7485 25.467 8.62224Z" fill="white"/>
</svg>
