<svg width="16" height="16" viewBox="0 0 16 16" fill="none" xmlns="http://www.w3.org/2000/svg">
<path fill-rule="evenodd" clip-rule="evenodd" d="M3.20002 3.2001C3.20002 2.77575 3.3686 2.36878 3.66865 2.06873C3.96871 1.76867 4.37568 1.6001 4.80002 1.6001H11.2C11.6244 1.6001 12.0313 1.76867 12.3314 2.06873C12.6315 2.36878 12.8 2.77575 12.8 3.2001V12.8001C13.0122 12.8001 13.2157 12.8844 13.3657 13.0344C13.5157 13.1844 13.6 13.3879 13.6 13.6001C13.6 13.8123 13.5157 14.0158 13.3657 14.1658C13.2157 14.3158 13.0122 14.4001 12.8 14.4001H10.4C10.1879 14.4001 9.98437 14.3158 9.83434 14.1658C9.68431 14.0158 9.60003 13.8123 9.60003 13.6001V12.0001C9.60003 11.7879 9.51574 11.5844 9.36571 11.4344C9.21568 11.2844 9.0122 11.2001 8.80002 11.2001H7.20002C6.98785 11.2001 6.78437 11.2844 6.63434 11.4344C6.48431 11.5844 6.40002 11.7879 6.40002 12.0001V13.6001C6.40002 13.8123 6.31574 14.0158 6.16571 14.1658C6.01568 14.3158 5.8122 14.4001 5.60002 14.4001H3.20002C2.98785 14.4001 2.78437 14.3158 2.63434 14.1658C2.48431 14.0158 2.40002 13.8123 2.40002 13.6001C2.40002 13.3879 2.48431 13.1844 2.63434 13.0344C2.78437 12.8844 2.98785 12.8001 3.20002 12.8001V3.2001ZM5.60002 4.0001H7.20002V5.6001H5.60002V4.0001ZM7.20002 7.2001H5.60002V8.8001H7.20002V7.2001ZM8.80002 4.0001H10.4V5.6001H8.80002V4.0001ZM10.4 7.2001H8.80002V8.8001H10.4V7.2001Z" fill="#8F9FBC"/>
</svg>
