<svg width="24" height="35" viewBox="0 0 24 35" fill="none" xmlns="http://www.w3.org/2000/svg">
<path d="M13.6667 17.4997H18.6667L10.3334 29.1663V20.833H5.33337L13.6667 9.16634V17.4997ZM10.3334 7.49967H3.66671V30.833H20.3334V7.49967H13.6667V4.16634H10.3334V7.49967ZM7.00004 4.16634V2.49967C7.00004 2.05765 7.17564 1.63372 7.4882 1.32116C7.80076 1.0086 8.22468 0.833008 8.66671 0.833008H15.3334C15.7754 0.833008 16.1993 1.0086 16.5119 1.32116C16.8244 1.63372 17 2.05765 17 2.49967V4.16634H22C22.4421 4.16634 22.866 4.34194 23.1786 4.6545C23.4911 4.96706 23.6667 5.39098 23.6667 5.83301V32.4997C23.6667 32.9417 23.4911 33.3656 23.1786 33.6782C22.866 33.9907 22.4421 34.1663 22 34.1663H2.00004C1.55801 34.1663 1.13409 33.9907 0.82153 33.6782C0.508969 33.3656 0.333374 32.9417 0.333374 32.4997V5.83301C0.333374 5.39098 0.508969 4.96706 0.82153 4.6545C1.13409 4.34194 1.55801 4.16634 2.00004 4.16634H7.00004Z" fill="white"/>
</svg>
