<svg width="16" height="16" viewBox="0 0 16 16" fill="none" xmlns="http://www.w3.org/2000/svg">
<path d="M5.66663 12.6667L7.33329 10H6.33329V8L4.66663 10.6667H5.66663V12.6667ZM3.99996 6.66667H7.99996V3.33333H3.99996V6.66667ZM8.66663 14H3.33329C3.14441 14 2.98596 13.936 2.85796 13.808C2.72996 13.68 2.66618 13.5218 2.66663 13.3333V3.33333C2.66663 2.96667 2.79729 2.65267 3.05863 2.39133C3.31996 2.13 3.63374 1.99956 3.99996 2H7.99996C8.36663 2 8.68063 2.13067 8.94196 2.392C9.2033 2.65333 9.33374 2.96711 9.3333 3.33333V8H10.1666C10.4889 8 10.764 8.114 10.992 8.342C11.22 8.57 11.3337 8.84489 11.3333 9.16667V12.25C11.3333 12.4389 11.4111 12.6111 11.5666 12.7667C11.7222 12.9222 11.8944 13 12.0833 13C12.2833 13 12.4584 12.9222 12.6086 12.7667C12.7589 12.6111 12.8337 12.4389 12.8333 12.25V6H12.6666C12.4777 6 12.3193 5.936 12.1913 5.808C12.0633 5.68 11.9995 5.52178 12 5.33333V4.33333C12 4.24445 12.0333 4.16667 12.1 4.1C12.1666 4.03333 12.2444 4 12.3333 4V3.33333C12.3333 3.24445 12.3666 3.16667 12.4333 3.1C12.5 3.03333 12.5777 3 12.6666 3C12.7555 3 12.8333 3.03333 12.9 3.1C12.9666 3.16667 13 3.24445 13 3.33333V4H13.6666V3.33333C13.6666 3.24445 13.7 3.16667 13.7666 3.1C13.8333 3.03333 13.9111 3 14 3C14.0889 3 14.1666 3.03333 14.2333 3.1C14.3 3.16667 14.3333 3.24445 14.3333 3.33333V4C14.4222 4 14.5 4.03333 14.5666 4.1C14.6333 4.16667 14.6666 4.24445 14.6666 4.33333V5.33333C14.6666 5.52222 14.6026 5.68067 14.4746 5.80867C14.3466 5.93667 14.1884 6.00045 14 6H13.8333V12.25C13.8333 12.7167 13.6637 13.1251 13.3246 13.4753C12.9855 13.8256 12.572 14.0004 12.084 14C11.6062 14 11.1951 13.8249 10.8506 13.4747C10.5062 13.1244 10.334 12.7162 10.334 12.25V9.16667C10.334 9.11111 10.32 9.06933 10.292 9.04134C10.264 9.01334 10.2224 8.99956 10.1673 9H9.3333V13.3333C9.3333 13.5222 9.2693 13.6807 9.1413 13.8087C9.0133 13.9367 8.85507 14.0004 8.66663 14Z" fill="#8F9FBC"/>
</svg>
