<svg width="31" height="31" viewBox="0 0 31 31" fill="none" xmlns="http://www.w3.org/2000/svg">
<path d="M8.16675 27.1667L12.3334 20.5H9.83341V15.5L5.66675 22.1667H8.16675V27.1667ZM4.00008 12.1667H14.0001V3.83334H4.00008V12.1667ZM4.00008 27.1667H14.0001V15.5H4.00008V27.1667ZM0.666748 30.5V3.83334C0.666748 2.91667 0.993414 2.13167 1.64675 1.47834C2.30008 0.825003 3.08453 0.498892 4.00008 0.500003H14.0001C14.9167 0.500003 15.7017 0.82667 16.3551 1.48C17.0084 2.13334 17.3345 2.91778 17.3334 3.83334V15.5H19.4167C20.2223 15.5 20.9101 15.785 21.4801 16.355C22.0501 16.925 22.3345 17.6122 22.3334 18.4167V26.125C22.3334 26.5972 22.5279 27.0278 22.9167 27.4167C23.3056 27.8056 23.7362 28 24.2084 28C24.7084 28 25.1462 27.8056 25.5217 27.4167C25.8973 27.0278 26.0845 26.5972 26.0834 26.125V10.5H25.6667C25.1945 10.5 24.7984 10.34 24.4784 10.02C24.1584 9.7 23.999 9.30445 24.0001 8.83334V5.5H24.8334V3H26.5001V5.5H28.1667V3H29.8334V5.5H30.6667V8.83334C30.6667 9.30556 30.5067 9.70167 30.1867 10.0217C29.8667 10.3417 29.4712 10.5011 29.0001 10.5H28.5834V26.125C28.5834 27.2917 28.1595 28.3128 27.3117 29.1883C26.464 30.0639 25.4301 30.5011 24.2101 30.5C23.0156 30.5 21.9879 30.0622 21.1267 29.1867C20.2656 28.3111 19.8351 27.2906 19.8351 26.125V18.4167C19.8351 18.2778 19.8001 18.1733 19.7301 18.1033C19.6601 18.0333 19.5562 17.9989 19.4184 18H17.3334V30.5H0.666748Z" fill="white"/>
</svg>
