<svg width="25" height="24" viewBox="0 0 25 24" fill="none" xmlns="http://www.w3.org/2000/svg">
<g clip-path="url(#clip0_2087_1005)">
<path d="M7.57301 0.0501823C8.24727 0.287189 8.51573 0.779912 8.50948 1.47222C8.497 2.48261 8.50948 3.49925 8.50324 4.50964C8.50324 4.71546 8.56567 4.80902 8.7717 4.85891C9.3211 4.98989 9.6832 5.47014 9.68944 6.03771C9.69569 6.70507 9.69569 7.37867 9.68944 8.04603C9.6832 9.98573 8.27849 11.651 6.37432 11.9753C6.16829 12.0128 6.08713 12.0751 6.08713 12.2997C6.09962 13.6469 6.08713 14.9941 6.09337 16.3475C6.10586 18.8984 7.81025 20.9753 10.295 21.4805C13.1169 22.0481 15.9513 20.0523 16.3509 17.2144C16.4071 16.8277 16.4009 16.4348 16.4009 16.0481C16.4009 15.0439 16.3946 14.0398 16.4071 13.0294C16.4071 12.8111 16.3509 12.7051 16.1199 12.6427C13.5477 11.9254 11.9307 10.2602 11.3689 7.64062C10.6384 4.20403 13.0358 0.723779 16.507 0.125026C16.6443 0.100078 16.7817 0.0751303 16.919 0.0439453C17.3998 0.0439453 17.8867 0.0439453 18.3675 0.0439453C18.4049 0.0564193 18.4424 0.0688933 18.4798 0.0751303C21.0957 0.517958 22.8501 1.98989 23.7303 4.50341C23.8864 4.95247 23.9489 5.42648 24.0175 5.89426C24.0175 6.26848 24.0175 6.6427 24.0175 7.01692C24.005 7.05434 23.9926 7.09176 23.9863 7.12919C23.6367 9.90465 21.7513 12.0315 19.0604 12.6801C18.8794 12.7238 18.8482 12.8111 18.8482 12.9733C18.8544 14.0647 18.8544 15.1562 18.8482 16.2477C18.8482 16.6032 18.8544 16.9649 18.8045 17.3205C18.3924 20.177 16.8629 22.204 14.2532 23.414C13.554 23.7383 12.811 23.888 12.0556 24.0065C11.5249 24.0065 10.9943 24.0065 10.4636 24.0065C10.4261 23.994 10.3887 23.9816 10.3512 23.9753C7.89141 23.6385 6.00597 22.4036 4.71363 20.2893C3.96445 19.0606 3.64605 17.7071 3.64605 16.2726C3.6398 14.9566 3.6398 13.6406 3.64605 12.3184C3.64605 12.1063 3.58362 12.019 3.36511 11.9816C1.44221 11.6323 0.0749512 9.99197 0.0749512 8.03979C0.0749512 7.37866 0.0749512 6.71754 0.0749512 6.05018C0.0811943 5.45143 0.430812 4.98989 0.998941 4.85268C1.19872 4.80902 1.26115 4.7217 1.26115 4.52212C1.25491 3.48677 1.25491 2.45143 1.25491 1.40985C1.25491 0.692594 1.53585 0.293426 2.19763 0.0439453C2.39741 0.0439453 2.60344 0.0439453 2.80322 0.0439453C3.45251 0.293426 3.72721 0.767438 3.70848 1.45975C3.68351 2.48261 3.70848 3.49925 3.69599 4.52212C3.69599 4.72794 3.74594 4.80902 3.97069 4.80902C4.57628 4.79654 5.18811 4.79654 5.7937 4.80902C5.99973 4.81526 6.06216 4.74665 6.05591 4.54083C6.04967 3.51172 6.0684 2.48261 6.04343 1.45351C6.03719 0.761201 6.30564 0.287189 6.96117 0.0501823C7.1672 0.0501823 7.36698 0.0501823 7.57301 0.0501823ZM23.1747 6.71754C23.362 3.85476 21.1644 0.942074 17.7057 0.873467C14.8088 0.817334 12.168 3.03147 12.0868 6.32461C12.0119 9.28719 14.2782 11.9192 17.5371 11.9941C20.6837 12.0627 23.0686 9.56785 23.1747 6.71754ZM4.88844 5.66973C3.72721 5.66973 2.56598 5.66973 1.41099 5.66973C1.05513 5.66973 0.911537 5.79447 0.911537 6.15621C0.91778 6.87347 0.880321 7.59072 0.93651 8.30798C1.04264 9.68012 2.06652 10.8652 3.41505 11.1146C4.24539 11.2706 5.08822 11.2331 5.93105 11.1708C7.57925 11.046 8.80916 9.72378 8.83413 8.07097C8.84037 7.44103 8.84037 6.8111 8.83413 6.17492C8.83413 5.75704 8.74048 5.66349 8.32843 5.66349C7.17969 5.66973 6.03094 5.66973 4.88844 5.66973ZM5.26303 14.6074C5.26303 13.915 5.26303 13.2227 5.26303 12.5242C5.25679 11.9629 5.33795 12.0564 4.78231 12.0315C4.55131 12.0252 4.49512 12.1001 4.49512 12.3246C4.50136 13.703 4.49512 15.0814 4.50136 16.466C4.50136 16.8402 4.53882 17.2144 4.6075 17.5824C5.2006 20.9442 8.20357 23.3392 11.5811 23.1583C13.2481 23.071 14.684 22.466 15.8889 21.3246C17.3186 19.9774 17.9929 18.2872 18.0178 16.3288C18.0303 15.3308 18.0178 14.3329 18.0178 13.335C18.0178 12.836 18.0178 12.8423 17.5309 12.8298C17.3186 12.8236 17.2499 12.8859 17.2499 13.1042C17.2624 14.2518 17.2499 15.3932 17.2562 16.5408C17.2562 16.9088 17.2125 17.2706 17.1376 17.6323C16.2885 21.6864 11.7185 23.7071 8.18484 21.5679C6.2994 20.4327 5.31922 18.7175 5.26303 16.5034C5.25054 15.8735 5.26303 15.2373 5.26303 14.6074ZM7.64792 2.95663C7.64792 2.41401 7.65417 1.86515 7.64792 1.32253C7.64792 1.05434 7.51057 0.898415 7.29206 0.885941C7.06731 0.873467 6.91123 1.03563 6.8925 1.31006C6.88626 1.3849 6.88626 1.46598 6.88626 1.54083C6.88626 2.45767 6.88001 3.38074 6.88626 4.29758C6.8925 4.88386 6.78637 4.80278 7.41068 4.81526C7.59798 4.82149 7.65417 4.75289 7.65417 4.57201C7.64168 4.02939 7.64792 3.49301 7.64792 2.95663ZM2.84692 2.92544C2.84692 2.37035 2.85316 1.82149 2.84068 1.2664C2.83443 0.99197 2.65338 0.842282 2.39741 0.898415C2.17266 0.948311 2.11023 1.11047 2.11023 1.31629C2.11023 2.32045 2.11023 3.32461 2.11023 4.32877C2.11023 4.85891 2.02907 4.79654 2.60344 4.80902C2.79073 4.81526 2.84692 4.74041 2.84692 4.55954C2.84068 4.01692 2.84692 3.4743 2.84692 2.92544Z" fill="white"/>
<path d="M17.2251 7.93345C17.2251 7.64031 17.2188 7.34094 17.2251 7.0478C17.2313 6.89187 17.1814 6.81079 17.0253 6.7609C16.2074 6.47399 15.7329 5.90019 15.6268 5.03324C15.5144 4.14135 16.0888 3.23699 16.9691 2.94385C17.1689 2.87524 17.2438 2.78169 17.2251 2.5821C17.2126 2.43241 17.2126 2.28272 17.3312 2.17046C17.4498 2.05196 17.5934 2.00206 17.7557 2.05819C17.9243 2.11433 18.0616 2.23907 18.0367 2.4137C17.9867 2.76921 18.1615 2.88771 18.4612 3.01869C19.1917 3.34302 19.5975 3.94177 19.6349 4.75882C19.6474 5.05196 19.5101 5.23907 19.2666 5.26401C19.0106 5.28896 18.8358 5.1268 18.8046 4.82742C18.7609 4.41578 18.5923 4.08522 18.2364 3.85445C18.1116 3.77337 18.0429 3.76713 18.0429 3.94801C18.0492 4.59665 18.0492 5.23907 18.0429 5.88771C18.0429 6.06235 18.1553 6.08106 18.2739 6.12472C19.4726 6.5426 20.0095 7.9085 19.4039 9.00622C19.1542 9.46152 18.7858 9.78584 18.2864 9.94177C18.0929 10.0041 18.0117 10.0977 18.0429 10.291C18.0429 10.3035 18.0429 10.3222 18.0429 10.3347C18.0367 10.6466 17.8806 10.8524 17.6309 10.8524C17.3811 10.8524 17.2063 10.6528 17.2188 10.3347C17.2313 10.1039 17.1626 9.9979 16.9316 9.91682C16.1575 9.64863 15.6393 8.9189 15.6143 8.10185C15.6018 7.82119 15.7579 7.62784 16.0014 7.60913C16.2511 7.59042 16.4259 7.75882 16.4509 8.03948C16.4821 8.44489 16.6507 8.76921 16.9878 9.00622C17.044 9.04364 17.1064 9.10601 17.1751 9.06859C17.2375 9.03117 17.2126 8.95632 17.2126 8.89395C17.2251 8.56963 17.2251 8.25154 17.2251 7.93345ZM17.2251 4.83366C17.2251 4.54052 17.2251 4.24114 17.2251 3.94801C17.2251 3.81703 17.2001 3.74218 17.0565 3.83574C16.6819 4.06651 16.4759 4.40331 16.4696 4.8399C16.4696 5.26401 16.6632 5.60081 17.0253 5.83158C17.1564 5.9189 17.2313 5.9189 17.2251 5.72555C17.2188 5.41994 17.2251 5.1268 17.2251 4.83366ZM18.0554 8.02077C18.0554 8.32638 18.0554 8.62576 18.0554 8.93137C18.0554 9.09354 18.1178 9.10601 18.2364 9.02493C18.611 8.79416 18.8108 8.45112 18.8108 8.01453C18.8108 7.59042 18.611 7.25362 18.2427 7.02285C18.1116 6.94177 18.0492 6.94801 18.0554 7.12888C18.0616 7.43449 18.0554 7.72763 18.0554 8.02077Z" fill="white"/>
</g>
<defs>
<clipPath id="clip0_2087_1005">
<rect width="24.0175" height="24" fill="white"/>
</clipPath>
</defs>
</svg>
