<svg width="24" height="24" viewBox="0 0 24 24" fill="none" xmlns="http://www.w3.org/2000/svg">
<g clip-path="url(#clip0_34_145)">
<path d="M24 4.81875C24 9.65 24 14.4875 24 19.3188C23.8378 19.65 23.582 19.8062 23.2015 19.8062C17.9361 19.8 12.6644 19.8 7.39903 19.8C7.08086 19.8 7.08086 19.8 7.08086 19.475C7.08086 18.9125 7.08086 18.35 7.08086 17.7938C7.07462 17.3313 6.78141 17 6.39461 17.0063C6.00158 17.0125 5.72084 17.3438 5.7146 17.8062C5.7146 17.875 5.7146 17.9437 5.7146 18.0187C5.7146 18.525 5.70836 19.0312 5.7146 19.5375C5.72084 19.7313 5.66469 19.8125 5.45258 19.8125C3.9054 19.8062 2.35822 19.8125 0.804802 19.8062C0.361859 19.8062 0.0686438 19.5125 0.0686438 19.075C0.0624052 17.6813 0.0624052 16.2812 0.0686438 14.8875C0.0686438 14.4812 0.336905 14.2 0.742416 14.1625C0.842234 14.15 0.942052 14.1375 1.04187 14.125C2.27712 13.975 3.09438 12.7812 2.79492 11.5687C2.57033 10.6562 1.84041 10.0812 0.804802 9.9875C0.305712 9.94375 0.0686438 9.68125 0.0686438 9.18125C0.0686438 7.83125 0.0686438 6.48125 0.0686438 5.1375C0.0686438 4.61875 0.343143 4.34375 0.86095 4.34375C2.40189 4.34375 3.94283 4.35 5.48377 4.3375C5.72708 4.3375 5.7957 4.425 5.78946 4.65C5.78323 5.24375 5.78946 5.8375 5.78946 6.425C5.78946 6.66875 5.86433 6.86875 6.0702 7.0125C6.28856 7.15625 6.51938 7.1875 6.75645 7.0625C6.99976 6.9375 7.12453 6.725 7.12453 6.45625C7.13077 5.86875 7.12453 5.2875 7.12453 4.7C7.12453 4.34375 7.12453 4.34375 7.48637 4.34375C12.7081 4.34375 17.9298 4.34375 23.1516 4.3375C23.5508 4.325 23.8316 4.4625 24 4.81875ZM13.4692 16.95C13.7874 16.95 13.9808 16.775 14.143 16.525C15.9522 13.8 17.7614 11.0812 19.5768 8.35625C19.6205 8.29375 19.6642 8.225 19.6954 8.15625C19.8888 7.7375 19.6517 7.26875 19.1963 7.2C18.8469 7.14375 18.6348 7.34375 18.4539 7.6125C16.6572 10.3187 14.8604 13.0188 13.0575 15.7188C13.0013 15.8 12.9452 15.8875 12.9015 15.975C12.6894 16.425 12.9826 16.925 13.4692 16.95ZM13.4942 11.3437C14.6171 11.3437 15.5592 10.4062 15.5716 9.26875C15.5841 8.14375 14.6234 7.175 13.4942 7.175C12.3712 7.175 11.4354 8.1125 11.4167 9.25C11.398 10.375 12.365 11.35 13.4942 11.3437ZM19.0965 16.9625C20.2194 16.9625 21.1552 16.0312 21.1739 14.8938C21.1926 13.7688 20.2256 12.8 19.0965 12.8C17.9735 12.8 17.0377 13.7312 17.019 14.8687C17.0003 15.9875 17.9673 16.9562 19.0965 16.9625ZM5.7146 9.95C5.7146 10.175 5.70836 10.4 5.7146 10.625C5.73332 11.0375 6.03277 11.3437 6.39461 11.3437C6.75645 11.3437 7.06214 11.0312 7.07462 10.6187C7.0871 10.1812 7.0871 9.75 7.07462 9.3125C7.06214 8.9 6.77517 8.5875 6.40709 8.58125C6.03901 8.575 5.73332 8.89375 5.7146 9.31875C5.70836 9.53125 5.7146 9.7375 5.7146 9.95ZM7.08086 14.1875C7.08086 13.9625 7.0871 13.7375 7.08086 13.5125C7.06214 13.1 6.76269 12.7937 6.40085 12.7937C6.03277 12.7937 5.73332 13.1062 5.72708 13.5188C5.7146 13.9563 5.7146 14.3875 5.72708 14.825C5.73956 15.2375 6.03277 15.55 6.40085 15.5562C6.77517 15.5625 7.07462 15.2438 7.0871 14.8188C7.0871 14.6063 7.08086 14.4 7.08086 14.1875Z" fill="white"/>
<path d="M14.2116 9.2625C14.2116 9.66875 13.8997 9.9875 13.4879 9.98125C13.0824 9.98125 12.7705 9.6625 12.7767 9.25C12.7829 8.85 13.0886 8.54375 13.4879 8.54375C13.8997 8.54375 14.2116 8.85625 14.2116 9.2625Z" fill="white"/>
<path d="M19.8139 14.8812C19.8139 15.2875 19.4957 15.6 19.084 15.5937C18.6785 15.5875 18.3728 15.2687 18.379 14.8625C18.3852 14.4687 18.6972 14.1625 19.0964 14.1625C19.5082 14.1562 19.8201 14.4687 19.8139 14.8812Z" fill="white"/>
</g>
<defs>
<clipPath id="clip0_34_145">
<rect width="24" height="24" fill="white"/>
</clipPath>
</defs>
</svg>
