<svg width="20" height="16" viewBox="0 0 20 16" fill="none" xmlns="http://www.w3.org/2000/svg">
<path d="M2 16C1.45 16 0.979002 15.804 0.587002 15.412C0.195002 15.02 -0.000664969 14.5493 1.69779e-06 14V2C1.69779e-06 1.45 0.196002 0.979002 0.588002 0.587002C0.980002 0.195002 1.45067 -0.000664969 2 1.69779e-06H18C18.55 1.69779e-06 19.021 0.196001 19.413 0.588001C19.805 0.980001 20.0007 1.45067 20 2V14C20 14.55 19.804 15.021 19.412 15.413C19.02 15.805 18.5493 16.0007 18 16H2ZM5.075 11C5.24167 11 5.37933 10.9457 5.488 10.837C5.59667 10.7283 5.65067 10.591 5.65 10.425V5.55C5.65 5.4 5.59567 5.27067 5.487 5.162C5.37833 5.05333 5.24934 4.99934 5.1 5C5 5 4.89167 5.021 4.775 5.063C4.65834 5.105 4.55834 5.15067 4.475 5.2L3.425 5.95C3.29167 6.03334 3.21667 6.146 3.2 6.288C3.18333 6.43 3.21667 6.56734 3.3 6.7C3.38334 6.83333 3.49167 6.90834 3.625 6.925C3.75834 6.94167 3.89167 6.90834 4.025 6.825L4.5 6.5V10.425C4.5 10.5917 4.55434 10.7293 4.663 10.838C4.77167 10.9467 4.909 11.0007 5.075 11ZM8.2 11H11C11.1333 11 11.25 10.95 11.35 10.85C11.45 10.75 11.5 10.6333 11.5 10.5C11.5 10.3667 11.45 10.25 11.35 10.15C11.25 10.05 11.1333 10 11 10H9.15L9.1 9.95C9.45 9.61667 9.73767 9.33334 9.963 9.1C10.1883 8.86667 10.3673 8.68334 10.5 8.55C10.8 8.25 11.025 7.95 11.175 7.65C11.325 7.35 11.4 7.03334 11.4 6.7C11.4 6.21667 11.2167 5.81234 10.85 5.487C10.4833 5.16167 10.0167 4.99934 9.45 5C9.11667 5 8.80433 5.07934 8.513 5.238C8.22167 5.39667 7.984 5.609 7.8 5.875C7.71667 5.99167 7.7 6.11667 7.75 6.25C7.8 6.38334 7.9 6.48334 8.05 6.55C8.16667 6.6 8.29167 6.60433 8.425 6.563C8.55834 6.52167 8.69167 6.434 8.825 6.3C8.90833 6.21667 9.00434 6.154 9.113 6.112C9.22167 6.07 9.334 6.04934 9.45 6.05C9.7 6.05 9.90434 6.11667 10.063 6.25C10.2217 6.38334 10.3007 6.55 10.3 6.75C10.3 6.93334 10.2667 7.10433 10.2 7.263C10.1333 7.42167 9.98334 7.61734 9.75 7.85L9.05 8.55L7.875 9.725C7.79167 9.80834 7.725 9.91267 7.675 10.038C7.625 10.1633 7.6 10.284 7.6 10.4C7.6 10.5667 7.65833 10.7083 7.775 10.825C7.89167 10.9417 8.03333 11 8.2 11ZM15 11C15.6 11 16.0833 10.8333 16.45 10.5C16.8167 10.1667 17 9.73334 17 9.2C17 8.9 16.9167 8.63334 16.75 8.4C16.5833 8.16667 16.35 7.98334 16.05 7.85V7.8C16.2833 7.66667 16.4667 7.49567 16.6 7.287C16.7333 7.07833 16.8 6.83267 16.8 6.55C16.8 6.1 16.625 5.729 16.275 5.437C15.925 5.145 15.4833 4.99934 14.95 5C14.65 5 14.3623 5.06667 14.087 5.2C13.8117 5.33333 13.5827 5.50834 13.4 5.725C13.3 5.85834 13.275 5.996 13.325 6.138C13.375 6.28 13.4917 6.39234 13.675 6.475C13.775 6.50834 13.8793 6.50834 13.988 6.475C14.0967 6.44167 14.209 6.36667 14.325 6.25C14.4083 6.16667 14.5 6.10433 14.6 6.063C14.7 6.02167 14.8167 6.00067 14.95 6C15.1667 6 15.3457 6.06267 15.487 6.188C15.6283 6.31333 15.6993 6.46733 15.7 6.65C15.7 6.88333 15.6167 7.06667 15.45 7.2C15.2833 7.33333 15.0667 7.4 14.8 7.4C14.7 7.4 14.6 7.45 14.5 7.55C14.4 7.65 14.35 7.76667 14.35 7.9C14.35 8.03333 14.4 8.15 14.5 8.25C14.6 8.35 14.7167 8.4 14.85 8.4C15.1833 8.4 15.4417 8.46667 15.625 8.6C15.8083 8.73334 15.9 8.91667 15.9 9.15C15.9 9.36667 15.8083 9.55434 15.625 9.713C15.4417 9.87167 15.2333 9.95067 15 9.95C14.8167 9.95 14.6623 9.921 14.537 9.863C14.4117 9.805 14.2993 9.709 14.2 9.575C14.1 9.44167 13.979 9.35 13.837 9.3C13.695 9.25 13.5577 9.25 13.425 9.3C13.2917 9.36667 13.1917 9.46667 13.125 9.6C13.0583 9.73334 13.0583 9.86667 13.125 10C13.3083 10.3333 13.5583 10.5833 13.875 10.75C14.1917 10.9167 14.5667 11 15 11ZM2 14H18V2H2V14Z" fill="#565454"/>
</svg>
