<svg width="30" height="35" viewBox="0 0 30 35" fill="none" xmlns="http://www.w3.org/2000/svg">
<path d="M8.33334 20.833C7.86111 20.833 7.465 20.673 7.145 20.353C6.825 20.033 6.66556 19.6375 6.66667 19.1663C6.66667 18.6941 6.82667 18.298 7.14667 17.978C7.46667 17.658 7.86223 17.4986 8.33334 17.4997C8.80556 17.4997 9.20167 17.6597 9.52167 17.9797C9.84167 18.2997 10.0011 18.6952 10 19.1663C10 19.6386 9.84 20.0347 9.52 20.3547C9.2 20.6747 8.80445 20.8341 8.33334 20.833ZM15 20.833C14.5278 20.833 14.1317 20.673 13.8117 20.353C13.4917 20.033 13.3322 19.6375 13.3333 19.1663C13.3333 18.6941 13.4933 18.298 13.8133 17.978C14.1333 17.658 14.5289 17.4986 15 17.4997C15.4722 17.4997 15.8683 17.6597 16.1883 17.9797C16.5083 18.2997 16.6678 18.6952 16.6667 19.1663C16.6667 19.6386 16.5067 20.0347 16.1867 20.3547C15.8667 20.6747 15.4711 20.8341 15 20.833ZM21.6667 20.833C21.1944 20.833 20.7983 20.673 20.4783 20.353C20.1583 20.033 19.9989 19.6375 20 19.1663C20 18.6941 20.16 18.298 20.48 17.978C20.8 17.658 21.1956 17.4986 21.6667 17.4997C22.1389 17.4997 22.535 17.6597 22.855 17.9797C23.175 18.2997 23.3344 18.6952 23.3333 19.1663C23.3333 19.6386 23.1733 20.0347 22.8533 20.3547C22.5333 20.6747 22.1378 20.8341 21.6667 20.833ZM3.33334 34.1663C2.41667 34.1663 1.63167 33.8397 0.978336 33.1863C0.325003 32.533 -0.00110828 31.7486 2.82966e-06 30.833V7.49967C2.82966e-06 6.58301 0.32667 5.79801 0.980003 5.14467C1.63334 4.49134 2.41778 4.16523 3.33334 4.16634H5V2.45801C5 1.98579 5.16 1.5969 5.48 1.29134C5.8 0.985786 6.19556 0.833008 6.66667 0.833008C7.13889 0.833008 7.535 0.993008 7.855 1.31301C8.175 1.63301 8.33445 2.02856 8.33334 2.49967V4.16634H21.6667V2.45801C21.6667 1.98579 21.8267 1.5969 22.1467 1.29134C22.4667 0.985786 22.8622 0.833008 23.3333 0.833008C23.8056 0.833008 24.2017 0.993008 24.5217 1.31301C24.8417 1.63301 25.0011 2.02856 25 2.49967V4.16634H26.6667C27.5833 4.16634 28.3683 4.49301 29.0217 5.14634C29.675 5.79967 30.0011 6.58412 30 7.49967V30.833C30 31.7497 29.6733 32.5347 29.02 33.188C28.3667 33.8413 27.5822 34.1674 26.6667 34.1663H3.33334ZM3.33334 30.833H26.6667V14.1663H3.33334V30.833ZM3.33334 10.833H26.6667V7.49967H3.33334V10.833Z" fill="white"/>
</svg>
