<svg width="24" height="24" viewBox="0 0 24 24" fill="none" xmlns="http://www.w3.org/2000/svg">
<g clip-path="url(#clip0_1696_1280)">
<path d="M11.874 23.9956C7.99391 23.9956 4.11381 23.9944 0.233717 24C0.0738423 24 0.0419922 23.9688 0.0419922 23.8085C0.0469883 16.4324 0.0463638 9.05628 0.0463638 1.68016C0.173764 1.43194 0.378604 1.286 0.634654 1.17935C2.13661 0.552566 3.69914 0.181484 5.32099 0.0898046C7.55425 -0.0361763 9.71131 0.319938 11.7791 1.19058C12.1825 1.36084 12.3599 1.62902 12.3599 2.06933C12.3536 9.0937 12.3542 16.1175 12.3599 23.1418C12.3599 23.5347 12.2275 23.8191 11.8746 23.995L11.874 23.9956ZM6.17095 3.88857C5.22045 3.88857 4.26994 3.88607 3.32006 3.88981C2.84355 3.89169 2.58563 4.15051 2.58438 4.62949C2.58126 5.83504 2.58126 7.04121 2.58438 8.24676C2.58563 8.73322 2.8498 8.99204 3.34129 8.99267C5.23419 8.99454 7.12708 8.99391 9.0206 8.99267C9.55144 8.99267 9.80437 8.73634 9.80561 8.20186C9.80749 7.02686 9.80749 5.8525 9.80561 4.67751C9.80499 4.13554 9.56143 3.88981 9.02373 3.88857C8.07322 3.8867 7.12271 3.88857 6.17283 3.88857H6.17095ZM5.51771 16.3675C5.71256 16.3675 5.90741 16.3669 6.10163 16.3675C6.41451 16.3688 6.41826 16.3763 6.25651 16.6563C5.953 17.1814 5.64761 17.7066 5.34597 18.2329C5.26042 18.3826 5.18922 18.5385 5.22107 18.7194C5.27478 19.0244 5.49211 19.2489 5.78438 19.3013C6.05604 19.3499 6.32771 19.214 6.49882 18.9208C7.04402 17.9872 7.58735 17.0517 8.12443 16.1131C8.45979 15.5275 8.15316 15.0104 7.47119 15.0042C7.074 15.0005 6.67681 15.0042 6.27962 15.003C5.95487 15.0023 5.94613 14.9861 6.10476 14.7011C6.37642 14.2115 6.65682 13.7263 6.91787 13.2305C7.15206 12.7858 6.92849 12.3224 6.44824 12.2214C6.17033 12.1628 5.89492 12.3131 5.71131 12.6399C5.22045 13.5155 4.7327 14.3924 4.24808 15.2711C3.93645 15.8368 4.23684 16.3501 4.88633 16.3669C5.09679 16.3725 5.30663 16.3675 5.51709 16.3682L5.51771 16.3675Z" fill="#565454"/>
<path d="M20.3204 13.3514C20.3204 11.9981 20.3191 10.6441 20.3222 9.29074C20.3222 9.13108 20.3004 9.02006 20.1193 8.95146C18.8115 8.4544 18.1215 7.46651 18.0927 6.05951C18.0821 5.52316 18.0865 4.98618 18.0921 4.4492C18.0977 3.89975 18.2782 3.67897 18.8165 3.56546C18.9589 3.53553 19.0114 3.46443 19.0089 3.32473C19.0045 3.06029 19.0045 2.79585 19.0089 2.53142C19.017 2.10483 19.3162 1.80422 19.7271 1.8036C20.138 1.8036 20.4365 2.10234 20.4453 2.53017C20.4509 2.79461 20.4509 3.05904 20.4465 3.32348C20.444 3.48127 20.5146 3.55174 20.6707 3.55049C20.9355 3.548 21.2003 3.54925 21.4651 3.54925C21.6106 3.54925 21.6756 3.47752 21.6737 3.33221C21.6706 3.06777 21.6693 2.80334 21.6756 2.5389C21.6855 2.12728 21.9628 1.82605 22.3432 1.80485C22.7503 1.78239 23.0688 2.0356 23.1157 2.45097C23.1457 2.72039 23.1407 2.99418 23.1369 3.2661C23.1344 3.45071 23.1937 3.54675 23.3911 3.5823C23.7802 3.65215 23.9937 3.92282 23.9969 4.32259C24.0012 4.93691 24.0006 5.55184 23.9975 6.16616C23.9919 7.3898 23.2674 8.46812 22.1233 8.89408C21.8473 8.99699 21.7848 9.13607 21.7861 9.40362C21.7942 12.0099 21.7917 14.6156 21.7905 17.2219C21.7905 18.0352 21.5725 18.7823 21.0273 19.3973C20.128 20.4107 18.9945 20.7787 17.6943 20.397C16.3947 20.0153 15.644 19.096 15.4236 17.7589C15.3936 17.5768 15.4067 17.3866 15.4067 17.1995C15.4055 15.9702 15.4067 14.741 15.4055 13.5117C15.4048 13.0327 15.3049 12.5837 14.9783 12.2114C14.7073 11.902 14.3725 11.6931 13.9622 11.642C13.743 11.6151 13.6706 11.521 13.6812 11.3095C13.6943 11.0376 13.6831 10.7651 13.6843 10.4932C13.6855 10.1601 13.7218 10.1233 14.049 10.1707C15.0938 10.3217 15.8938 10.8468 16.4315 11.7548C16.7144 12.2326 16.8506 12.754 16.8487 13.3128C16.845 14.6356 16.8431 15.9577 16.8487 17.2805C16.8531 18.3052 17.6175 19.0798 18.6048 19.0761C19.5316 19.0723 20.311 18.3146 20.3172 17.3878C20.3266 16.0419 20.3197 14.6961 20.3197 13.3502H20.321L20.3204 13.3514Z" fill="#565454"/>
<path d="M6.19402 5.22186C6.84851 5.22186 7.50237 5.2281 8.15686 5.21812C8.38231 5.215 8.48036 5.28236 8.47536 5.52309C8.46287 6.13741 8.46537 6.75172 8.47411 7.36603C8.47723 7.57683 8.3973 7.65791 8.18871 7.65666C6.85662 7.65292 5.52516 7.65292 4.19308 7.65666C4.00136 7.65666 3.90955 7.59617 3.91267 7.38724C3.92142 6.75733 3.92204 6.12743 3.91267 5.49752C3.90955 5.27675 4.00635 5.21687 4.20807 5.21874C4.87005 5.22498 5.53203 5.22124 6.19402 5.22124V5.22186Z" fill="#565454"/>
</g>
<defs>
<clipPath id="clip0_1696_1280">
<rect width="24" height="24" fill="white"/>
</clipPath>
</defs>
</svg>
