<svg width="16" height="16" viewBox="0 0 16 16" fill="none" xmlns="http://www.w3.org/2000/svg">
<path d="M7.33323 2.03711C6.21022 2.16261 5.14547 2.60266 4.26153 3.3066C3.37758 4.01054 2.71036 4.94977 2.33666 6.01619C1.96296 7.08261 1.89797 8.23287 2.14917 9.3346C2.40037 10.4363 2.95755 11.4447 3.75658 12.2438C4.55561 13.0428 5.56402 13.6 6.66574 13.8512C7.76747 14.1024 8.91773 14.0374 9.98415 13.6637C11.0506 13.29 11.9898 12.6228 12.6937 11.7388C13.3977 10.8549 13.8377 9.79012 13.9632 8.66711H7.33323V2.03711Z" stroke="white" stroke-linecap="round" stroke-linejoin="round"/>
<path d="M13.6587 6.00046H10V2.3418C10.8436 2.64108 11.6098 3.12482 12.2427 3.75776C12.8756 4.39069 13.3594 5.15687 13.6587 6.00046Z" stroke="white" stroke-linecap="round" stroke-linejoin="round"/>
</svg>
