<svg width="23" height="23" viewBox="0 0 23 23" fill="none" xmlns="http://www.w3.org/2000/svg">
<path d="M14.6865 11.5125L6.38477 10.05V20.8568C6.38486 20.9742 6.40809 21.0904 6.4531 21.1989C6.49812 21.3073 6.56406 21.4058 6.64714 21.4887C6.73023 21.5717 6.82884 21.6374 6.93734 21.6823C7.04584 21.7271 7.16211 21.7501 7.27952 21.75H21.6045C21.722 21.7503 21.8385 21.7275 21.9472 21.6827C22.0558 21.638 22.1546 21.5722 22.2379 21.4893C22.3211 21.4063 22.3872 21.3077 22.4323 21.1992C22.4774 21.0907 22.5007 20.9743 22.5008 20.8568V16.875L14.6865 11.5125Z" fill="#185C37"/>
<path d="M14.6865 2.25H7.27952C7.16211 2.2499 7.04584 2.27293 6.93734 2.31776C6.82884 2.3626 6.73023 2.42837 6.64714 2.51132C6.56406 2.59426 6.49812 2.69276 6.4531 2.80119C6.40809 2.90962 6.38486 3.02585 6.38477 3.14325V7.125L14.6865 12L19.0823 13.4625L22.5008 12V7.125L14.6865 2.25Z" fill="#21A366"/>
<path d="M6.38477 7.125H14.6865V12H6.38477V7.125Z" fill="#107C41"/>
<path opacity="0.1" d="M12.3263 6.1499H6.38477V18.3374H12.3263C12.563 18.3362 12.7898 18.2418 12.9574 18.0746C13.125 17.9074 13.22 17.6809 13.2218 17.4442V7.04315C13.22 6.80641 13.125 6.57989 12.9574 6.4127C12.7898 6.2455 12.563 6.15108 12.3263 6.1499Z" fill="black"/>
<path opacity="0.2" d="M11.838 6.63745H6.38477V18.825H11.838C12.0748 18.8238 12.3015 18.7294 12.4691 18.5622C12.6368 18.395 12.7317 18.1684 12.7335 17.9317V7.5307C12.7317 7.29396 12.6368 7.06744 12.4691 6.90024C12.3015 6.73305 12.0748 6.63863 11.838 6.63745Z" fill="black"/>
<path opacity="0.2" d="M11.838 6.63745H6.38477V17.85H11.838C12.0748 17.8488 12.3015 17.7544 12.4691 17.5872C12.6368 17.42 12.7317 17.1934 12.7335 16.9567V7.5307C12.7317 7.29396 12.6368 7.06744 12.4691 6.90024C12.3015 6.73305 12.0748 6.63863 11.838 6.63745Z" fill="black"/>
<path opacity="0.2" d="M11.3498 6.63745H6.38477V17.85H11.3498C11.5865 17.8488 11.8133 17.7544 11.9809 17.5872C12.1485 17.42 12.2435 17.1934 12.2453 16.9567V7.5307C12.2435 7.29396 12.1485 7.06744 11.9809 6.90024C11.8133 6.73305 11.5865 6.63863 11.3498 6.63745Z" fill="black"/>
<path d="M2.3955 6.63745H11.349C11.5862 6.63725 11.8137 6.73123 11.9816 6.89872C12.1496 7.06622 12.2441 7.29353 12.2445 7.5307V16.4692C12.2441 16.7064 12.1496 16.9337 11.9816 17.1012C11.8137 17.2687 11.5862 17.3627 11.349 17.3625H2.3955C2.27804 17.3626 2.16168 17.3397 2.05309 17.2949C1.9445 17.2501 1.84581 17.1844 1.76264 17.1014C1.67948 17.0184 1.61348 16.9199 1.56841 16.8114C1.52334 16.703 1.5001 16.5867 1.5 16.4692V7.5307C1.5001 7.41324 1.52334 7.29694 1.56841 7.18847C1.61348 7.07999 1.67948 6.98146 1.76264 6.8985C1.84581 6.81555 1.9445 6.74979 2.05309 6.705C2.16168 6.66021 2.27804 6.63726 2.3955 6.63745Z" fill="url(#paint0_linear_163_227)"/>
<path d="M4.27539 14.9047L6.15864 11.9917L4.43364 9.09521H5.81889L6.76014 10.95C6.84714 11.1255 6.91014 11.256 6.93864 11.343H6.95139C7.01289 11.202 7.07814 11.0662 7.14639 10.9335L8.15289 9.09821H9.42789L7.65864 11.9782L9.47289 14.907H8.11614L7.02864 12.8737C6.97815 12.7863 6.93524 12.6947 6.90039 12.6H6.88239C6.85068 12.6923 6.8084 12.7806 6.75639 12.8632L5.63664 14.9047H4.27539Z" fill="white"/>
<path d="M21.6043 2.25H14.6855V7.125H22.4998V3.14325C22.4997 3.02579 22.4765 2.90949 22.4314 2.80102C22.3863 2.69254 22.3203 2.59401 22.2372 2.51105C22.154 2.4281 22.0553 2.36234 21.9467 2.31755C21.8381 2.27276 21.7218 2.2498 21.6043 2.25Z" fill="#33C481"/>
<path d="M14.6855 12H22.4998V16.875H14.6855V12Z" fill="#107C41"/>
<defs>
<linearGradient id="paint0_linear_163_227" x1="3.3705" y1="5.93545" x2="10.374" y2="18.0645" gradientUnits="userSpaceOnUse">
<stop stop-color="#18884F"/>
<stop offset="0.5" stop-color="#117E43"/>
<stop offset="1" stop-color="#0B6631"/>
</linearGradient>
</defs>
</svg>
