<svg width="24" height="25" viewBox="0 0 24 25" fill="none" xmlns="http://www.w3.org/2000/svg">
<path d="M12.025 22.54C9.73313 22.54 7.44126 22.5418 5.14938 22.5387C4.08626 22.5375 3.26251 21.885 3.05688 20.8887C3.03063 20.7606 3.02626 20.6256 3.02626 20.4937C3.02438 17.5081 3.02313 14.5225 3.02626 11.5368C3.02751 10.3837 3.90063 9.51746 5.05813 9.51309C5.72063 9.51059 6.38313 9.50996 7.04563 9.51309C7.66001 9.51684 8.05688 9.91746 8.05876 10.525C8.06001 11.1218 7.65313 11.5406 7.04751 11.5493C6.47063 11.5575 5.89376 11.5581 5.31688 11.5481C5.12313 11.545 5.06251 11.61 5.06251 11.8031C5.06751 14.6093 5.06751 17.4156 5.06251 20.2218C5.06251 20.4212 5.13688 20.4731 5.32313 20.4725C9.79001 20.4687 14.2569 20.4687 18.7231 20.4737C18.9331 20.4737 18.9863 20.3987 18.9856 20.2C18.9806 17.4012 18.9806 14.6031 18.9856 11.8043C18.9856 11.6137 18.9294 11.5443 18.7331 11.5475C18.1719 11.5575 17.6106 11.5543 17.0494 11.55C16.2913 11.5437 15.8438 10.9593 16.03 10.2262C16.1338 9.81621 16.4625 9.52434 16.8831 9.51746C17.6625 9.50496 18.4431 9.49059 19.2213 9.52121C20.1788 9.55934 21.0163 10.4631 21.0194 11.4393C21.0269 13.63 21.0225 15.8206 21.0225 18.0106C21.0225 18.8056 20.9906 19.6025 21.0306 20.3956C21.0813 21.4075 20.3038 22.5456 18.8769 22.54C16.5931 22.5312 14.3088 22.5375 12.025 22.5375V22.54Z" fill="#B9B9B9"/>
<path d="M13.0888 6.08716C13.0313 6.17341 13.0594 6.26904 13.0594 6.35779C13.0575 8.67279 13.0581 10.9878 13.0569 13.3028C13.0569 13.419 13.0569 13.5378 13.0388 13.6522C12.9513 14.2203 12.5769 14.5465 12.0219 14.5459C11.4675 14.5453 11.0938 14.2172 11.0075 13.649C10.99 13.534 10.99 13.4159 10.99 13.2997C10.9894 10.9922 10.9894 8.68529 10.9894 6.37779C10.9894 6.28529 10.9894 6.19279 10.9894 6.09966C10.8731 6.07591 10.84 6.16341 10.79 6.21216C10.4456 6.55091 10.1088 6.89779 9.7619 7.23466C9.46627 7.52216 9.11814 7.64466 8.71439 7.50029C8.31252 7.35654 8.0744 7.06154 8.01502 6.64029C7.96565 6.28841 8.12065 6.00654 8.3644 5.76341C9.1869 4.94341 10.0081 4.12216 10.8275 3.29904C10.9644 3.16154 11.0944 3.01591 11.2206 2.86779C11.6056 2.41466 12.3888 2.38216 12.7831 2.82466C13.4475 3.57029 14.185 4.24341 14.8794 4.95904C15.1506 5.23904 15.4331 5.50779 15.7044 5.78716C16.1475 6.24341 16.1519 6.84154 15.7213 7.26466C15.3006 7.67716 14.7138 7.65966 14.2644 7.21591C13.9313 6.88716 13.6038 6.55404 13.2713 6.22529C13.2188 6.17341 13.1794 6.09841 13.0888 6.08716Z" fill="#B9B9B9"/>
</svg>
