<svg width="48" height="49" viewBox="0 0 48 49" fill="none" xmlns="http://www.w3.org/2000/svg">
<path d="M47.9504 43.4221C46.6565 34.218 40.2754 26.7695 31.9644 23.8014C35.0831 21.368 37.1318 17.5878 37.1318 13.3008C37.1318 5.96714 31.2401 0 23.9991 0C16.7581 0 10.8664 5.96714 10.8664 13.3008C10.8664 17.5878 12.9151 21.368 16.0337 23.8014C7.7228 26.7695 1.34167 34.218 0.0477552 43.4221C-0.148545 44.8166 0.266173 46.2278 1.18408 47.2975C2.11029 48.3812 3.45121 49 4.86401 49H43.1369C44.547 49 45.8879 48.3784 46.8169 47.2975C47.7348 46.2278 48.144 44.8138 47.9504 43.4221ZM15.0135 13.298C15.0135 8.28007 19.0446 4.19744 23.9991 4.19744C28.9536 4.19744 32.9846 8.28007 32.9846 13.298C32.9846 18.3158 28.9536 22.3985 23.9991 22.3985C19.0446 22.3985 15.0135 18.3158 15.0135 13.298ZM43.6816 44.5449C43.5987 44.6402 43.4189 44.7998 43.1342 44.7998H4.86401C4.57924 44.7998 4.39953 44.6402 4.31658 44.5449C4.24194 44.4553 4.12028 44.2677 4.15623 44.0129C5.54968 34.0863 14.0818 26.5987 23.9991 26.5987C33.9164 26.5987 42.4485 34.0835 43.842 44.0129C43.8779 44.2677 43.7562 44.4581 43.6816 44.5449Z" fill="white"/>
</svg>
