<svg width="14" height="15" viewBox="0 0 14 15" fill="none" xmlns="http://www.w3.org/2000/svg">
<path d="M8.33313 7.49898V14.0648C8.36645 14.3147 8.28313 14.5814 8.09149 14.7563C8.01441 14.8336 7.92285 14.8949 7.82205 14.9367C7.72125 14.9785 7.6132 15 7.50407 15C7.39495 15 7.28689 14.9785 7.18609 14.9367C7.0853 14.8949 6.99373 14.8336 6.91665 14.7563L5.24188 13.0816C5.151 12.9927 5.08191 12.8841 5.03999 12.7641C4.99807 12.6441 4.98447 12.5161 5.00024 12.39V7.49898H4.97525L0.175899 1.34982C0.040591 1.17612 -0.0204627 0.955919 0.0060788 0.737342C0.0326203 0.518764 0.144599 0.319579 0.317547 0.183308C0.475859 0.0666576 0.650835 0 0.834143 0H12.4992C12.6825 0 12.8575 0.0666576 13.0158 0.183308C13.1888 0.319579 13.3007 0.518764 13.3273 0.737342C13.3538 0.955919 13.2928 1.17612 13.1575 1.34982L8.35812 7.49898H8.33313Z" fill="#79747E"/>
</svg>
