<svg width="25" height="24" viewBox="0 0 25 24" fill="none" xmlns="http://www.w3.org/2000/svg">
<path d="M23.7049 11.9812C23.7362 17.5562 19.777 22.5625 14.0103 23.525C10.3201 24.1375 7.03648 23.1625 4.23444 20.675C2.15793 18.825 0.950799 16.475 0.519234 13.7312C0.437925 13.2 0.394143 12.6625 0.406652 12.1187C0.412907 11.7875 0.544253 11.6562 0.881999 11.6562C1.1572 11.6562 1.4324 11.65 1.70135 11.6562C1.85146 11.6625 1.90775 11.6062 1.914 11.4563C1.99531 10.15 2.30804 8.9 2.8772 7.7125C3.8279 5.7375 5.26019 4.2125 7.17408 3.15C8.5063 2.4125 9.94485 2.0125 11.4585 1.9125C11.6086 1.9 11.6649 1.85 11.6586 1.7C11.6523 1.425 11.6523 1.15625 11.6586 0.88125C11.6586 0.53125 11.7899 0.40625 12.1465 0.40625C14.3356 0.4125 16.362 0.99375 18.2071 2.1625C21.1343 4.0125 22.8918 6.66875 23.5423 10.0562C23.586 10.3 23.6173 10.55 23.6486 10.8C23.6986 11.2188 23.7174 11.6375 23.7049 11.9812ZM11.6649 7.33125C11.6649 6.01875 11.6649 4.70625 11.6649 3.39375C11.6649 2.6875 11.6649 2.6875 10.9643 2.76875C8.85656 3.0125 7.01772 3.86875 5.52288 5.3625C3.26499 7.6125 2.36433 10.35 2.82091 13.5063C3.07735 15.2688 3.8279 16.8125 4.97873 18.1625C5.10383 18.3125 5.18513 18.3563 5.35401 18.1875C7.38674 16.1438 9.42572 14.1062 11.471 12.075C11.6086 11.9375 11.6649 11.7938 11.6586 11.6C11.6586 10.175 11.6649 8.75 11.6649 7.33125ZM12.4467 6.44375C12.4467 8.09375 12.4467 9.7375 12.4467 11.3875C12.4467 11.5625 12.4717 11.6562 12.6843 11.6562C16.0055 11.65 19.3267 11.65 22.6479 11.6562C22.8355 11.6562 22.8918 11.5938 22.8855 11.4125C22.8605 10.7688 22.7604 10.1375 22.6103 9.51875C21.9411 6.8375 20.4775 4.7 18.2134 3.11875C16.5747 1.975 14.7484 1.34375 12.7469 1.23125C12.4529 1.2125 12.4529 1.225 12.4529 1.525C12.4467 3.16875 12.4467 4.80625 12.4467 6.44375ZM15.4489 19.3125C15.4489 19.7188 15.4551 20.125 15.4489 20.5312C15.4426 20.7188 15.4989 20.7437 15.6678 20.675C16.606 20.2812 17.4503 19.7437 18.2196 19.0812C18.3572 18.9625 18.351 18.8937 18.2259 18.7687C16.2244 16.775 14.223 14.775 12.2215 12.7688C12.0902 12.6313 12.0151 12.6437 11.8838 12.775C9.88856 14.775 7.8871 16.775 5.87939 18.7687C5.74804 18.9 5.76681 18.9688 5.8919 19.0812C6.65496 19.7375 7.49932 20.2688 8.42499 20.6625C8.62514 20.75 8.65641 20.6875 8.65641 20.5C8.65016 19.725 8.65016 18.9562 8.65641 18.1812C8.65641 17.7687 8.769 17.6625 9.18805 17.6562C9.41947 17.6562 9.65714 17.6438 9.88856 17.6625C10.095 17.675 10.1575 17.6062 10.1575 17.4C10.145 16.6437 10.1513 15.8875 10.1513 15.125C10.1513 14.7875 10.2826 14.6625 10.6203 14.6562C11.0644 14.6562 11.5085 14.6562 11.9588 14.6562C12.3091 14.6562 12.4342 14.7875 12.4342 15.1438C12.4342 15.4187 12.4404 15.6875 12.4342 15.9625C12.4342 16.1 12.4842 16.1625 12.6281 16.1562C12.9158 16.15 13.2035 16.15 13.4974 16.1562C13.8039 16.1625 13.9353 16.2938 13.9415 16.6063C13.9478 16.8813 13.9478 17.1562 13.9415 17.425C13.9353 17.5938 13.9916 17.6625 14.1667 17.6562C14.4419 17.6437 14.7108 17.65 14.986 17.6562C15.305 17.6625 15.4364 17.7937 15.4426 18.1125C15.4489 18.5125 15.4489 18.9125 15.4489 19.3125ZM13.0721 12.4375C13.0596 12.4625 13.0471 12.4875 13.0346 12.5125C13.0909 12.5562 13.1534 12.5875 13.2035 12.6375C14.9735 14.4 16.7373 16.1687 18.5073 17.9375C18.9514 18.3813 18.9514 18.3813 19.3517 17.8813C20.5401 16.3875 21.2156 14.6812 21.3719 12.7812C21.3969 12.4438 21.3844 12.4375 21.0529 12.4375C18.4698 12.4375 15.8804 12.4375 13.2973 12.4375C13.2222 12.4375 13.1472 12.4375 13.0721 12.4375ZM1.226 12.8062C1.26978 13.4 1.35735 13.9938 1.5012 14.5813C2.17669 17.2687 3.634 19.4312 5.92943 20.9875C8.6439 22.8375 11.6273 23.3375 14.8046 22.5375C17.1251 21.95 19.0265 20.6875 20.5213 18.825C21.9098 17.1063 22.6729 15.125 22.873 12.9312C22.9168 12.4312 22.9105 12.4375 22.4227 12.4438C22.2413 12.4438 22.2038 12.5125 22.1913 12.6812C22.1537 13.2687 22.0724 13.8438 21.9348 14.4125C20.6839 19.6188 15.6365 22.975 10.3577 22.0562C6.98019 21.4688 4.52215 19.5875 2.95226 16.5562C2.32055 15.3438 2.00782 14.0312 1.914 12.6687C1.90775 12.5938 1.93276 12.4875 1.83269 12.4688C1.65131 12.4375 1.45116 12.4062 1.28229 12.4875C1.16345 12.525 1.25102 12.6875 1.226 12.8062ZM11.6649 18.4188C11.6649 17.5688 11.6649 16.7188 11.6649 15.8687C11.6649 15.3875 11.7211 15.45 11.2208 15.4312C11.0019 15.425 10.9393 15.4938 10.9456 15.7063C10.9518 17.4875 10.9518 19.2625 10.9456 21.0438C10.9456 21.2688 11.0206 21.3625 11.2333 21.3563C11.2896 21.3563 11.3459 21.3562 11.3959 21.3625C11.5961 21.3937 11.6711 21.3188 11.6711 21.1063C11.6586 20.2125 11.6649 19.3188 11.6649 18.4188ZM12.4467 19.1375C12.4467 19.8063 12.4529 20.4812 12.4467 21.15C12.4467 21.3125 12.4967 21.3875 12.6656 21.3687C12.7281 21.3625 12.7907 21.3687 12.8532 21.3625C13.1472 21.3438 13.1659 21.325 13.1659 21.0312C13.1659 19.825 13.1659 18.6125 13.1659 17.4062C13.1659 16.875 13.2473 16.95 12.6906 16.9375C12.5092 16.9312 12.4467 16.9937 12.4467 17.175C12.4529 17.8312 12.4467 18.4813 12.4467 19.1375ZM10.1638 19.8125C10.1638 19.5063 10.1638 19.2062 10.1638 18.9C10.1575 18.3813 10.2388 18.45 9.70718 18.4375C9.49452 18.4312 9.44449 18.5062 9.44449 18.7062C9.457 19.325 9.45074 19.9375 9.45074 20.5562C9.45074 21.0688 9.45074 21.0625 9.95736 21.1625C10.1137 21.1938 10.17 21.1437 10.17 20.9875C10.1575 20.5938 10.1638 20.2 10.1638 19.8125ZM13.9478 19.8062C13.9478 20.1187 13.9478 20.4312 13.9478 20.7437C13.9478 21.225 13.8915 21.2125 14.4044 21.1C14.617 21.05 14.6733 20.95 14.667 20.7437C14.6545 20.1375 14.667 19.525 14.6608 18.9188C14.6545 18.375 14.7484 18.45 14.1729 18.4312C13.979 18.425 13.9353 18.5063 13.9415 18.6812C13.954 19.0562 13.9478 19.4312 13.9478 19.8062Z" fill="white"/>
<path d="M7.9246 12.063C7.86205 12.063 7.79325 12.063 7.72445 12.063C7.59936 12.0692 7.53056 12.0192 7.54307 11.888C7.56183 11.7317 7.46801 11.7005 7.33667 11.6755C6.85507 11.5692 6.55485 11.2755 6.43601 10.7942C6.39223 10.6255 6.4235 10.5192 6.63616 10.5317C6.74249 10.538 6.85507 10.538 6.96139 10.5317C7.099 10.5255 7.20532 10.5442 7.25536 10.7005C7.27412 10.7567 7.32416 10.8067 7.3742 10.838C7.46176 10.8942 7.54307 10.9067 7.53681 10.7567C7.53681 10.7005 7.53056 10.6442 7.53681 10.5942C7.57434 10.338 7.50554 10.2005 7.21783 10.1317C6.68619 10.0067 6.39223 9.53796 6.41725 8.96296C6.43601 8.46921 6.79878 8.04421 7.3179 7.93171C7.47427 7.90046 7.56809 7.85671 7.54307 7.68171C7.54307 7.66921 7.54307 7.64421 7.54932 7.63796C7.7182 7.41921 7.94962 7.57546 8.14976 7.53796C8.26234 7.51296 8.33114 7.58171 8.31863 7.70046C8.29987 7.86921 8.39369 7.90046 8.53754 7.93171C9.00663 8.03171 9.3006 8.32546 9.42569 8.79421C9.47573 8.97546 9.4382 9.08796 9.21929 9.06921C9.11922 9.06296 9.01289 9.06296 8.91282 9.06921C8.76896 9.08171 8.65638 9.05046 8.60009 8.89421C8.56882 8.80046 8.475 8.70671 8.36867 8.73796C8.27485 8.76921 8.33114 8.88796 8.32489 8.96921C8.31863 9.03796 8.33114 9.11296 8.32489 9.18171C8.31238 9.33171 8.36242 9.39421 8.52503 9.42546C9.10045 9.54421 9.45696 9.98796 9.45071 10.5505C9.45071 11.113 9.0942 11.5442 8.51253 11.6755C8.43747 11.6942 8.32489 11.6755 8.3374 11.7817C8.36242 12.1317 8.12474 12.0567 7.9246 12.063ZM7.53681 9.05671C7.53681 9.02546 7.54307 8.99421 7.53681 8.96296C7.51805 8.88171 7.59936 8.75046 7.46801 8.73171C7.34918 8.71296 7.28038 8.81921 7.2366 8.92546C7.19281 9.02546 7.20532 9.11921 7.25536 9.21296C7.3054 9.29421 7.36794 9.38171 7.46801 9.36296C7.59311 9.34421 7.51805 9.22546 7.53681 9.15046C7.54307 9.11921 7.53681 9.08796 7.53681 9.05671ZM8.31863 10.5505C8.31863 10.5817 8.31238 10.613 8.31863 10.6442C8.3374 10.7192 8.2686 10.838 8.38118 10.863C8.48751 10.888 8.56256 10.788 8.60634 10.7005C8.65638 10.6067 8.66263 10.5067 8.6126 10.413C8.56256 10.313 8.48751 10.2067 8.36867 10.238C8.2686 10.263 8.33114 10.388 8.31863 10.463C8.31238 10.488 8.31863 10.5192 8.31863 10.5505Z" fill="white"/>
<path d="M19.9522 7.55627C19.946 9.45627 18.4386 10.9375 16.5247 10.9375C14.6484 10.9313 13.1598 9.41877 13.166 7.51252C13.1723 5.62502 14.6921 4.15002 16.6186 4.15627C18.4636 4.16252 19.9585 5.68127 19.9522 7.55627ZM16.5372 10.15C18.0071 10.1125 19.1516 9.04377 19.1579 7.55002C19.1642 6.10002 18.0696 4.95627 16.5748 4.95002C15.0987 4.94377 13.9854 6.06877 13.9604 7.55002C13.9353 8.95627 15.1362 10.1438 16.5372 10.15Z" fill="white"/>
<path d="M15.4802 8.28124C15.6491 8.26249 15.843 8.26874 15.9305 8.51874C15.9555 8.58749 16.0431 8.64374 16.1244 8.61249C16.1995 8.58749 16.1557 8.49999 16.1682 8.44374C16.1744 8.41249 16.1619 8.38124 16.1682 8.34999C16.212 8.08124 16.1369 7.94374 15.8304 7.87499C15.3113 7.75624 15.0236 7.28124 15.0424 6.71874C15.0611 6.23124 15.4051 5.80624 15.918 5.68749C16.0806 5.64999 16.2057 5.61874 16.1744 5.41874C16.1744 5.41249 16.1744 5.39999 16.1744 5.39374C16.3308 5.16249 16.556 5.32499 16.7499 5.28749C16.8562 5.26249 16.9625 5.29374 16.95 5.44374C16.9375 5.59999 17.0126 5.64999 17.1627 5.68124C17.6443 5.78124 17.9445 6.08124 18.0633 6.56249C18.1071 6.73749 18.0633 6.83749 17.8632 6.81874C17.7694 6.81249 17.6755 6.81249 17.5817 6.81874C17.4254 6.83124 17.294 6.81249 17.2315 6.63124C17.2002 6.54374 17.1126 6.46249 17.0126 6.48749C16.9125 6.51249 16.975 6.61874 16.9563 6.69374C16.95 6.71874 16.9563 6.74374 16.9563 6.76249C16.9125 7.01874 16.9938 7.14999 17.2815 7.21874C17.8006 7.34374 18.1008 7.81249 18.0821 8.36874C18.0633 8.86874 17.7131 9.29374 17.1939 9.41249C17.0376 9.44999 16.9187 9.47499 16.95 9.66874C16.95 9.68124 16.95 9.70624 16.9438 9.71249C16.7686 9.91874 16.5372 9.76874 16.3371 9.80624C16.2182 9.82499 16.1619 9.75624 16.1744 9.63749C16.187 9.48749 16.1182 9.44374 15.9743 9.41874C15.524 9.32499 15.2175 9.06249 15.0861 8.61249C14.9986 8.32499 15.0361 8.28124 15.3238 8.27499C15.3614 8.28124 15.3989 8.28124 15.4802 8.28124ZM16.187 6.78124C16.1119 6.69374 16.2683 6.49999 16.0869 6.48749C15.9243 6.47499 15.843 6.64374 15.843 6.79999C15.843 6.95624 15.9305 7.12499 16.0931 7.10624C16.2558 7.08749 16.1182 6.89999 16.187 6.78124ZM16.95 8.29999C16.95 8.33124 16.9438 8.36249 16.95 8.39374C16.9688 8.46874 16.9 8.58749 17.0126 8.61249C17.1189 8.63749 17.1939 8.53749 17.2377 8.44999C17.2878 8.35624 17.294 8.25624 17.244 8.16249C17.1939 8.06249 17.1189 7.95624 17 7.98749C16.9 8.01249 16.9625 8.13749 16.95 8.21249C16.9438 8.23749 16.95 8.26874 16.95 8.29999Z" fill="white"/>
</svg>
