<svg width="49" height="54" viewBox="0 0 49 54" fill="none" xmlns="http://www.w3.org/2000/svg">
<path d="M36.2141 2.73633C36.2141 3.9743 35.2415 4.947 34.0035 4.947H7.12175C5.88378 4.947 4.91108 5.91969 4.91108 7.15766V46.9497C4.91108 48.1877 5.88378 49.1604 7.12175 49.1604H37.8943C39.1322 49.1604 40.1049 48.1877 40.1049 46.9497V19.0953C40.1049 17.8573 41.0776 16.8846 42.3156 16.8846C43.5536 16.8846 44.5263 17.8573 44.5263 19.0953V46.9497C44.5263 50.5752 41.5198 53.5817 37.8943 53.5817H7.12175C3.49626 53.5817 0.489746 50.5752 0.489746 46.9497V7.15766C0.489746 3.53217 3.49626 0.525659 7.12175 0.525659H34.0035C35.2415 0.525659 36.2141 1.49835 36.2141 2.73633ZM9.68613 16.0003H21.0932C22.3311 16.0003 23.3038 15.0276 23.3038 13.7897C23.3038 12.5517 22.3311 11.579 21.0932 11.579H9.68613C8.44815 11.579 7.47546 12.5517 7.47546 13.7897C7.47546 15.0276 8.44815 16.0003 9.68613 16.0003ZM9.68613 25.5504H21.0932C22.3311 25.5504 23.3038 24.5777 23.3038 23.3398C23.3038 22.1018 22.3311 21.1291 21.0932 21.1291H9.68613C8.44815 21.1291 7.47546 22.1018 7.47546 23.3398C7.47546 24.5777 8.44815 25.5504 9.68613 25.5504ZM35.6836 30.0602H9.33242C8.09445 30.0602 7.12175 31.0329 7.12175 32.2709C7.12175 33.5088 8.09445 34.4815 9.33242 34.4815H35.6836C36.9216 34.4815 37.8943 33.5088 37.8943 32.2709C37.8943 31.0329 36.9216 30.0602 35.6836 30.0602ZM35.6836 38.8144H9.33242C8.09445 38.8144 7.12175 39.7871 7.12175 41.0251C7.12175 42.2631 8.09445 43.2358 9.33242 43.2358H35.6836C36.9216 43.2358 37.8943 42.2631 37.8943 41.0251C37.8943 39.7871 36.9216 38.8144 35.6836 38.8144ZM48.3286 1.14465C47.4443 0.260378 46.0295 0.260378 45.2337 1.14465L29.4053 16.8846C28.521 17.7689 28.521 19.1837 29.4053 19.9795C29.8474 20.4217 30.378 20.5985 30.997 20.5985C31.5275 20.5985 32.1465 20.4217 32.5887 19.9795L48.3286 4.32801C49.2129 3.44374 49.2129 2.02891 48.3286 1.14465Z" fill="white"/>
</svg>
