<?xml version="1.0" standalone="no"?>
<!DOCTYPE svg PUBLIC "-//W3C//DTD SVG 20010904//EN"
 "http://www.w3.org/TR/2001/REC-SVG-20010904/DTD/svg10.dtd">
<svg version="1.0" xmlns="http://www.w3.org/2000/svg"
 width="512.000000pt" height="512.000000pt" viewBox="0 0 512.000000 512.000000"
 preserveAspectRatio="xMidYMid meet">

<g transform="translate(0.000000,512.000000) scale(0.100000,-0.100000)"
fill="#000000" stroke="none">
<path d="M825 4936 c-47 -21 -93 -79 -100 -128 -3 -24 -5 -1055 -3 -2293 3
-2113 4 -2252 20 -2282 10 -17 32 -42 50 -55 l33 -23 1731 -3 1731 -2 34 23
c18 12 44 38 56 56 l23 34 0 1840 0 1841 -53 50 c-170 164 -1021 942 -1035
948 -9 4 -566 7 -1237 7 -987 0 -1226 -2 -1250 -13z m2375 -666 l0 -520 520 0
520 0 0 -1720 0 -1720 -1680 0 -1680 0 0 2240 0 2240 1160 0 1160 0 0 -520z
m568 43 c218 -201 406 -374 417 -385 19 -17 8 -18 -403 -18 l-422 0 0 385 c0
212 2 385 6 385 3 0 184 -165 402 -367z"/>
<path d="M1305 4296 c-48 -21 -93 -79 -100 -129 -4 -24 -5 -120 -3 -213 3
-188 10 -213 70 -256 32 -22 42 -23 243 -26 206 -3 211 -3 245 20 19 13 45 39
57 57 22 33 23 42 23 238 0 228 -3 241 -67 290 l-36 28 -201 2 c-152 2 -208 0
-231 -11z m375 -306 l0 -160 -160 0 -160 0 0 160 0 160 160 0 160 0 0 -160z"/>
<path d="M2127 4223 c-20 -5 -47 -52 -47 -83 0 -11 11 -32 25 -45 l24 -25 394
0 394 0 21 23 c30 32 29 81 -3 112 l-24 25 -383 -1 c-211 -1 -391 -3 -401 -6z"/>
<path d="M2116 3889 c-33 -26 -37 -88 -6 -119 19 -19 33 -20 411 -20 235 0
398 4 409 10 25 13 41 65 30 94 -21 56 -22 56 -436 56 -371 0 -382 -1 -408
-21z"/>
<path d="M1305 3336 c-48 -21 -93 -79 -100 -129 -4 -24 -5 -120 -3 -213 3
-188 10 -213 70 -256 32 -22 42 -23 243 -26 206 -3 211 -3 245 20 19 13 45 39
57 57 22 33 23 42 23 238 0 228 -3 241 -67 290 l-36 28 -201 2 c-151 2 -208
-1 -231 -11z m375 -306 l0 -160 -160 0 -160 0 0 160 0 160 160 0 160 0 0 -160z"/>
<path d="M2123 3258 c-28 -13 -46 -58 -37 -92 14 -59 -34 -56 959 -56 l912 0
21 23 c30 32 29 81 -3 112 l-24 25 -903 -1 c-611 0 -910 -4 -925 -11z"/>
<path d="M2117 2930 c-13 -11 -28 -31 -31 -45 -7 -29 15 -79 39 -89 9 -3 426
-6 926 -6 896 0 909 0 929 20 31 31 27 93 -6 119 -27 21 -31 21 -929 21 -885
0 -903 0 -928 -20z"/>
<path d="M1305 2376 c-48 -21 -93 -79 -100 -129 -4 -24 -5 -120 -3 -213 3
-188 10 -213 70 -256 32 -22 42 -23 243 -26 206 -3 211 -3 245 20 19 13 45 39
57 57 22 33 23 42 23 238 0 228 -3 241 -67 290 l-36 28 -201 2 c-152 2 -208 0
-231 -11z m375 -306 l0 -160 -160 0 -160 0 0 160 0 160 160 0 160 0 0 -160z"/>
<path d="M2122 2300 c-45 -18 -55 -88 -17 -125 l24 -25 871 0 871 0 24 25 c33
32 33 78 0 110 l-24 25 -863 -1 c-493 0 -873 -4 -886 -9z"/>
<path d="M2123 1978 c-28 -13 -46 -58 -37 -92 14 -59 -31 -56 921 -56 860 0
873 0 893 20 31 31 27 93 -6 119 -27 21 -31 21 -888 20 -581 0 -868 -4 -883
-11z"/>
<path d="M1305 1416 c-47 -21 -93 -79 -100 -129 -4 -24 -5 -120 -3 -213 3
-188 10 -213 70 -256 32 -22 42 -23 243 -26 206 -3 211 -3 245 20 19 13 45 39
57 57 22 33 23 42 23 241 0 198 -1 208 -23 241 -12 19 -42 44 -67 57 -41 20
-57 22 -230 22 -130 -1 -194 -5 -215 -14z m375 -306 l0 -160 -160 0 -160 0 0
160 0 160 160 0 160 0 0 -160z"/>
<path d="M2116 1329 c-33 -26 -37 -88 -6 -119 20 -20 33 -20 895 -20 862 0
875 0 895 20 31 31 27 93 -6 119 -27 21 -32 21 -889 21 -857 0 -862 0 -889
-21z"/>
<path d="M2123 1018 c-33 -16 -48 -61 -33 -98 7 -17 21 -35 31 -40 11 -6 350
-10 888 -10 858 0 871 0 891 20 31 31 27 93 -6 119 -27 21 -31 21 -888 20
-581 0 -868 -4 -883 -11z"/>
</g>
</svg>
