<svg width="16" height="16" viewBox="0 0 16 16" fill="none" xmlns="http://www.w3.org/2000/svg">
<path d="M11.7714 11.1047L8.94269 13.9333C8.81898 14.0572 8.67209 14.1554 8.5104 14.2224C8.3487 14.2894 8.17539 14.3239 8.00036 14.3239C7.82532 14.3239 7.65201 14.2894 7.49032 14.2224C7.32862 14.1554 7.18173 14.0572 7.05802 13.9333L4.22869 11.1047C3.48284 10.3588 2.97491 9.40847 2.76915 8.37391C2.56338 7.33935 2.66902 6.26701 3.07269 5.29249C3.47637 4.31797 4.15995 3.48503 5.03701 2.89901C5.91407 2.31299 6.9452 2.0002 8.00002 2.0002C9.05485 2.0002 10.086 2.31299 10.963 2.89901C11.8401 3.48503 12.5237 4.31797 12.9274 5.29249C13.331 6.26701 13.4367 7.33935 13.2309 8.37391C13.0251 9.40847 12.5172 10.3588 11.7714 11.1047Z" stroke="#8F9FBC" stroke-linecap="round" stroke-linejoin="round"/>
<path d="M10 7.33333C10 7.86376 9.78929 8.37247 9.41421 8.74754C9.03914 9.12261 8.53043 9.33333 8 9.33333C7.46957 9.33333 6.96086 9.12261 6.58579 8.74754C6.21071 8.37247 6 7.86376 6 7.33333C6 6.8029 6.21071 6.29419 6.58579 5.91911C6.96086 5.54404 7.46957 5.33333 8 5.33333C8.53043 5.33333 9.03914 5.54404 9.41421 5.91911C9.78929 6.29419 10 6.8029 10 7.33333Z" stroke="#8F9FBC" stroke-linecap="round" stroke-linejoin="round"/>
</svg>
