<svg width="40" height="40" viewBox="0 0 40 40" fill="none" xmlns="http://www.w3.org/2000/svg">
<g clip-path="url(#clip0_185_149)">
<path fill-rule="evenodd" clip-rule="evenodd" d="M40 20C40 25.3043 37.8929 30.3914 34.1421 34.1421C30.3914 37.8929 25.3043 40 20 40C14.6957 40 9.60859 37.8929 5.85786 34.1421C2.10714 30.3914 0 25.3043 0 20C0 14.6957 2.10714 9.60859 5.85786 5.85786C9.60859 2.10714 14.6957 0 20 0C25.3043 0 30.3914 2.10714 34.1421 5.85786C37.8929 9.60859 40 14.6957 40 20ZM26.25 13.75C26.25 15.4076 25.5915 16.9973 24.4194 18.1694C23.2473 19.3415 21.6576 20 20 20C18.3424 20 16.7527 19.3415 15.5806 18.1694C14.4085 16.9973 13.75 15.4076 13.75 13.75C13.75 12.0924 14.4085 10.5027 15.5806 9.33058C16.7527 8.15848 18.3424 7.5 20 7.5C21.6576 7.5 23.2473 8.15848 24.4194 9.33058C25.5915 10.5027 26.25 12.0924 26.25 13.75ZM20 25C17.676 24.9979 15.3835 25.5366 13.3038 26.5737C11.224 27.6107 9.4142 29.1176 8.0175 30.975C9.53811 32.6392 11.3892 33.968 13.4524 34.8762C15.5157 35.7845 17.7457 36.2524 20 36.25C22.2543 36.2524 24.4843 35.7845 26.5476 34.8762C28.6108 33.968 30.4619 32.6392 31.9825 30.975C30.5858 29.1176 28.776 27.6107 26.6962 26.5737C24.6165 25.5366 22.324 24.9979 20 25Z" fill="#8F9FBC"/>
</g>
<defs>
<clipPath id="clip0_185_149">
<rect width="40" height="40" fill="white"/>
</clipPath>
</defs>
</svg>
