<svg width="34" height="35" viewBox="0 0 34 35" fill="none" xmlns="http://www.w3.org/2000/svg">
<path d="M17 34.167C14.6945 34.167 12.5278 33.7292 10.5 32.8537C8.47226 31.9781 6.70837 30.7909 5.20837 29.292C3.70837 27.792 2.52115 26.0281 1.64671 24.0003C0.772263 21.9725 0.334485 19.8059 0.333374 17.5003C0.333374 13.1948 1.76393 9.45866 4.62504 6.29199C7.48615 3.12533 11.0556 1.33366 15.3334 0.916992V5.91699C12.4445 6.30588 10.0556 7.59755 8.16671 9.79199C6.27782 11.9864 5.33337 14.5559 5.33337 17.5003C5.33337 20.7503 6.4656 23.5075 8.73004 25.772C10.9945 28.0364 13.7512 29.1681 17 29.167C18.7778 29.167 20.4656 28.792 22.0634 28.042C23.6612 27.292 25.0289 26.2225 26.1667 24.8337L30.5 27.3337C28.9167 29.5003 26.9445 31.1809 24.5834 32.3753C22.2223 33.5698 19.6945 34.167 17 34.167ZM32.25 24.2503L27.9167 21.7503C28.1667 21.0559 28.3539 20.3542 28.4784 19.6453C28.6028 18.9364 28.6656 18.2214 28.6667 17.5003C28.6667 14.5559 27.7223 11.9864 25.8334 9.79199C23.9445 7.59755 21.5556 6.30588 18.6667 5.91699V0.916992C22.9445 1.33366 26.5139 3.12533 29.375 6.29199C32.2362 9.45866 33.6667 13.1948 33.6667 17.5003C33.6667 18.667 33.5623 19.8198 33.3534 20.9587C33.1445 22.0975 32.7767 23.1948 32.25 24.2503Z" fill="white"/>
</svg>
