<svg width="36" height="20" viewBox="0 0 36 20" fill="none" xmlns="http://www.w3.org/2000/svg">
<path d="M17.9998 10.1245C20.7956 10.1245 23.062 7.85808 23.062 5.06227C23.062 2.26645 20.7956 0 17.9998 0C15.204 0 12.9375 2.26645 12.9375 5.06227C12.9375 7.85808 15.204 10.1245 17.9998 10.1245Z" fill="#FCFCFC"/>
<path d="M28.6859 12.3746C30.8604 12.3746 32.6232 10.6118 32.6232 8.43732C32.6232 6.2628 30.8604 4.5 28.6859 4.5C26.5113 4.5 24.7485 6.2628 24.7485 8.43732C24.7485 10.6118 26.5113 12.3746 28.6859 12.3746Z" fill="#FCFCFC"/>
<path d="M32.1523 12.126C31.246 12.9781 30.0276 13.5019 28.6882 13.5019C28.343 13.5019 28.0062 13.4668 27.6807 13.4007C28.6776 15.079 29.2507 17.0371 29.2507 19.1267H35.4379C35.7486 19.1267 36.0004 18.875 36.0004 18.5642C36.0004 15.7849 34.4416 13.3627 32.1523 12.126Z" fill="#FCFCFC"/>
<path d="M7.31232 12.3746C9.48684 12.3746 11.2496 10.6118 11.2496 8.43732C11.2496 6.2628 9.48684 4.5 7.31232 4.5C5.1378 4.5 3.375 6.2628 3.375 8.43732C3.375 10.6118 5.1378 12.3746 7.31232 12.3746Z" fill="#FCFCFC"/>
<path d="M7.31216 13.5019C5.97277 13.5019 4.75431 12.9781 3.84802 12.126C1.55876 13.3627 0 15.7849 0 18.5642C0 18.875 0.251707 19.1267 0.562474 19.1267H6.74969C6.74969 17.0371 7.32341 15.079 8.31969 13.4007C7.99416 13.4668 7.65668 13.5019 7.31216 13.5019Z" fill="#FCFCFC"/>
<path d="M21.9643 9.80859C20.8899 10.7078 19.507 11.2499 17.9995 11.2499C16.4921 11.2499 15.1091 10.7078 14.0348 9.80859C10.4167 11.354 7.875 14.9475 7.875 19.1246H28.1241C28.1241 14.9482 25.5817 11.3547 21.9643 9.80859Z" fill="#FCFCFC"/>
</svg>
