<?xml version="1.0" encoding="UTF-8"?>
<svg id="Layer_2" data-name="Layer 2" xmlns="http://www.w3.org/2000/svg" viewBox="0 0 373.77 315">
  <g id="Layer_1-2" data-name="Layer 1">
    <g>
      <g>
        <path d="m342.17,190.42h-15.27c.03,10.4.09,20.8-.11,31.2-.45,21.95-20.48,37.03-41.21,31.41-12.54-3.41-23.9-15.59-23.73-32.1.31-30.94.12-61.88.04-92.81-.01-4.23-.11-8.53-.91-12.66-3.39-17.43-18.13-29.53-36.23-29.87-8.85-.16-17.71-.13-26.57.01-3.03.05-4.21-.86-4.12-4.03.2-6.73.08-13.47.06-20.21C194,27.39,166.96.25,133.01.15c-24.07-.07-48.15-.34-72.22.08C35.92.67,17.65,12.38,5.95,34.33c-2.96,5.56-4.33,11.66-5.95,17.67v258.24c2.19,3.83,5.61,4.76,9.82,4.76,57.75-.08,115.51-.05,173.26-.05,8.99,0,11.04-2.04,11.04-10.97V107.52c0-1.13.08-2.26-.01-3.37-.21-2.42.82-3.32,3.25-3.3,9.35.09,18.72-.18,28.06.12,8.36.26,14.69,4.26,18.7,11.73,2.09,3.9,2.18,8.12,2.21,12.38.25,33.42-.74,66.86.48,100.27.98,26.88,28.2,48.36,54.66,43.54,24.44-4.46,40.56-23.73,40.66-48.68.04-9.93.09-19.86.04-29.79Zm-167.76,109.25c-51.64-.09-103.27-.09-154.9,0-3.74.01-4.58-1.36-4.57-4.8.09-39.54.06-79.07.06-118.61s-.07-76.57.03-114.86c.06-21.48,13.61-38.9,34.27-44.53,3.75-1.03,7.57-1.43,11.46-1.42,24.07.03,48.14-.03,72.21.03,25.52.06,45.77,19.96,45.81,45.48.12,78.07.03,156.14.11,234.21,0,3.41-1.03,4.5-4.48,4.49Z"/>
        <path d="m160.3,63.35c-.05-12.74-8.68-21.3-21.44-21.36-13.96-.06-27.93,0-41.89,0s-28.18-.06-42.27.02c-12.49.06-21.11,8.7-21.16,21.24-.08,20.08-.07,40.15,0,60.23.04,12.14,8.76,21.3,20.86,21.38,28.18.18,56.36.18,84.54,0,12.65-.08,21.31-9.03,21.36-21.66.09-19.95.09-39.9,0-59.85Zm-15.31,58.87c0,5.58-1.78,7.37-7.4,7.37-27.17.03-54.34.03-81.51.01-5.43-.01-7.21-1.76-7.22-7.14-.02-19.44-.02-38.88,0-58.32.01-5.31,1.56-6.87,6.96-6.88,13.71-.05,27.41-.02,41.12-.02s27.17-.02,40.76.01c5.69,0,7.29,1.64,7.29,7.39.02,19.19.02,38.39,0,57.58Z"/>
        <path d="m115.51,180.01c.12,2.29-1.04,4.06-2.25,5.83-5.45,7.91-10.81,15.88-16.37,23.71-1.63,2.29-1.39,3.55.96,5.04,5.05,3.21,9.99,6.61,14.91,10.02,4.95,3.43,5.72,7.69,2.2,12.47-7.71,10.43-15.47,20.83-23.29,31.18-3.17,4.19-7.48,5.06-11.06,2.47-3.68-2.66-4.18-7.34-1.08-11.56,5.55-7.53,11.08-15.08,16.81-22.47,1.88-2.42,1.99-3.75-.81-5.46-4.89-3-9.58-6.31-14.29-9.59-4.94-3.45-5.87-7.42-2.67-12.14,7.56-11.15,15.21-22.23,22.92-33.28,2.45-3.51,5.76-4.63,9.05-3.37,3.26,1.25,4.91,3.68,4.98,7.16Z"/>
      </g>
      <rect x="326.25" y="162.42" width="16" height="19"/>
      <path d="m325.65,151.42l-.44-5.69c-1.31-11.81,2.62-24.72,13.56-37.84,9.84-11.59,15.31-20.12,15.31-29.96,0-11.15-7-18.59-20.78-18.81-7.87,0-16.62,2.62-22.09,6.78l-5.25-13.78c7.22-5.25,19.69-8.75,31.28-8.75,25.15,0,36.53,15.53,36.53,32.15,0,14.87-8.31,25.59-18.81,38.06-9.62,11.37-13.12,21-12.47,32.15l.22,5.69h-17.06Z"/>
      <g>
        <line x1="279.25" y1="17.42" x2="294.25" y2="39.42"/>
        <rect x="283.75" y="15.11" width="6" height="26.63" transform="translate(33.82 166.48) rotate(-34.29)"/>
      </g>
      <g>
        <line x1="268.13" y1="43.37" x2="286.75" y2="50.89"/>
        <rect x="274.44" y="37.09" width="6" height="20.08" transform="translate(129.85 286.74) rotate(-68.01)"/>
      </g>
      <g>
        <line x1="272.01" y1="65.42" x2="289.25" y2="60.42"/>
        <rect x="271.66" y="59.92" width="17.95" height="6" transform="translate(-6.42 80.69) rotate(-16.18)"/>
      </g>
    </g>
  </g>
</svg>