<svg width="44" height="51" viewBox="0 0 44 51" fill="none" xmlns="http://www.w3.org/2000/svg">
<path d="M38.8076 29.5155C38.018 27.8711 37.6064 26.0708 37.6031 24.2467V20.9875C37.6024 17.7655 36.6024 14.6229 34.741 11.993C32.8796 9.36304 30.2483 7.37511 27.2098 6.30314V5.97497C27.2098 4.59673 26.6623 3.27494 25.6878 2.30038C24.7132 1.32582 23.3914 0.77832 22.0132 0.77832C20.635 0.77832 19.3132 1.32582 18.3386 2.30038C17.364 3.27494 16.8165 4.59673 16.8165 5.97497V6.30314C13.778 7.37511 11.1468 9.36304 9.28536 11.993C7.42394 14.6229 6.42396 17.7655 6.42324 20.9875V24.2027C6.42132 26.0206 6.01289 27.815 5.22783 29.4546L2.84829 34.4032C2.38236 35.3713 2.16974 36.4419 2.23032 37.5147C2.2909 38.5874 2.6227 39.6272 3.19467 40.5368C3.76664 41.4464 4.56006 42.1959 5.50066 42.7153C6.44126 43.2346 7.49826 43.5068 8.57271 43.5063H14.5656C14.7014 45.3887 15.5451 47.1499 16.9268 48.4355C18.3086 49.7211 20.1259 50.4357 22.0132 50.4357C23.9005 50.4357 25.7178 49.7211 27.0995 48.4355C28.4813 47.1499 29.3249 45.3887 29.4608 43.5063H35.4424C36.5175 43.5063 37.575 43.2333 38.5158 42.713C39.4566 42.1927 40.2499 41.4422 40.8215 40.5316C41.3931 39.621 41.7242 38.5803 41.7838 37.5068C41.8434 36.4334 41.6295 35.3624 41.1623 34.3942L38.8076 29.5155ZM22.0132 46.9708C21.0438 46.968 20.1079 46.6164 19.3765 45.9803C18.6451 45.3441 18.1671 44.4659 18.03 43.5063H25.9964C25.8593 44.4659 25.3813 45.3441 24.6499 45.9803C23.9185 46.6164 22.9825 46.968 22.0132 46.9708ZM37.8872 38.6897C37.6313 39.1072 37.2715 39.4512 36.843 39.6882C36.4145 39.9252 35.9319 40.047 35.4423 40.0419H8.57271C8.08449 40.042 7.60422 39.9182 7.17682 39.6823C6.74942 39.4463 6.38885 39.1057 6.12884 38.6925C5.86882 38.2793 5.71786 37.8069 5.69006 37.3194C5.66226 36.832 5.75854 36.3455 5.96988 35.9054L8.34947 30.9557C9.35888 28.8474 9.88442 26.5402 9.88767 24.2027V20.9875C9.8887 18.3012 10.7826 15.6915 12.4289 13.5688C14.0751 11.446 16.3803 9.93074 18.9818 9.26122C19.3537 9.16534 19.6831 8.94856 19.9183 8.64499C20.1535 8.34142 20.281 7.96828 20.281 7.58427V5.97497C20.281 5.51556 20.4635 5.07496 20.7883 4.75011C21.1132 4.42525 21.5538 4.24275 22.0132 4.24275C22.4726 4.24275 22.9132 4.42525 23.2381 4.75011C23.5629 5.07496 23.7454 5.51556 23.7454 5.97497V7.58427C23.7453 7.96828 23.8729 8.34142 24.1081 8.64499C24.3433 8.94856 24.6727 9.16534 25.0446 9.26122C27.6461 9.93074 29.9512 11.446 31.5975 13.5688C33.2437 15.6915 34.1377 18.3012 34.1387 20.9875V24.2467C34.1423 26.592 34.671 28.9068 35.686 31.0211L38.0407 35.9007C38.2585 36.3392 38.3589 36.8266 38.332 37.3155C38.3051 37.8043 38.1518 38.2778 37.8872 38.6897Z" fill="white"/>
<path d="M3.94686 16.1777C4.1483 13.707 5.1122 11.36 6.70534 9.46085C7.69205 8.31716 8.89659 7.38136 10.2487 6.70801C10.6581 6.50092 10.9687 6.13991 11.1124 5.70415C11.256 5.2684 11.221 4.79346 11.0149 4.3835C10.8089 3.97353 10.4487 3.66201 10.0133 3.51724C9.57794 3.37247 9.10292 3.40627 8.69242 3.61123C6.93234 4.49043 5.36449 5.7106 4.07994 7.20084C2.00881 9.65068 0.755668 12.6869 0.495965 15.8844C0.457095 16.3421 0.601573 16.7965 0.897637 17.1478C1.1937 17.499 1.61712 17.7183 2.07482 17.7575C2.12443 17.7609 2.17414 17.7631 2.22368 17.7631C2.65727 17.7627 3.07492 17.5996 3.394 17.306C3.71309 17.0124 3.91038 16.6098 3.94686 16.1777Z" fill="white"/>
<path d="M35.3344 3.61123C34.9239 3.40627 34.4489 3.37247 34.0135 3.51724C33.5782 3.66201 33.218 3.97353 33.0119 4.3835C32.8059 4.79346 32.7709 5.2684 32.9145 5.70415C33.0581 6.13991 33.3687 6.50092 33.7782 6.70801C35.1303 7.38136 36.3348 8.31716 37.3215 9.46085C38.9147 11.36 39.8786 13.7071 40.08 16.1777C40.1164 16.6098 40.3137 17.0125 40.6328 17.3061C40.9519 17.5997 41.3696 17.7629 41.8032 17.7633C41.8528 17.7633 41.9025 17.761 41.952 17.7577C42.4097 17.7185 42.8332 17.4992 43.1292 17.148C43.4253 16.7967 43.5698 16.3423 43.5309 15.8846C43.2712 12.6871 42.0181 9.65081 39.9469 7.20093C38.6624 5.71066 37.0945 4.49046 35.3344 3.61123Z" fill="white"/>
</svg>
