<svg width="16" height="16" viewBox="0 0 16 16" fill="none" xmlns="http://www.w3.org/2000/svg">
<path d="M10 11.3333H13.3334L12.3967 10.3967C12.2709 10.2709 12.1711 10.1215 12.1031 9.95712C12.035 9.79275 12 9.61657 12 9.43867V7.33333C12.0001 6.50596 11.7437 5.69889 11.2662 5.02326C10.7886 4.34762 10.1133 3.83664 9.33335 3.56067V3.33333C9.33335 2.97971 9.19288 2.64057 8.94283 2.39052C8.69278 2.14048 8.35364 2 8.00002 2C7.6464 2 7.30726 2.14048 7.05721 2.39052C6.80716 2.64057 6.66669 2.97971 6.66669 3.33333V3.56067C5.11335 4.11 4.00002 5.592 4.00002 7.33333V9.43933C4.00002 9.798 3.85735 10.1427 3.60335 10.3967L2.66669 11.3333H6.00002M10 11.3333V12C10 12.5304 9.78931 13.0391 9.41423 13.4142C9.03916 13.7893 8.53045 14 8.00002 14C7.46959 14 6.96088 13.7893 6.58581 13.4142C6.21073 13.0391 6.00002 12.5304 6.00002 12V11.3333M10 11.3333H6.00002" stroke="#8F9FBC" stroke-linecap="round" stroke-linejoin="round"/>
</svg>
