<svg width="24" height="28" viewBox="0 0 24 28" fill="none" xmlns="http://www.w3.org/2000/svg">
<path d="M20.9628 16.1325C20.5409 15.2539 20.321 14.292 20.3193 13.3174V11.576C20.3189 9.8545 19.7846 8.17546 18.7901 6.77028C17.7955 5.36511 16.3896 4.30296 14.7662 3.73021V3.55487C14.7662 2.81849 14.4736 2.11226 13.9529 1.59155C13.4322 1.07085 12.726 0.77832 11.9896 0.77832C11.2532 0.77832 10.547 1.07085 10.0263 1.59155C9.5056 2.11226 9.21307 2.81849 9.21307 3.55487V3.73021C7.58962 4.30296 6.18375 5.36511 5.18919 6.77028C4.19464 8.17546 3.66035 9.8545 3.65997 11.576V13.2939C3.65894 14.2652 3.44072 15.2239 3.02126 16.1L1.74989 18.744C1.50094 19.2612 1.38734 19.8333 1.4197 20.4064C1.45207 20.9796 1.62935 21.5352 1.93496 22.0211C2.24056 22.5071 2.66448 22.9076 3.16704 23.1851C3.66959 23.4626 4.23435 23.608 4.80842 23.6077H8.01038C8.08298 24.6135 8.53375 25.5545 9.272 26.2414C10.0103 26.9283 10.9812 27.3101 11.9896 27.3101C12.998 27.3101 13.969 26.9283 14.7072 26.2414C15.4455 25.5545 15.8963 24.6135 15.9689 23.6077H19.1648C19.7392 23.6077 20.3042 23.4619 20.8069 23.1839C21.3096 22.9059 21.7335 22.5049 22.0388 22.0184C22.3442 21.5318 22.5211 20.9758 22.553 20.4022C22.5848 19.8287 22.4706 19.2565 22.2209 18.7391L20.9628 16.1325ZM11.9896 25.4588C11.4717 25.4573 10.9716 25.2695 10.5808 24.9296C10.19 24.5897 9.93467 24.1205 9.86142 23.6077H14.1178C14.0446 24.1205 13.7892 24.5897 13.3984 24.9296C13.0076 25.2695 12.5075 25.4573 11.9896 25.4588ZM20.4711 21.0343C20.3343 21.2573 20.1421 21.4411 19.9132 21.5677C19.6842 21.6943 19.4263 21.7595 19.1647 21.7567H4.80842C4.54757 21.7568 4.29096 21.6906 4.0626 21.5646C3.83424 21.4385 3.64159 21.2565 3.50267 21.0357C3.36374 20.815 3.28308 20.5625 3.26823 20.3021C3.25338 20.0417 3.30482 19.7817 3.41774 19.5466L4.68914 16.902C5.22847 15.7755 5.50926 14.5428 5.511 13.2939V11.576C5.51155 10.1407 5.98918 8.74638 6.86877 7.61221C7.74835 6.47804 8.97999 5.66843 10.37 5.3107C10.5686 5.25947 10.7447 5.14365 10.8703 4.98145C10.996 4.81926 11.0641 4.61989 11.0641 4.41472V3.55487C11.0641 3.30941 11.1616 3.074 11.3352 2.90043C11.5088 2.72686 11.7442 2.62935 11.9896 2.62935C12.2351 2.62935 12.4705 2.72686 12.6441 2.90043C12.8176 3.074 12.9151 3.30941 12.9151 3.55487V4.41472C12.9151 4.61989 12.9833 4.81926 13.1089 4.98145C13.2346 5.14365 13.4106 5.25947 13.6093 5.3107C14.9993 5.66843 16.2309 6.47804 17.1105 7.61221C17.9901 8.74638 18.4677 10.1407 18.4682 11.576V13.3174C18.4701 14.5705 18.7526 15.8073 19.2949 16.9369L20.5531 19.5441C20.6694 19.7784 20.7231 20.0388 20.7087 20.3C20.6943 20.5612 20.6124 20.8142 20.4711 21.0343Z" fill="white"/>
<path d="M2.33687 9.00607C2.4445 7.68601 2.95951 6.43198 3.81071 5.41729C4.33791 4.80622 4.98149 4.30622 5.70393 3.94646C5.92268 3.83581 6.08863 3.64292 6.16537 3.4101C6.24212 3.17727 6.2234 2.92352 6.11332 2.70447C6.00324 2.48543 5.81079 2.31899 5.57816 2.24164C5.34554 2.16428 5.09173 2.18234 4.87241 2.29185C3.932 2.76161 3.09431 3.41354 2.40798 4.20977C1.30138 5.51871 0.631827 7.14095 0.493069 8.84935C0.472301 9.09391 0.549495 9.33671 0.707681 9.52438C0.865867 9.71205 1.0921 9.82922 1.33665 9.85015C1.36315 9.85196 1.38971 9.85317 1.41618 9.85317C1.64785 9.85293 1.87099 9.76577 2.04148 9.60891C2.21197 9.45205 2.31738 9.23692 2.33687 9.00607Z" fill="white"/>
<path d="M19.1071 2.29185C18.8878 2.18234 18.634 2.16428 18.4013 2.24164C18.1687 2.31899 17.9763 2.48543 17.8662 2.70447C17.7561 2.92352 17.7374 3.17727 17.8141 3.4101C17.8909 3.64292 18.0568 3.83581 18.2756 3.94646C18.998 4.30622 19.6416 4.80622 20.1688 5.41729C21.02 6.43198 21.535 7.68602 21.6426 9.00609C21.6621 9.23695 21.7675 9.4521 21.938 9.60898C22.1085 9.76586 22.3316 9.85304 22.5633 9.85328C22.5898 9.85328 22.6164 9.85205 22.6428 9.85026C22.8874 9.82933 23.1136 9.71216 23.2718 9.52449C23.43 9.33683 23.5072 9.09403 23.4864 8.84946C23.3477 7.14104 22.6781 5.51878 21.5715 4.20982C20.8852 3.41357 20.0475 2.76163 19.1071 2.29185Z" fill="white"/>
</svg>
