<svg width="16" height="16" viewBox="0 0 16 16" fill="none" xmlns="http://www.w3.org/2000/svg">
<path d="M7.55455 5.6875L6.23409 4.375C6.10682 4.25 6.04318 4.10417 6.04318 3.9375C6.04318 3.77083 6.10682 3.625 6.23409 3.5L7.55646 2.1875C7.68246 2.0625 7.83221 2 8.00573 2C8.17967 2 8.33155 2.0625 8.46136 2.1875L9.78182 3.5C9.90909 3.625 9.97273 3.77083 9.97273 3.9375C9.97273 4.10417 9.90909 4.25 9.78182 4.375L8.45946 5.6875C8.33346 5.8125 8.1837 5.875 8.01018 5.875C7.83624 5.875 7.68436 5.8125 7.55455 5.6875ZM1.63637 13C1.45606 13 1.30482 12.94 1.18264 12.82C1.06046 12.7 0.999578 12.5517 1 12.375V10.5C1 10.1458 1.12473 9.84896 1.37418 9.60937C1.62364 9.36979 1.92315 9.25 2.27273 9.25H4.35682C4.56894 9.25 4.77046 9.30208 4.96136 9.40625C5.15227 9.51042 5.30606 9.65104 5.42273 9.82812C5.7303 10.2344 6.10958 10.5521 6.56055 10.7812C7.01152 11.0104 7.49133 11.125 8 11.125C8.5197 11.125 9.00503 11.0104 9.456 10.7812C9.90697 10.5521 10.2807 10.2344 10.5773 9.82812C10.7152 9.65104 10.877 9.51042 11.0628 9.40625C11.2486 9.30208 11.4421 9.25 11.6432 9.25H13.7273C14.0879 9.25 14.3902 9.36979 14.6341 9.60937C14.878 9.84896 15 10.1458 15 10.5V12.375C15 12.5521 14.9389 12.7006 14.8167 12.8206C14.6945 12.9406 14.5435 13.0004 14.3636 13H11.1818C11.0015 13 10.8503 12.94 10.7281 12.82C10.6059 12.7 10.545 12.5517 10.5455 12.375V11.5781C10.1742 11.8385 9.77376 12.0365 9.344 12.1719C8.91424 12.3073 8.46624 12.375 8 12.375C7.54394 12.375 7.09849 12.3046 6.66364 12.1637C6.22879 12.0229 5.82576 11.8225 5.45455 11.5625V12.375C5.45455 12.5521 5.39346 12.7006 5.27127 12.8206C5.14909 12.9406 4.99806 13.0004 4.81818 13H1.63637ZM2.90909 8.625C2.37879 8.625 1.92803 8.44271 1.55682 8.07812C1.18561 7.71354 1 7.27083 1 6.75C1 6.21875 1.18561 5.77333 1.55682 5.41375C1.92803 5.05417 2.37879 4.87458 2.90909 4.875C3.45 4.875 3.90352 5.05479 4.26964 5.41437C4.63576 5.77396 4.81861 6.21917 4.81818 6.75C4.81818 7.27083 4.63512 7.71354 4.269 8.07812C3.90288 8.44271 3.44958 8.625 2.90909 8.625ZM13.0909 8.625C12.5606 8.625 12.1098 8.44271 11.7386 8.07812C11.3674 7.71354 11.1818 7.27083 11.1818 6.75C11.1818 6.21875 11.3674 5.77333 11.7386 5.41375C12.1098 5.05417 12.5606 4.87458 13.0909 4.875C13.6318 4.875 14.0853 5.05479 14.4515 5.41437C14.8176 5.77396 15.0004 6.21917 15 6.75C15 7.27083 14.8169 7.71354 14.4508 8.07812C14.0847 8.44271 13.6314 8.625 13.0909 8.625Z" fill="#8F9FBC"/>
</svg>
