<svg width="25" height="24" viewBox="0 0 25 24" fill="none" xmlns="http://www.w3.org/2000/svg">
<g clip-path="url(#clip0_1696_4789)">
<path d="M0.98126 24.0001C0.33143 23.7531 0.0455294 23.2871 0.0711231 22.5897C0.097341 21.8824 0.0742443 21.1738 0.0779897 20.4658C0.0842321 19.3118 0.900109 18.4566 2.0487 18.3936C2.14609 18.388 2.23285 18.4148 2.31837 18.4547C3.21166 18.867 4.10744 18.8651 5.00759 18.4734C5.40335 18.3012 5.77914 18.4341 6.12809 18.6C6.90714 18.9706 7.27793 19.6224 7.29666 20.4701C7.31227 21.1931 7.30103 21.9173 7.29978 22.6409C7.29916 23.3607 7.02699 23.75 6.35469 24.0007H0.98126V24.0001ZM3.6686 23.1873C4.41518 23.1873 5.16177 23.1904 5.90898 23.1861C6.30912 23.1836 6.43896 23.0495 6.43958 22.6527C6.44083 21.8986 6.44333 21.1451 6.43646 20.3909C6.43209 19.9405 6.21985 19.6006 5.82534 19.3885C5.63494 19.2862 5.43331 19.2138 5.20297 19.3093C4.19108 19.726 3.1742 19.7216 2.16107 19.3111C2.03123 19.2581 1.91075 19.2538 1.77654 19.2918C1.32334 19.4203 0.99312 19.7821 0.942557 20.2524C0.859534 21.0272 0.91946 21.805 0.908224 22.5816C0.901358 23.0595 1.03682 23.1861 1.52185 23.1873C2.23722 23.1892 2.95322 23.1873 3.6686 23.1873Z" fill="white" stroke="white" stroke-width="0.5"/>
<path d="M17.7558 24C17.0841 23.7499 16.8113 23.36 16.8107 22.642C16.8101 21.9191 16.8045 21.1961 16.8126 20.4732C16.8238 19.4894 17.3962 18.7365 18.3263 18.4727C18.6304 18.3866 18.9212 18.3804 19.2309 18.5163C19.9993 18.8532 20.8002 18.8732 21.5668 18.5413C22.0593 18.328 22.49 18.4122 22.927 18.6211C23.5225 18.9062 23.8452 19.414 24.0188 20.0315V23.113C23.8639 23.5496 23.5674 23.8447 23.1311 24H17.7577H17.7558ZM20.41 23.1872C21.1566 23.1872 21.9032 23.191 22.6504 23.186C23.0612 23.1835 23.1979 23.0456 23.2029 22.6364C23.2085 22.1698 23.2073 21.7039 23.2041 21.2373C23.2016 20.888 23.2229 20.5386 23.1654 20.1906C23.0556 19.5219 22.4163 19.1501 21.7846 19.3772C20.8564 19.7109 19.9213 19.7115 19.0043 19.3435C18.7152 19.2275 18.473 19.2717 18.2321 19.4183C17.8738 19.636 17.679 19.961 17.6753 20.3827C17.6684 21.1287 17.6715 21.8748 17.6715 22.6215C17.6715 23.0618 17.7945 23.186 18.2402 23.1872C18.9637 23.1897 19.6872 23.1878 20.41 23.1872Z" fill="white" stroke="white" stroke-width="0.5"/>
<path d="M12.054 10.8861C11.2993 10.8861 10.544 10.8899 9.78928 10.8849C9.13883 10.8805 8.67128 10.5593 8.49711 10.0091C8.46153 9.89682 8.44405 9.78267 8.44405 9.66478C8.44468 8.85573 8.43282 8.04669 8.4478 7.23827C8.46777 6.14727 9.34795 5.27211 10.4073 5.25714C10.5889 5.25464 10.7375 5.33449 10.8961 5.39437C11.662 5.68568 12.4398 5.7125 13.1932 5.3925C13.6733 5.18852 14.109 5.24778 14.5372 5.46486C15.267 5.83476 15.6459 6.44856 15.664 7.26384C15.6808 8.02548 15.6696 8.78774 15.6677 9.55C15.6658 10.3653 15.1658 10.8668 14.3425 10.8849C14.3269 10.8849 14.3113 10.8849 14.2956 10.8849C13.5484 10.8849 12.8012 10.8849 12.054 10.8849V10.8861ZM12.059 10.0266C12.8212 10.0266 13.584 10.0284 14.3462 10.0253C14.6546 10.0241 14.8007 9.91242 14.8025 9.64918C14.8094 8.80957 14.825 7.96934 14.7938 7.13098C14.7669 6.41488 14.0734 5.99195 13.3999 6.23086C12.4691 6.56084 11.5378 6.55273 10.6176 6.19281C10.3698 6.09612 10.1463 6.11234 9.92412 6.23398C9.5321 6.44918 9.30925 6.77729 9.3055 7.23141C9.29988 7.99304 9.30051 8.7553 9.30175 9.51694C9.30238 9.91803 9.41287 10.0259 9.81737 10.0266C10.5646 10.0284 11.3112 10.0266 12.0584 10.0266H12.059Z" fill="white" stroke="white" stroke-width="0.5"/>
<path d="M7.51769 4.58483C6.83165 4.9984 6.26921 5.45937 5.76046 5.98709C4.4377 7.36003 3.66115 8.99996 3.38774 10.88C3.34903 11.1483 3.34529 11.4221 3.32719 11.6934C3.32219 11.7708 3.32594 11.8494 3.32094 11.9267C3.29847 12.2773 3.12368 12.4813 2.86338 12.4638C2.6037 12.4464 2.45638 12.2492 2.46449 11.9062C2.52254 9.44658 3.38399 7.31138 5.05258 5.50116C5.73924 4.75637 6.54013 4.15816 7.46463 3.6292C7.21119 3.50881 6.99145 3.40651 6.7736 3.30171C6.61129 3.22374 6.48707 3.11707 6.47833 2.91746C6.46585 2.62179 6.72241 2.39099 6.9977 2.49641C7.57886 2.71847 8.14629 2.97734 8.69562 3.27052C8.87228 3.36471 8.93782 3.54561 8.85792 3.73399C8.60386 4.33594 8.3242 4.92666 8.01208 5.50054C7.90284 5.7014 7.68311 5.74007 7.48148 5.64027C7.30482 5.55231 7.21056 5.34834 7.27673 5.14623C7.33229 4.97781 7.41531 4.81812 7.51644 4.58483H7.51769Z" fill="white" stroke="white" stroke-width="0.5"/>
<path d="M20.6728 10.913C20.3976 8.67982 19.4025 6.84091 17.7102 5.38375C17.0754 4.8367 16.3712 4.39568 15.6022 4.05947C15.5735 4.04699 15.5454 4.03451 15.5179 4.01954C15.2601 3.88231 15.164 3.66711 15.2613 3.44691C15.3643 3.21486 15.6015 3.13752 15.8762 3.25416C16.488 3.51366 17.0654 3.83615 17.6035 4.22414C19.5492 5.6289 20.8102 7.499 21.3845 9.8282C21.4662 10.1601 21.5318 10.4963 21.5624 10.8381C21.5674 10.8961 21.5624 10.9772 21.6317 10.9978C21.6885 11.0146 21.7216 10.9473 21.759 10.9111C21.877 10.7982 21.9869 10.6759 22.1098 10.5686C22.309 10.3958 22.558 10.3996 22.7191 10.5668C22.8851 10.7389 22.8839 10.9741 22.6922 11.1712C22.3183 11.5567 21.9382 11.936 21.553 12.3109C21.3414 12.5167 21.1229 12.5267 20.9107 12.3239C20.5162 11.9484 20.131 11.5623 19.7546 11.1681C19.5636 10.9678 19.5723 10.7321 19.7415 10.5624C19.9082 10.3952 20.1635 10.4064 20.3657 10.5967C20.4725 10.6971 20.5705 10.8075 20.6728 10.9136V10.913Z" fill="white" stroke="white" stroke-width="0.5"/>
<path d="M12.0534 0.0773926C13.3793 0.0773926 14.4617 1.14718 14.4735 2.47022C14.4854 3.78016 13.3693 4.90546 12.0571 4.90733C10.7444 4.90921 9.63322 3.79201 9.63759 2.47459C9.64196 1.15716 10.73 0.0773926 12.0534 0.0773926ZM12.0478 0.932597C11.1776 0.93634 10.4778 1.63186 10.4859 2.48519C10.494 3.34164 11.1982 4.04464 12.0509 4.04714C12.9117 4.04963 13.6371 3.32293 13.624 2.47022C13.6109 1.60503 12.9173 0.928231 12.0471 0.932597H12.0478Z" fill="white" stroke="white" stroke-width="0.5"/>
<path d="M6.09066 15.6302C6.09253 16.9613 5.02259 18.0374 3.69547 18.0392C2.36085 18.0411 1.26344 16.9588 1.2572 15.6339C1.25096 14.3446 2.37084 13.218 3.66675 13.2093C4.98576 13.2005 6.08879 14.3028 6.09066 15.6302ZM5.23733 15.705C5.29975 14.876 4.64118 14.1368 3.78348 14.072C2.9314 14.0077 2.1792 14.6752 2.11927 15.5485C2.06184 16.3924 2.71104 17.1148 3.59184 17.1865C4.44517 17.2558 5.16929 16.6039 5.23671 15.7057L5.23733 15.705Z" fill="white" stroke="white" stroke-width="0.5"/>
<path d="M20.42 18.0391C19.0817 18.0378 18.0167 16.9605 18.0205 15.6107C18.0242 14.3007 19.1272 13.2054 20.4388 13.2085C21.7315 13.2122 22.8564 14.3394 22.8539 15.6294C22.8514 16.9531 21.7528 18.0403 20.42 18.0391ZM21.9937 15.63C21.99 14.763 21.2765 14.0593 20.4094 14.0687C19.5629 14.0781 18.8713 14.7748 18.8669 15.6232C18.8626 16.4921 19.5661 17.1963 20.4369 17.1932C21.294 17.1901 21.9975 16.4834 21.9937 15.63Z" fill="white" stroke="white" stroke-width="0.5"/>
<path d="M9.37977 21.2984C9.46404 21.4675 9.54893 21.6234 9.62135 21.785C9.73745 22.042 9.66504 22.2709 9.44157 22.3807C9.23245 22.4836 9.00148 22.4088 8.87164 22.1692C8.61258 21.6908 8.35976 21.2086 8.11756 20.7214C7.96462 20.4133 8.07137 20.1694 8.40346 20.064C8.88475 19.9111 9.37103 19.772 9.85668 19.6329C10.147 19.55 10.3692 19.6473 10.4541 19.8818C10.5359 20.1083 10.4148 20.3129 10.1276 20.4351C10.0926 20.4501 10.0571 20.4644 9.97841 20.4975C10.3648 20.6372 10.7306 20.6734 11.0933 20.714C12.5503 20.8768 13.9617 20.684 15.3256 20.1463C15.3543 20.1351 15.3837 20.1232 15.413 20.1133C15.7008 20.0178 15.9361 20.0983 16.0254 20.3216C16.1228 20.5649 16.0073 20.7901 15.7158 20.9067C15.0572 21.1706 14.3805 21.3708 13.6801 21.4899C12.3187 21.722 10.9716 21.669 9.63695 21.314C9.56953 21.2959 9.50087 21.2853 9.4322 21.2722C9.42658 21.271 9.41909 21.2779 9.37914 21.2972L9.37977 21.2984Z" fill="white" stroke="white" stroke-width="0.5"/>
</g>
<defs>
<clipPath id="clip0_1696_4789">
<rect width="24.0175" height="24" fill="white"/>
</clipPath>
</defs>
</svg>
