<svg width="25" height="24" viewBox="0 0 25 24" fill="none" xmlns="http://www.w3.org/2000/svg">
<g clip-path="url(#clip0_2057_5031)">
<path d="M24.0176 15.1121C24.0176 15.2996 24.0176 15.4871 24.0176 15.6746C23.8865 16.0559 23.6368 16.3309 23.2436 16.4621C22.426 16.7246 21.6146 16.9871 20.7969 17.2496C20.541 17.3309 20.2851 17.3309 20.0417 17.2246C19.8794 17.1559 19.8295 17.1746 19.817 17.3621C19.7733 18.1621 19.068 18.8121 18.2629 18.7621C18.0194 18.7496 17.9445 18.7996 17.9071 19.0371C17.7698 19.8184 17.1768 20.3059 16.3842 20.3184C16.1969 20.3184 16.1345 20.3809 16.1158 20.5684C16.0409 21.3059 15.423 21.8996 14.6989 21.9059C14.4555 21.9121 14.3869 21.9996 14.3369 22.2184C14.1559 23.0371 13.2821 23.4809 12.5144 23.1496C12.2647 23.0434 12.0213 22.9121 11.7904 22.7746C11.6031 22.6621 11.497 22.6684 11.3472 22.8496C10.8666 23.4309 10.0178 23.4496 9.51844 22.8934C9.38737 22.7434 9.30623 22.7309 9.13771 22.8434C8.48234 23.2809 7.62725 23.0996 7.20906 22.4434C7.10296 22.2809 7.04054 22.2621 6.87202 22.3621C5.967 22.9059 4.84352 22.3246 4.76862 21.2684C4.75613 21.0871 4.68124 21.0371 4.51271 21.0059C3.58272 20.8371 3.08964 19.8246 3.52655 18.9871C3.64514 18.7621 3.80118 18.5559 3.94473 18.3371C4.03836 18.1934 4.17567 18.0621 4.21312 17.9059C4.25057 17.7309 4.01963 17.6434 3.95097 17.4934C3.93225 17.4559 3.90728 17.4309 3.88856 17.3934C3.85111 17.3246 3.79493 17.2934 3.71379 17.2996C3.50158 17.3184 3.29561 17.2496 3.09588 17.1871C2.38434 16.9559 1.67281 16.7184 0.961269 16.4996C0.518119 16.3621 0.206041 16.1121 0.0562439 15.6684C0.0562439 15.4809 0.0562439 15.2934 0.0562439 15.1059C0.0874517 15.0184 0.118659 14.9309 0.143626 14.8434C0.811472 12.7996 1.47308 10.7496 2.14092 8.71211C2.36562 8.03711 2.93984 7.74336 3.62017 7.94961C3.98218 8.06211 4.35043 8.18086 4.71244 8.29961C5.0058 8.39336 5.0058 8.39336 5.0058 8.08086C5.0058 6.02461 5.0058 3.96836 5.0058 1.90586C5.0058 1.14961 5.42398 0.730859 6.17921 0.730859C8.82563 0.730859 11.4658 0.730859 14.1122 0.724609C14.3556 0.724609 14.5429 0.793359 14.7177 0.968359C16.0908 2.34336 17.4639 3.71836 18.8371 5.08711C19.0118 5.26211 19.0805 5.44961 19.0743 5.69336C19.068 6.51211 19.0743 7.33086 19.068 8.14961C19.068 8.33086 19.1117 8.38711 19.299 8.31836C19.7109 8.17461 20.1291 8.03711 20.5473 7.91836C20.953 7.80586 21.3212 7.89336 21.6333 8.18086C21.8143 8.34961 21.9017 8.57461 21.9766 8.81211C22.6507 10.9184 23.331 13.0121 24.0176 15.1121ZM9.89918 1.55586C8.65711 1.55586 7.42128 1.55586 6.17921 1.55586C5.86713 1.55586 5.8172 1.60586 5.8172 1.89961C5.8172 4.06836 5.8172 6.23086 5.81096 8.39961C5.81096 8.58086 5.86713 8.68086 6.04814 8.74336C6.46632 8.88711 6.70974 9.19961 6.79088 9.63086C6.83457 9.86836 6.77216 10.0996 6.69102 10.3184C6.61612 10.5059 6.67229 10.5871 6.86578 10.6184C7.24027 10.6809 7.5898 10.6809 7.93933 10.4621C8.99415 9.80586 10.1176 9.59336 11.2723 10.1621C11.9027 10.4684 12.4769 10.4871 13.1073 10.1934C13.4943 10.0121 13.925 9.96211 14.3681 10.0246C14.9798 10.1121 15.5478 10.3246 16.0658 10.6559C16.3592 10.8434 16.6588 10.8746 16.9833 10.8121C17.5014 10.7121 17.5014 10.7121 17.3454 10.2184C17.1331 9.54961 17.389 8.99961 18.0319 8.74336C18.2004 8.67461 18.2566 8.58086 18.2504 8.41211C18.2441 7.68086 18.2504 6.94961 18.2504 6.21211C18.2504 5.91836 18.2379 5.90586 17.9445 5.90586C16.8148 5.90586 15.6851 5.90586 14.5554 5.90586C14.0311 5.90586 13.9063 5.78086 13.9063 5.25586C13.9063 4.15586 13.9063 3.05586 13.9063 1.96211C13.9063 1.55586 13.9063 1.55586 13.513 1.55586C12.3022 1.55586 11.0976 1.55586 9.89918 1.55586ZM11.1288 10.9621C10.567 10.7434 10.024 10.5309 9.41233 10.6996C8.98167 10.8184 8.57597 10.9934 8.20147 11.2371C7.95181 11.3996 7.67718 11.4684 7.38383 11.4746C7.14041 11.4809 6.89699 11.4559 6.66605 11.3871C6.45384 11.3246 6.34773 11.3684 6.27907 11.5996C5.9982 12.5184 5.69237 13.4246 5.39901 14.3371C5.14935 15.1059 4.89969 15.8809 4.6313 16.6434C4.57513 16.8121 4.51896 16.9434 4.65003 17.0934C4.79983 17.2559 4.91842 17.4559 5.19929 17.4246C5.97324 17.3371 6.67229 17.9246 6.71598 18.7059C6.72847 18.8684 6.78464 18.9434 6.94068 18.9684C7.3651 19.0434 7.69591 19.2621 7.91436 19.6309C7.98302 19.7434 8.03295 19.7621 8.15154 19.6934C8.95046 19.2434 9.68072 19.4246 10.1613 20.1934C10.23 20.2996 10.2862 20.3246 10.4047 20.2809C10.8853 20.1059 11.3347 20.1684 11.7092 20.5309C12.0775 20.8871 12.1836 21.3246 12.0151 21.8184C11.9839 21.9059 11.9714 21.9809 12.0775 22.0371C12.3271 22.1621 12.5706 22.3121 12.8265 22.4184C13.0949 22.5309 13.382 22.4184 13.5068 22.1746C13.6316 21.9309 13.5567 21.6434 13.3195 21.4746C13.2509 21.4246 13.1698 21.3871 13.0949 21.3496C12.7516 21.1684 12.402 20.9871 12.065 20.7934C11.8965 20.6996 11.8028 20.5496 11.8465 20.3434C11.8902 20.1684 12.0151 20.0621 12.1898 20.0371C12.3209 20.0184 12.4332 20.0809 12.5394 20.1434C13.1073 20.4434 13.6691 20.7496 14.2371 21.0371C14.6178 21.2309 15.036 21.0996 15.2295 20.7496C15.423 20.3934 15.2919 19.9559 14.9174 19.7496C14.5616 19.5496 14.2058 19.3684 13.8438 19.1746C13.7814 19.1434 13.719 19.1121 13.6628 19.0684C13.4818 18.9371 13.4257 18.7371 13.5193 18.5559C13.6191 18.3621 13.8251 18.2871 14.0373 18.3746C14.1247 18.4121 14.2058 18.4559 14.287 18.4996C14.8737 18.8121 15.4542 19.1246 16.0471 19.4309C16.3093 19.5684 16.5776 19.5559 16.8273 19.3871C17.0707 19.2246 17.1581 18.9809 17.1207 18.6934C17.0894 18.4246 16.9272 18.2434 16.69 18.1184C16.0596 17.7871 15.4354 17.4559 14.8113 17.1184C14.5554 16.9809 14.4742 16.7496 14.5928 16.5371C14.7052 16.3309 14.9299 16.2809 15.1795 16.4121C15.4729 16.5621 15.76 16.7184 16.0471 16.8746C16.6713 17.2059 17.2954 17.5496 17.9321 17.8684C18.4064 18.1121 18.9182 17.8809 19.0118 17.3871C19.0805 17.0371 18.887 16.7809 18.6249 16.5934C17.2392 15.5871 15.7662 14.7559 14.1185 14.2621C13.9312 14.2059 13.7627 14.2059 13.5755 14.2684C12.4208 14.6559 11.2661 15.0371 10.1114 15.4184C9.42482 15.6434 8.90053 15.4746 8.45113 14.9121C8.24516 14.6559 8.10161 14.3559 7.96429 14.0621C7.85194 13.8246 7.88315 13.6246 8.06416 13.4246C8.88804 12.5184 9.83676 11.7621 10.8978 11.1496C10.9727 11.0996 11.0663 11.0746 11.1288 10.9621ZM19.1367 15.9496C19.1804 15.8746 19.1616 15.8434 19.1492 15.8059C18.6998 14.4184 18.2504 13.0371 17.801 11.6496C17.7511 11.4934 17.6824 11.4621 17.5264 11.5121C16.8148 11.7246 16.147 11.7184 15.4979 11.2684C15.0422 10.9559 14.4992 10.7934 13.925 10.8246C13.563 10.8434 13.2259 10.9871 12.8951 11.1121C11.3847 11.6621 10.0615 12.5121 8.93798 13.6621C8.86308 13.7371 8.76321 13.7934 8.79442 13.9309C8.92549 14.5059 9.41858 14.7934 9.98032 14.6059C11.1475 14.2184 12.3209 13.8371 13.4881 13.4434C13.719 13.3621 13.9375 13.3621 14.1746 13.4309C15.8848 13.9184 17.4202 14.7434 18.8683 15.7621C18.9494 15.8184 19.0368 15.8809 19.1367 15.9496ZM3.58272 16.4996C3.81366 16.4871 3.8948 16.3496 3.95097 16.1746C4.61258 14.1246 5.28042 12.0684 5.94203 10.0184C6.04814 9.69336 5.97324 9.56211 5.64868 9.45586C4.91841 9.21836 4.18191 8.98086 3.44541 8.74336C3.10212 8.63086 2.98353 8.69336 2.87118 9.03711C2.20958 11.0746 1.54798 13.1121 0.886371 15.1496C0.767781 15.5059 0.830197 15.6184 1.19221 15.7371C1.92247 15.9746 2.65897 16.2121 3.39548 16.4496C3.46413 16.4684 3.53279 16.4809 3.58272 16.4996ZM20.8281 8.68086C20.7657 8.69961 20.6846 8.72461 20.6034 8.74961C19.8857 8.98086 19.1679 9.21211 18.4439 9.44961C18.0756 9.56836 18.0132 9.69336 18.1318 10.0559C18.7871 12.0871 19.4425 14.1184 20.1041 16.1434C20.2165 16.4996 20.3413 16.5559 20.7033 16.4371C21.4148 16.2059 22.1264 15.9809 22.8379 15.7496C23.2374 15.6184 23.2936 15.5121 23.1625 15.1121C22.7505 13.8309 22.3324 12.5496 21.9142 11.2684C21.6707 10.5184 21.4273 9.77461 21.1839 9.02461C21.134 8.84961 21.0528 8.70586 20.8281 8.68086ZM17.57 5.08711C16.6151 4.13711 15.6601 3.18086 14.7177 2.24336C14.7177 3.10586 14.7177 4.00586 14.7177 4.91211C14.7177 5.06211 14.8113 5.09336 14.9361 5.08711C15.2232 5.08711 15.5103 5.08711 15.8037 5.08711C16.3966 5.08711 17.0021 5.08711 17.57 5.08711ZM6.7035 19.7559C6.51001 19.7496 6.34773 19.8246 6.23538 19.9809C6.02317 20.2809 5.8172 20.5809 5.62995 20.8934C5.46767 21.1684 5.56129 21.4996 5.8172 21.6746C6.06062 21.8371 6.41015 21.8059 6.59739 21.5621C6.82833 21.2621 7.04678 20.9434 7.22779 20.6121C7.44624 20.2121 7.14665 19.7559 6.7035 19.7559ZM8.39496 22.2621C8.53852 22.2684 8.68831 22.2184 8.78818 22.0871C9.04408 21.7746 9.27502 21.4371 9.46227 21.0809C9.59958 20.8121 9.48723 20.4996 9.24381 20.3496C9.00039 20.1996 8.65711 20.2309 8.48234 20.4621C8.2514 20.7684 8.02671 21.0809 7.8457 21.4121C7.62725 21.8121 7.9206 22.2621 8.39496 22.2621ZM4.17567 19.5246C4.17567 19.8871 4.3005 20.0871 4.5252 20.1809C4.76238 20.2809 5.01204 20.2434 5.1868 20.0371C5.44271 19.7309 5.66116 19.3996 5.84841 19.0496C5.967 18.8246 5.90458 18.5559 5.72982 18.3809C5.54881 18.2059 5.28667 18.1246 5.08694 18.2621C4.61258 18.5996 4.38164 19.1121 4.17567 19.5246ZM10.4047 22.4871C10.5171 22.4934 10.6294 22.4559 10.6981 22.3684C10.9041 22.1184 11.0976 21.8496 11.2411 21.5559C11.3347 21.3684 11.2474 21.1496 11.0788 21.0496C10.8916 20.9371 10.7043 20.9621 10.5733 21.1184C10.3611 21.3684 10.1738 21.6371 10.0365 21.9309C9.90542 22.1934 10.1176 22.4871 10.4047 22.4871Z" fill="white"/>
<path d="M10.9851 7.48677C10.9851 7.44927 10.9789 7.40552 10.9851 7.36802C11.0413 6.94302 10.9477 6.66802 10.4983 6.44302C9.88662 6.14302 9.66192 5.54302 9.73058 4.86177C9.79299 4.23677 10.1425 3.79302 10.7043 3.53052C10.8665 3.45552 10.9914 3.39927 11.0101 3.17427C11.0226 2.98677 11.1786 2.88052 11.3721 2.87427C11.5781 2.86802 11.7404 2.98052 11.7528 3.18052C11.7716 3.38052 11.8777 3.44927 12.04 3.51802C12.6454 3.77427 13.0511 4.38677 13.0386 4.99927C13.0324 5.26177 12.9013 5.41802 12.6766 5.43052C12.4457 5.44302 12.2896 5.31177 12.2584 5.05552C12.2272 4.79927 12.1523 4.56802 11.9463 4.39302C11.9089 4.36177 11.8714 4.33052 11.8215 4.34927C11.7653 4.36802 11.7778 4.42427 11.7778 4.47427C11.7778 4.91177 11.784 5.34927 11.7778 5.78052C11.7778 5.96177 11.9089 5.98677 12.0275 6.04302C12.9138 6.43052 13.2945 7.43052 12.8888 8.28677C12.7078 8.66802 12.4269 8.94927 12.0337 9.10552C11.8777 9.16802 11.7778 9.23052 11.7591 9.43052C11.7466 9.63052 11.5843 9.73677 11.3846 9.74927C11.1911 9.76177 11.0101 9.61802 10.9976 9.41802C10.9914 9.23052 10.8853 9.17427 10.7355 9.11177C10.1238 8.86177 9.71809 8.26802 9.71809 7.64302C9.71809 7.36802 9.84917 7.19927 10.0801 7.18052C10.2986 7.16177 10.4733 7.31802 10.5045 7.58052C10.5357 7.83052 10.6169 8.04927 10.8104 8.21802C10.8478 8.24927 10.8853 8.30552 10.9477 8.27427C10.9976 8.24927 10.9851 8.19302 10.9851 8.14927C10.9851 7.94302 10.9851 7.71177 10.9851 7.48677ZM10.9851 5.09302C10.9851 4.89927 10.9851 4.70552 10.9851 4.51177C10.9851 4.46177 11.0039 4.39302 10.9414 4.36802C10.879 4.33677 10.8416 4.38677 10.7979 4.41802C10.4109 4.73052 10.4359 5.44302 10.8291 5.72427C10.9352 5.79927 10.9789 5.77427 10.9789 5.64927C10.9789 5.46802 10.9789 5.28052 10.9851 5.09302ZM11.7653 7.59927C11.7653 7.79302 11.7653 7.98677 11.7653 8.18052C11.7653 8.31177 11.8153 8.33052 11.9214 8.24927C12.3208 7.95552 12.3333 7.24302 11.9338 6.93677C11.8964 6.91177 11.8589 6.86802 11.809 6.88677C11.7528 6.90552 11.7653 6.96177 11.7653 7.00552C11.7653 7.21177 11.7653 7.40552 11.7653 7.59927Z" fill="white"/>
<path d="M4.77478 9.77458C4.99324 9.78083 5.168 9.96833 5.16176 10.1933C5.15552 10.4058 4.97451 10.5746 4.7623 10.5746C4.54385 10.5746 4.36908 10.3871 4.38157 10.1621C4.39405 9.93708 4.56881 9.76833 4.77478 9.77458Z" fill="white"/>
<path d="M19.2739 9.71875C19.4924 9.71875 19.6734 9.9125 19.6671 10.125C19.6609 10.3375 19.4674 10.5187 19.2552 10.5125C19.043 10.5062 18.8745 10.3312 18.8745 10.1187C18.8745 9.90625 19.0617 9.71875 19.2739 9.71875Z" fill="white"/>
</g>
<defs>
<clipPath id="clip0_2057_5031">
<rect width="24.0175" height="24" fill="white"/>
</clipPath>
</defs>
</svg>
