<svg width="25" height="24" viewBox="0 0 25 24" fill="none" xmlns="http://www.w3.org/2000/svg">
<g clip-path="url(#clip0_2087_1140)">
<path d="M24.0175 15.1121C24.0175 15.2996 24.0175 15.4871 24.0175 15.6746C23.8864 16.0559 23.6367 16.3309 23.2435 16.4621C22.4259 16.7246 21.6145 16.9871 20.7968 17.2496C20.5409 17.3309 20.285 17.3309 20.0416 17.2246C19.8793 17.1559 19.8294 17.1746 19.8169 17.3621C19.7732 18.1621 19.0679 18.8121 18.2628 18.7621C18.0193 18.7496 17.9444 18.7996 17.907 19.0371C17.7697 19.8184 17.1767 20.3059 16.3841 20.3184C16.1968 20.3184 16.1344 20.3809 16.1157 20.5684C16.0408 21.3059 15.4229 21.8996 14.6988 21.9059C14.4554 21.9121 14.3868 21.9996 14.3368 22.2184C14.1558 23.0371 13.282 23.4809 12.5143 23.1496C12.2646 23.0434 12.0212 22.9121 11.7903 22.7746C11.603 22.6621 11.4969 22.6684 11.3471 22.8496C10.8665 23.4309 10.0177 23.4496 9.51835 22.8934C9.38728 22.7434 9.30614 22.7309 9.13761 22.8434C8.48225 23.2809 7.62716 23.0996 7.20897 22.4434C7.10287 22.2809 7.04045 22.2621 6.87193 22.3621C5.9669 22.9059 4.84342 22.3246 4.76853 21.2684C4.75604 21.0871 4.68114 21.0371 4.51262 21.0059C3.58263 20.8371 3.08955 19.8246 3.52646 18.9871C3.64505 18.7621 3.80108 18.5559 3.94464 18.3371C4.03826 18.1934 4.17558 18.0621 4.21303 17.9059C4.25048 17.7309 4.01954 17.6434 3.95088 17.4934C3.93216 17.4559 3.90719 17.4309 3.88847 17.3934C3.85102 17.3246 3.79484 17.2934 3.7137 17.2996C3.50149 17.3184 3.29552 17.2496 3.09579 17.1871C2.38425 16.9559 1.67271 16.7184 0.961178 16.4996C0.518027 16.3621 0.20595 16.1121 0.0561523 15.6684C0.0561523 15.4809 0.0561523 15.2934 0.0561523 15.1059C0.0873601 15.0184 0.118568 14.9309 0.143534 14.8434C0.81138 12.7996 1.47299 10.7496 2.14083 8.71211C2.36553 8.03711 2.93975 7.74336 3.62008 7.94961C3.98209 8.06211 4.35034 8.18086 4.71235 8.29961C5.0057 8.39336 5.0057 8.39336 5.0057 8.08086C5.0057 6.02461 5.0057 3.96836 5.0057 1.90586C5.0057 1.14961 5.42389 0.730859 6.17912 0.730859C8.82554 0.730859 11.4657 0.730859 14.1121 0.724609C14.3556 0.724609 14.5428 0.793359 14.7176 0.968359C16.0907 2.34336 17.4638 3.71836 18.837 5.08711C19.0118 5.26211 19.0804 5.44961 19.0742 5.69336C19.0679 6.51211 19.0742 7.33086 19.0679 8.14961C19.0679 8.33086 19.1116 8.38711 19.2989 8.31836C19.7108 8.17461 20.129 8.03711 20.5472 7.91836C20.9529 7.80586 21.3211 7.89336 21.6332 8.18086C21.8142 8.34961 21.9016 8.57461 21.9765 8.81211C22.6506 10.9184 23.3309 13.0121 24.0175 15.1121ZM9.89908 1.55586C8.65701 1.55586 7.42119 1.55586 6.17912 1.55586C5.86704 1.55586 5.81711 1.60586 5.81711 1.89961C5.81711 4.06836 5.81711 6.23086 5.81087 8.39961C5.81087 8.58086 5.86704 8.68086 6.04804 8.74336C6.46623 8.88711 6.70965 9.19961 6.79079 9.63086C6.83448 9.86836 6.77206 10.0996 6.69092 10.3184C6.61603 10.5059 6.6722 10.5871 6.86569 10.6184C7.24018 10.6809 7.58971 10.6809 7.93924 10.4621C8.99406 9.80586 10.1175 9.59336 11.2722 10.1621C11.9026 10.4684 12.4768 10.4871 13.1072 10.1934C13.4942 10.0121 13.9249 9.96211 14.368 10.0246C14.9797 10.1121 15.5477 10.3246 16.0657 10.6559C16.3591 10.8434 16.6587 10.8746 16.9832 10.8121C17.5013 10.7121 17.5013 10.7121 17.3453 10.2184C17.133 9.54961 17.3889 8.99961 18.0318 8.74336C18.2004 8.67461 18.2565 8.58086 18.2503 8.41211C18.244 7.68086 18.2503 6.94961 18.2503 6.21211C18.2503 5.91836 18.2378 5.90586 17.9444 5.90586C16.8147 5.90586 15.685 5.90586 14.5553 5.90586C14.031 5.90586 13.9062 5.78086 13.9062 5.25586C13.9062 4.15586 13.9062 3.05586 13.9062 1.96211C13.9062 1.55586 13.9062 1.55586 13.5129 1.55586C12.3021 1.55586 11.0975 1.55586 9.89908 1.55586ZM11.1287 10.9621C10.5669 10.7434 10.0239 10.5309 9.41224 10.6996C8.98158 10.8184 8.57587 10.9934 8.20138 11.2371C7.95172 11.3996 7.67709 11.4684 7.38374 11.4746C7.14032 11.4809 6.8969 11.4559 6.66596 11.3871C6.45375 11.3246 6.34764 11.3684 6.27898 11.5996C5.99811 12.5184 5.69228 13.4246 5.39892 14.3371C5.14926 15.1059 4.8996 15.8809 4.63121 16.6434C4.57504 16.8121 4.51886 16.9434 4.64994 17.0934C4.79973 17.2559 4.91832 17.4559 5.19919 17.4246C5.97315 17.3371 6.6722 17.9246 6.71589 18.7059C6.72837 18.8684 6.78455 18.9434 6.94059 18.9684C7.36501 19.0434 7.69582 19.2621 7.91427 19.6309C7.98293 19.7434 8.03286 19.7621 8.15145 19.6934C8.95037 19.2434 9.68063 19.4246 10.1612 20.1934C10.2299 20.2996 10.2861 20.3246 10.4046 20.2809C10.8852 20.1059 11.3346 20.1684 11.7091 20.5309C12.0774 20.8871 12.1835 21.3246 12.015 21.8184C11.9838 21.9059 11.9713 21.9809 12.0774 22.0371C12.327 22.1621 12.5705 22.3121 12.8264 22.4184C13.0948 22.5309 13.3819 22.4184 13.5067 22.1746C13.6315 21.9309 13.5566 21.6434 13.3195 21.4746C13.2508 21.4246 13.1697 21.3871 13.0948 21.3496C12.7515 21.1684 12.4019 20.9871 12.0649 20.7934C11.8964 20.6996 11.8028 20.5496 11.8464 20.3434C11.8901 20.1684 12.015 20.0621 12.1897 20.0371C12.3208 20.0184 12.4332 20.0809 12.5393 20.1434C13.1072 20.4434 13.669 20.7496 14.237 21.0371C14.6177 21.2309 15.0359 21.0996 15.2294 20.7496C15.4229 20.3934 15.2918 19.9559 14.9173 19.7496C14.5615 19.5496 14.2058 19.3684 13.8437 19.1746C13.7813 19.1434 13.7189 19.1121 13.6627 19.0684C13.4817 18.9371 13.4256 18.7371 13.5192 18.5559C13.6191 18.3621 13.825 18.2871 14.0372 18.3746C14.1246 18.4121 14.2058 18.4559 14.2869 18.4996C14.8736 18.8121 15.4541 19.1246 16.047 19.4309C16.3092 19.5684 16.5775 19.5559 16.8272 19.3871C17.0706 19.2246 17.158 18.9809 17.1206 18.6934C17.0894 18.4246 16.9271 18.2434 16.6899 18.1184C16.0595 17.7871 15.4353 17.4559 14.8112 17.1184C14.5553 16.9809 14.4741 16.7496 14.5927 16.5371C14.7051 16.3309 14.9298 16.2809 15.1794 16.4121C15.4728 16.5621 15.7599 16.7184 16.047 16.8746C16.6712 17.2059 17.2953 17.5496 17.932 17.8684C18.4063 18.1121 18.9181 17.8809 19.0118 17.3871C19.0804 17.0371 18.8869 16.7809 18.6248 16.5934C17.2392 15.5871 15.7661 14.7559 14.1184 14.2621C13.9311 14.2059 13.7626 14.2059 13.5754 14.2684C12.4207 14.6559 11.266 15.0371 10.1113 15.4184C9.42473 15.6434 8.90043 15.4746 8.45104 14.9121C8.24507 14.6559 8.10152 14.3559 7.9642 14.0621C7.85185 13.8246 7.88306 13.6246 8.06407 13.4246C8.88795 12.5184 9.83667 11.7621 10.8977 11.1496C10.9726 11.0996 11.0663 11.0746 11.1287 10.9621ZM19.1366 15.9496C19.1803 15.8746 19.1616 15.8434 19.1491 15.8059C18.6997 14.4184 18.2503 13.0371 17.8009 11.6496C17.751 11.4934 17.6823 11.4621 17.5263 11.5121C16.8147 11.7246 16.1469 11.7184 15.4978 11.2684C15.0421 10.9559 14.4991 10.7934 13.9249 10.8246C13.5629 10.8434 13.2258 10.9871 12.895 11.1121C11.3846 11.6621 10.0614 12.5121 8.93788 13.6621C8.86299 13.7371 8.76312 13.7934 8.79433 13.9309C8.9254 14.5059 9.41848 14.7934 9.98022 14.6059C11.1474 14.2184 12.3208 13.8371 13.488 13.4434C13.7189 13.3621 13.9374 13.3621 14.1745 13.4309C15.8847 13.9184 17.4202 14.7434 18.8682 15.7621C18.9493 15.8184 19.0367 15.8809 19.1366 15.9496ZM3.58263 16.4996C3.81357 16.4871 3.89471 16.3496 3.95088 16.1746C4.61249 14.1246 5.28033 12.0684 5.94194 10.0184C6.04804 9.69336 5.97315 9.56211 5.64858 9.45586C4.91832 9.21836 4.18182 8.98086 3.44532 8.74336C3.10203 8.63086 2.98344 8.69336 2.87109 9.03711C2.20949 11.0746 1.54788 13.1121 0.886279 15.1496C0.76769 15.5059 0.830105 15.6184 1.19212 15.7371C1.92238 15.9746 2.65888 16.2121 3.39538 16.4496C3.46404 16.4684 3.5327 16.4809 3.58263 16.4996ZM20.828 8.68086C20.7656 8.69961 20.6845 8.72461 20.6033 8.74961C19.8856 8.98086 19.1678 9.21211 18.4438 9.44961C18.0755 9.56836 18.0131 9.69336 18.1317 10.0559C18.7871 12.0871 19.4424 14.1184 20.104 16.1434C20.2164 16.4996 20.3412 16.5559 20.7032 16.4371C21.4148 16.2059 22.1263 15.9809 22.8378 15.7496C23.2373 15.6184 23.2935 15.5121 23.1624 15.1121C22.7504 13.8309 22.3323 12.5496 21.9141 11.2684C21.6707 10.5184 21.4272 9.77461 21.1838 9.02461C21.1339 8.84961 21.0527 8.70586 20.828 8.68086ZM17.57 5.08711C16.615 4.13711 15.66 3.18086 14.7176 2.24336C14.7176 3.10586 14.7176 4.00586 14.7176 4.91211C14.7176 5.06211 14.8112 5.09336 14.936 5.08711C15.2231 5.08711 15.5102 5.08711 15.8036 5.08711C16.3965 5.08711 17.002 5.08711 17.57 5.08711ZM6.70341 19.7559C6.50992 19.7496 6.34764 19.8246 6.23529 19.9809C6.02308 20.2809 5.81711 20.5809 5.62986 20.8934C5.46758 21.1684 5.5612 21.4996 5.81711 21.6746C6.06053 21.8371 6.41005 21.8059 6.5973 21.5621C6.82824 21.2621 7.04669 20.9434 7.2277 20.6121C7.44615 20.2121 7.14656 19.7559 6.70341 19.7559ZM8.39487 22.2621C8.53843 22.2684 8.68822 22.2184 8.78809 22.0871C9.04399 21.7746 9.27493 21.4371 9.46218 21.0809C9.59949 20.8121 9.48714 20.4996 9.24372 20.3496C9.0003 20.1996 8.65701 20.2309 8.48225 20.4621C8.25131 20.7684 8.02662 21.0809 7.84561 21.4121C7.62716 21.8121 7.92051 22.2621 8.39487 22.2621ZM4.17558 19.5246C4.17558 19.8871 4.30041 20.0871 4.5251 20.1809C4.76228 20.2809 5.01195 20.2434 5.18671 20.0371C5.44261 19.7309 5.66107 19.3996 5.84831 19.0496C5.9669 18.8246 5.90449 18.5559 5.72973 18.3809C5.54872 18.2059 5.28657 18.1246 5.08684 18.2621C4.61249 18.5996 4.38155 19.1121 4.17558 19.5246ZM10.4046 22.4871C10.517 22.4934 10.6293 22.4559 10.698 22.3684C10.904 22.1184 11.0975 21.8496 11.241 21.5559C11.3346 21.3684 11.2473 21.1496 11.0787 21.0496C10.8915 20.9371 10.7042 20.9621 10.5732 21.1184C10.361 21.3684 10.1737 21.6371 10.0364 21.9309C9.90533 22.1934 10.1175 22.4871 10.4046 22.4871Z" fill="white"/>
<path d="M10.9851 7.48677C10.9851 7.44927 10.9788 7.40552 10.9851 7.36802C11.0412 6.94302 10.9476 6.66802 10.4982 6.44302C9.88654 6.14302 9.66184 5.54302 9.7305 4.86177C9.79292 4.23677 10.1424 3.79302 10.7042 3.53052C10.8665 3.45552 10.9913 3.39927 11.01 3.17427C11.0225 2.98677 11.1785 2.88052 11.372 2.87427C11.578 2.86802 11.7403 2.98052 11.7528 3.18052C11.7715 3.38052 11.8776 3.44927 12.0399 3.51802C12.6453 3.77427 13.051 4.38677 13.0385 4.99927C13.0323 5.26177 12.9012 5.41802 12.6765 5.43052C12.4456 5.44302 12.2895 5.31177 12.2583 5.05552C12.2271 4.79927 12.1522 4.56802 11.9463 4.39302C11.9088 4.36177 11.8714 4.33052 11.8214 4.34927C11.7652 4.36802 11.7777 4.42427 11.7777 4.47427C11.7777 4.91177 11.784 5.34927 11.7777 5.78052C11.7777 5.96177 11.9088 5.98677 12.0274 6.04302C12.9137 6.43052 13.2944 7.43052 12.8887 8.28677C12.7077 8.66802 12.4269 8.94927 12.0336 9.10552C11.8776 9.16802 11.7777 9.23052 11.759 9.43052C11.7465 9.63052 11.5842 9.73677 11.3845 9.74927C11.191 9.76177 11.01 9.61802 10.9975 9.41802C10.9913 9.23052 10.8852 9.17427 10.7354 9.11177C10.1237 8.86177 9.71802 8.26802 9.71802 7.64302C9.71802 7.36802 9.84909 7.19927 10.08 7.18052C10.2985 7.16177 10.4732 7.31802 10.5045 7.58052C10.5357 7.83052 10.6168 8.04927 10.8103 8.21802C10.8477 8.24927 10.8852 8.30552 10.9476 8.27427C10.9975 8.24927 10.9851 8.19302 10.9851 8.14927C10.9851 7.94302 10.9851 7.71177 10.9851 7.48677ZM10.9851 5.09302C10.9851 4.89927 10.9851 4.70552 10.9851 4.51177C10.9851 4.46177 11.0038 4.39302 10.9414 4.36802C10.8789 4.33677 10.8415 4.38677 10.7978 4.41802C10.4108 4.73052 10.4358 5.44302 10.829 5.72427C10.9351 5.79927 10.9788 5.77427 10.9788 5.64927C10.9788 5.46802 10.9788 5.28052 10.9851 5.09302ZM11.7652 7.59927C11.7652 7.79302 11.7652 7.98677 11.7652 8.18052C11.7652 8.31177 11.8152 8.33052 11.9213 8.24927C12.3207 7.95552 12.3332 7.24302 11.9338 6.93677C11.8963 6.91177 11.8589 6.86802 11.8089 6.88677C11.7528 6.90552 11.7652 6.96177 11.7652 7.00552C11.7652 7.21177 11.7652 7.40552 11.7652 7.59927Z" fill="white"/>
<path d="M4.77471 9.77458C4.99316 9.78083 5.16792 9.96833 5.16168 10.1933C5.15544 10.4058 4.97444 10.5746 4.76222 10.5746C4.54377 10.5746 4.36901 10.3871 4.38149 10.1621C4.39397 9.93708 4.56874 9.76833 4.77471 9.77458Z" fill="white"/>
<path d="M19.2737 9.71875C19.4922 9.71875 19.6732 9.9125 19.6669 10.125C19.6607 10.3375 19.4672 10.5187 19.255 10.5125C19.0428 10.5062 18.8743 10.3312 18.8743 10.1187C18.8743 9.90625 19.0615 9.71875 19.2737 9.71875Z" fill="white"/>
</g>
<defs>
<clipPath id="clip0_2087_1140">
<rect width="24.0175" height="24" fill="white"/>
</clipPath>
</defs>
</svg>
