<?xml version="1.0" encoding="UTF-8"?>
<svg id="Layer_2" data-name="Layer 2" xmlns="http://www.w3.org/2000/svg" viewBox="0 0 184.64 207.22">
  <g id="Layer_1-2" data-name="Layer 1">
    <g>
      <path d="m82.22,0c6.51,1.06,12.69,3.02,18.28,6.63,11.27,7.28,18.08,17.56,20.2,30.78,1.69,10.57-.56,20.65-4.65,30.35-3.9,9.23-9.42,17.34-16.96,24.08-13.16,11.77-31.12,11.84-44.19,0-12.85-11.64-20.09-26.24-21.98-43.33C30.32,25.16,47.35,3.58,70.54.29c.39-.06.78-.19,1.17-.29,3.5,0,7.01,0,10.51,0Zm31.44,44.14c.08-2.11-.22-4.19-.6-6.23C108.27,11.96,79.87-.82,57.52,13.14c-11.79,7.36-17.37,18.49-17.15,32.34.11,6.51,1.83,12.77,4.35,18.78,4.01,9.54,9.52,17.99,18.13,24.02,8.39,5.87,17.14,6.58,26.15,1.34,5.22-3.04,9.36-7.24,12.84-12.1,7.16-9.98,11.29-21.05,11.81-33.38Z"/>
      <path d="m75.01,193.84c-27.82-.7-52.21-10.17-73.13-28.53-1.36-1.2-1.92-2.65-1.87-4.47.48-20.92,8.12-38.79,22.81-53.65,5.83-5.9,12.55-10.59,19.95-14.31,2.68-1.35,3.97-1.2,6.2.87,4.84,4.49,10.13,8.27,16.45,10.39,12.6,4.22,24.02,1.56,34.5-6.14,1.84-1.35,3.53-2.92,5.25-4.43,1.99-1.75,3.36-2.01,5.7-.85,9.36,4.63,17.5,10.86,24.28,18.8,1.21,1.42,2.44,2,4.29,2.02,21.4.27,40.79,17.24,44.49,38.29,3.75,21.3-7.5,42.57-27.35,51.5-17.23,7.75-38.71,3.72-52.22-10.15-22.23-22.83-16.15-60.16,12.18-74.7,2.94-1.51,6.01-2.74,9.25-3.47,1.42-.32,1.68-.74.54-1.87-4.52-4.49-9.54-8.3-15-11.57-1.68-1-2.76-.87-4.22.4-6.31,5.5-13.54,9.31-21.78,10.96-12.46,2.49-23.77-.53-34.13-7.58-1.67-1.13-3.25-2.41-4.77-3.73-1.05-.92-1.93-1.12-3.22-.37-18.1,10.54-29.56,25.94-34.09,46.44-.82,3.7-1.1,7.45-1.42,11.2-.1,1.26.55,1.85,1.32,2.5,9.51,8.04,20.11,14.21,31.8,18.51,12.34,4.54,25.09,6.58,38.22,6.39.81-.01,1.62-.04,2.42.03,2.07.2,3.57,1.78,3.57,3.71,0,1.94-1.47,3.53-3.56,3.73-1.07.1-2.15.06-3.23.06-1.08,0-2.16,0-3.23,0Zm62.82-72.81c-21.6-.02-39.27,17.56-39.33,39.12-.06,21.73,17.53,39.53,39.18,39.46,21.42-.07,39.36-16.8,39.33-39.31-.03-22.69-18.12-39.07-39.18-39.27Z"/>
      <path d="m88.55,189.01c.05-2.13,1.69-3.76,3.71-3.7,1.97.06,3.75,1.88,3.72,3.79-.04,1.91-1.89,3.7-3.83,3.7-2.02,0-3.64-1.71-3.59-3.8Z"/>
      <path d="m162.56,138.66c0,2.01-.84,3.03-1.81,4-5.34,5.33-10.63,10.71-16.03,15.97-1.33,1.3-1.33,2.07,0,3.37,5.49,5.36,10.88,10.84,16.31,16.26,1.23,1.23,1.92,2.61,1.31,4.36-.52,1.48-1.65,2.29-3.16,2.48-1.64.21-2.8-.74-3.87-1.81-5.29-5.29-10.61-10.53-15.82-15.89-1.33-1.37-2.12-1.48-3.5-.05-5.11,5.27-10.35,10.42-15.54,15.6-.52.52-1.05,1.07-1.65,1.47-1.6,1.08-3.22.97-4.62-.32-1.4-1.29-1.7-2.9-.68-4.57.48-.79,1.14-1.5,1.8-2.16,5.18-5.21,10.33-10.43,15.59-15.56,1.22-1.19,1.16-1.89-.03-3.04-5.29-5.18-10.51-10.45-15.74-15.69-2.53-2.54-2.89-4.71-1.1-6.47,1.86-1.83,3.87-1.5,6.45,1.07,5.1,5.09,10.19,10.19,15.29,15.28q1.96,1.96,3.86.06c5.1-5.09,10.19-10.19,15.29-15.29.72-.72,1.42-1.45,2.35-1.89,2.47-1.15,5.28.61,5.32,2.79Z"/>
    </g>
  </g>
</svg>