<svg width="40" height="40" viewBox="0 0 40 40" fill="none" xmlns="http://www.w3.org/2000/svg">
<g clip-path="url(#clip0_137_7083)">
<mask id="mask0_137_7083" style="mask-type:luminance" maskUnits="userSpaceOnUse" x="0" y="0" width="40" height="40">
<path d="M0 0H40V40H0V0Z" fill="white"/>
<path d="M22.9802 11.5385H17.0202C16.9037 11.0839 16.8927 10.6086 16.9879 10.149C17.083 9.68937 17.282 9.25758 17.5694 8.88656C17.8569 8.51553 18.2253 8.21508 18.6466 8.00812C19.0679 7.80116 19.5308 7.69317 20.0002 7.69238C20.4696 7.69317 20.9325 7.80116 21.3538 8.00812C21.7751 8.21508 22.1435 8.51553 22.431 8.88656C22.7184 9.25758 22.9173 9.68937 23.0125 10.149C23.1077 10.6086 23.0967 11.0839 22.9802 11.5385Z" fill="black"/>
<path d="M11.5385 13.0769C11.1304 13.0769 10.7391 12.9148 10.4506 12.6263C10.1621 12.3378 10 11.9465 10 11.5385C10 11.1304 10.1621 10.7391 10.4506 10.4506C10.7391 10.1621 11.1304 10 11.5385 10H28.4615C28.8696 10 29.2609 10.1621 29.5494 10.4506C29.8379 10.7391 30 11.1304 30 11.5385C30 11.9465 29.8379 12.3378 29.5494 12.6263C29.2609 12.9148 28.8696 13.0769 28.4615 13.0769H11.5385Z" fill="black"/>
<path fill-rule="evenodd" clip-rule="evenodd" d="M26.9227 33.077C27.3307 33.077 27.722 32.9149 28.0106 32.6264C28.2991 32.3378 28.4612 31.9465 28.4612 31.5385V15.3847C28.4612 14.9766 28.2991 14.5853 28.0106 14.2968C27.722 14.0083 27.3307 13.8462 26.9227 13.8462H13.0765C12.6685 13.8462 12.2772 14.0083 11.9887 14.2968C11.7002 14.5853 11.5381 14.9766 11.5381 15.3847V31.5385C11.5381 31.9465 11.7002 32.3378 11.9887 32.6264C12.2772 32.9149 12.6685 33.077 13.0765 33.077H26.9227ZM23.8458 17.6923C23.8458 17.4883 23.9268 17.2927 24.0711 17.1484C24.2153 17.0042 24.411 16.9231 24.615 16.9231C24.819 16.9231 25.0147 17.0042 25.1589 17.1484C25.3032 17.2927 25.3842 17.4883 25.3842 17.6923V28.4616C25.3842 28.6656 25.3032 28.8612 25.1589 29.0055C25.0147 29.1498 24.819 29.2308 24.615 29.2308C24.411 29.2308 24.2153 29.1498 24.0711 29.0055C23.9268 28.8612 23.8458 28.6656 23.8458 28.4616V17.6923ZM19.9996 16.9231C19.7956 16.9231 19.6 17.0042 19.4557 17.1484C19.3114 17.2927 19.2304 17.4883 19.2304 17.6923V28.4616C19.2304 28.6656 19.3114 28.8612 19.4557 29.0055C19.6 29.1498 19.7956 29.2308 19.9996 29.2308C20.2036 29.2308 20.3993 29.1498 20.5436 29.0055C20.6878 28.8612 20.7689 28.6656 20.7689 28.4616V17.6923C20.7689 17.4883 20.6878 17.2927 20.5436 17.1484C20.3993 17.0042 20.2036 16.9231 19.9996 16.9231ZM14.615 17.6923C14.615 17.4883 14.6961 17.2927 14.8403 17.1484C14.9846 17.0042 15.1802 16.9231 15.3842 16.9231C15.5883 16.9231 15.7839 17.0042 15.9282 17.1484C16.0724 17.2927 16.1535 17.4883 16.1535 17.6923V28.4616C16.1535 28.6656 16.0724 28.8612 15.9282 29.0055C15.7839 29.1498 15.5883 29.2308 15.3842 29.2308C15.1802 29.2308 14.9846 29.1498 14.8403 29.0055C14.6961 28.8612 14.615 28.6656 14.615 28.4616V17.6923Z" fill="black"/>
</mask>
<g mask="url(#mask0_137_7083)">
<path d="M20 40C31.0457 40 40 31.0457 40 20C40 8.9543 31.0457 0 20 0C8.9543 0 0 8.9543 0 20C0 31.0457 8.9543 40 20 40Z" fill="white"/>
</g>
</g>
<defs>
<clipPath id="clip0_137_7083">
<rect width="40" height="40" fill="white"/>
</clipPath>
</defs>
</svg>
