<svg width="28" height="28" viewBox="0 0 28 28" fill="none" xmlns="http://www.w3.org/2000/svg">
<path d="M23.4167 4.58342C22.1832 3.34149 20.716 2.35602 19.0999 1.6838C17.4837 1.01158 15.7504 0.665924 14 0.66675C6.63335 0.66675 0.68335 6.63342 0.68335 14.0001C0.68335 21.3667 6.63335 27.3334 14 27.3334C20.2167 27.3334 25.4 23.0834 26.8833 17.3334H23.4167C22.7301 19.2826 21.4556 20.9707 19.7689 22.1648C18.0823 23.3589 16.0666 24.0002 14 24.0001C8.48335 24.0001 4.00002 19.5167 4.00002 14.0001C4.00002 8.48342 8.48335 4.00008 14 4.00008C16.7667 4.00008 19.2333 5.15008 21.0333 6.96675L15.6667 12.3334H27.3333V0.66675L23.4167 4.58342Z" fill="#565454"/>
</svg>
