<svg version="1.1" id="Layer_1" xmlns="http://www.w3.org/2000/svg" xmlns:xlink="http://www.w3.org/1999/xlink" x="0px" y="0px"
	 width="100%" viewBox="0 0 512 512" enable-background="new 0 0 512 512" xml:space="preserve">
<path fill="#28B446" opacity="1.000000" stroke="none" 
	d="
M93.000000,1.000000 
	C162.354233,1.000000 231.708450,1.000000 301.558105,1.468044 
	C302.056030,36.995605 302.044250,72.055138 302.069855,107.114639 
	C302.077545,117.666496 305.653442,126.889336 314.080322,133.332413 
	C318.446472,136.670685 323.986938,138.473068 329.273407,141.185699 
	C367.316742,156.943298 405.083527,172.484512 442.906921,188.489731 
	C442.975616,285.314850 442.981079,381.675964 443.006439,478.037079 
	C443.010529,493.612213 436.098389,504.699219 421.860107,511.180573 
	C421.393951,511.392822 421.278809,512.376160 421.000000,513.000000 
	C311.979095,513.000000 202.958206,513.000000 93.639252,512.647949 
	C93.016045,511.927979 92.762764,511.382965 92.355392,511.217590 
	C78.514610,505.600159 71.006355,493.578979 71.005516,479.425842 
	C70.996742,331.213196 70.989929,183.000565 71.060875,34.787964 
	C71.062592,31.212696 71.547180,27.516684 72.533104,24.085777 
	C75.377174,14.188733 82.128326,7.558756 91.157158,3.000028 
	C91.914879,2.617447 92.392334,1.679780 93.000000,1.000000 
M205.500000,255.956360 
	C196.669159,255.956390 187.838303,255.945694 179.007477,255.959259 
	C168.841370,255.974869 165.254608,259.568542 165.251602,269.834351 
	C165.238449,314.655304 165.238510,359.476288 165.251129,404.297241 
	C165.254059,414.655975 168.717255,418.128967 179.022598,418.130859 
	C231.008255,418.140381 282.993896,418.140411 334.979553,418.130646 
	C345.262207,418.128723 348.735199,414.638916 348.738190,404.280762 
	C348.751099,359.459808 348.751556,314.638824 348.737213,269.817871 
	C348.733948,259.569427 345.134155,255.962234 334.964539,255.960144 
	C292.143036,255.951340 249.321518,255.956390 205.500000,255.956360 
z"/>
<path fill="#000000" opacity="1.000000" stroke="none" 
	d="
M421.468689,513.000000 
	C421.278809,512.376160 421.393951,511.392822 421.860107,511.180573 
	C436.098389,504.699219 443.010529,493.612213 443.006439,478.037079 
	C442.981079,381.675964 442.975616,285.314850 442.970215,188.023102 
	C442.930023,171.704803 442.883118,156.317123 442.756927,140.612671 
	C397.684845,95.289207 352.686127,50.288452 307.732300,5.242948 
	C306.570679,4.078980 305.899750,2.425300 305.000000,1.000000 
	C374.295990,1.000000 443.591949,1.000000 512.943970,1.000000 
	C512.943970,171.666672 512.943970,342.333344 512.943970,513.000000 
	C482.571259,513.000000 452.254303,513.000000 421.468689,513.000000 
z"/>
<path fill="#000000" opacity="1.000000" stroke="none" 
	d="
M92.531342,1.000000 
	C92.392334,1.679780 91.914879,2.617447 91.157158,3.000028 
	C82.128326,7.558756 75.377174,14.188733 72.533104,24.085777 
	C71.547180,27.516684 71.062592,31.212696 71.060875,34.787964 
	C70.989929,183.000565 70.996742,331.213196 71.005516,479.425842 
	C71.006355,493.578979 78.514610,505.600159 92.355392,511.217590 
	C92.762764,511.382965 93.016045,511.927979 93.170593,512.647949 
	C62.352619,513.000000 31.705238,513.000000 1.058888,513.000000 
	C1.059918,342.333313 1.059918,171.666656 1.059918,1.000000 
	C31.434118,1.000000 61.748402,1.000000 92.531342,1.000000 
z"/>
<path fill="#69CE7B" opacity="1.000000" stroke="none" 
	d="
M304.625000,1.000000 
	C305.899750,2.425300 306.570679,4.078980 307.732300,5.242948 
	C352.686127,50.288452 397.684845,95.289207 442.299683,140.643188 
	C404.280151,140.983459 366.638489,140.976395 328.996857,140.969345 
	C323.986938,138.473068 318.446472,136.670685 314.080322,133.332413 
	C305.653442,126.889336 302.077545,117.666496 302.069855,107.114639 
	C302.044250,72.055138 302.056030,36.995605 302.026764,1.468044 
	C302.750000,1.000000 303.500000,1.000000 304.625000,1.000000 
z"/>
<path fill="#FBFEFC" opacity="1.000000" stroke="none" 
	d="
M206.000000,255.956360 
	C249.321518,255.956390 292.143036,255.951340 334.964539,255.960144 
	C345.134155,255.962234 348.733948,259.569427 348.737213,269.817871 
	C348.751556,314.638824 348.751099,359.459808 348.738190,404.280762 
	C348.735199,414.638916 345.262207,418.128723 334.979553,418.130646 
	C282.993896,418.140411 231.008255,418.140381 179.022598,418.130859 
	C168.717255,418.128967 165.254059,414.655975 165.251129,404.297241 
	C165.238510,359.476288 165.238449,314.655304 165.251602,269.834351 
	C165.254608,259.568542 168.841370,255.974869 179.007477,255.959259 
	C187.838303,255.945694 196.669159,255.956390 206.000000,255.956360 
M237.483292,323.755951 
	C220.590332,323.755951 203.697388,323.755951 186.777344,323.755951 
	C186.777344,332.979248 186.777344,341.501129 186.777344,350.141052 
	C206.743774,350.141052 226.291046,350.141052 246.123199,350.141052 
	C246.123199,341.325073 246.123199,332.792450 246.123199,323.755951 
	C243.381927,323.755951 240.929382,323.755951 237.483292,323.755951 
M301.500153,323.755829 
	C290.267059,323.755829 279.033936,323.755829 268.019989,323.755829 
	C268.019989,333.103882 268.019989,341.650269 268.019989,350.082275 
	C288.024567,350.082275 307.575104,350.082275 327.255737,350.082275 
	C327.255737,341.199005 327.255737,332.661957 327.255737,323.755829 
	C318.760620,323.755829 310.630402,323.755829 301.500153,323.755829 
M186.347656,280.818787 
	C186.347656,287.920685 186.347656,295.022614 186.347656,302.250366 
	C206.682846,302.250366 226.353668,302.250366 246.219574,302.250366 
	C246.219574,293.730438 246.219574,285.631622 246.219574,277.008392 
	C226.907501,277.008392 207.804276,276.974030 188.702591,277.130035 
	C187.911728,277.136505 187.135422,278.925537 186.347656,280.818787 
M275.595398,302.671356 
	C292.821503,302.671356 310.047638,302.671356 327.214966,302.671356 
	C327.214966,293.612915 327.214966,285.413330 327.214966,277.251648 
	C307.200012,277.251648 287.609955,277.251648 267.898560,277.251648 
	C267.898560,285.726715 267.898560,293.944000 267.898560,302.671326 
	C270.359985,302.671326 272.491333,302.671326 275.595398,302.671356 
M213.500275,371.575836 
	C204.587311,371.575836 195.674347,371.575836 186.652924,371.575836 
	C186.652924,380.483490 186.652924,388.567780 186.652924,396.739075 
	C206.674805,396.739075 226.401260,396.739075 246.123108,396.739075 
	C246.123108,388.310577 246.123108,380.218384 246.123108,371.575806 
	C235.390610,371.575806 224.945450,371.575806 213.500275,371.575836 
M294.500000,397.072205 
	C305.414642,397.072205 316.329315,397.072205 327.327332,397.072205 
	C327.327332,388.276611 327.327332,380.186981 327.327332,371.973724 
	C307.324585,371.973724 287.622772,371.973724 267.852295,371.973724 
	C267.852295,380.453094 267.852295,388.531738 267.852295,397.072205 
	C276.586243,397.072205 285.043121,397.072205 294.500000,397.072205 
z"/>
<path fill="#229C39" opacity="1.000000" stroke="none" 
	d="
M329.273407,141.185699 
	C366.638489,140.976395 404.280151,140.983459 442.379028,140.959991 
	C442.883118,156.317123 442.930023,171.704803 442.913605,187.559097 
	C405.083527,172.484512 367.316742,156.943298 329.273407,141.185699 
z"/>
<path fill="#29B547" opacity="1.000000" stroke="none" 
	d="
M237.980072,323.755951 
	C240.929382,323.755951 243.381927,323.755951 246.123199,323.755951 
	C246.123199,332.792450 246.123199,341.325073 246.123199,350.141052 
	C226.291046,350.141052 206.743774,350.141052 186.777344,350.141052 
	C186.777344,341.501129 186.777344,332.979248 186.777344,323.755951 
	C203.697388,323.755951 220.590332,323.755951 237.980072,323.755951 
z"/>
<path fill="#2AB547" opacity="1.000000" stroke="none" 
	d="
M302.000183,323.755829 
	C310.630402,323.755829 318.760620,323.755829 327.255737,323.755829 
	C327.255737,332.661957 327.255737,341.199005 327.255737,350.082275 
	C307.575104,350.082275 288.024567,350.082275 268.019989,350.082275 
	C268.019989,341.650269 268.019989,333.103882 268.019989,323.755829 
	C279.033936,323.755829 290.267059,323.755829 302.000183,323.755829 
z"/>
<path fill="#2DB64A" opacity="1.000000" stroke="none" 
	d="
M186.350006,280.351440 
	C187.135422,278.925537 187.911728,277.136505 188.702591,277.130035 
	C207.804276,276.974030 226.907501,277.008392 246.219574,277.008392 
	C246.219574,285.631622 246.219574,293.730438 246.219574,302.250366 
	C226.353668,302.250366 206.682846,302.250366 186.347656,302.250366 
	C186.347656,295.022614 186.347656,287.920685 186.350006,280.351440 
z"/>
<path fill="#2DB64A" opacity="1.000000" stroke="none" 
	d="
M275.109039,302.671326 
	C272.491333,302.671326 270.359985,302.671326 267.898560,302.671326 
	C267.898560,293.944000 267.898560,285.726715 267.898560,277.251648 
	C287.609955,277.251648 307.200012,277.251648 327.214966,277.251648 
	C327.214966,285.413330 327.214966,293.612915 327.214966,302.671356 
	C310.047638,302.671356 292.821503,302.671356 275.109039,302.671326 
z"/>
<path fill="#29B547" opacity="1.000000" stroke="none" 
	d="
M214.000275,371.575806 
	C224.945450,371.575806 235.390610,371.575806 246.123108,371.575806 
	C246.123108,380.218384 246.123108,388.310577 246.123108,396.739075 
	C226.401260,396.739075 206.674805,396.739075 186.652924,396.739075 
	C186.652924,388.567780 186.652924,380.483490 186.652924,371.575836 
	C195.674347,371.575836 204.587311,371.575836 214.000275,371.575806 
z"/>
<path fill="#2AB547" opacity="1.000000" stroke="none" 
	d="
M294.000000,397.072205 
	C285.043121,397.072205 276.586243,397.072205 267.852295,397.072205 
	C267.852295,388.531738 267.852295,380.453094 267.852295,371.973724 
	C287.622772,371.973724 307.324585,371.973724 327.327332,371.973724 
	C327.327332,380.186981 327.327332,388.276611 327.327332,397.072205 
	C316.329315,397.072205 305.414642,397.072205 294.000000,397.072205 
z"/>
</svg>