<svg width="10" height="17" viewBox="0 0 10 17" fill="none" xmlns="http://www.w3.org/2000/svg">
<path d="M2 16.5C1.45 16.5 0.979002 16.304 0.587002 15.912C0.195002 15.52 -0.000664969 15.0493 1.69779e-06 14.5C1.69779e-06 13.95 0.196001 13.479 0.588001 13.087C0.980001 12.695 1.45067 12.4993 2 12.5C2.55 12.5 3.021 12.696 3.413 13.088C3.805 13.48 4.00067 13.9507 4 14.5C4 15.05 3.804 15.521 3.412 15.913C3.02 16.305 2.54934 16.5007 2 16.5ZM8 16.5C7.45 16.5 6.979 16.304 6.587 15.912C6.195 15.52 5.99934 15.0493 6 14.5C6 13.95 6.196 13.479 6.588 13.087C6.98 12.695 7.45067 12.4993 8 12.5C8.55 12.5 9.021 12.696 9.413 13.088C9.805 13.48 10.0007 13.9507 10 14.5C10 15.05 9.804 15.521 9.412 15.913C9.02 16.305 8.54934 16.5007 8 16.5ZM2 10.5C1.45 10.5 0.979002 10.304 0.587002 9.912C0.195002 9.52 -0.000664969 9.04934 1.69779e-06 8.5C1.69779e-06 7.95 0.196001 7.479 0.588001 7.087C0.980001 6.695 1.45067 6.49934 2 6.5C2.55 6.5 3.021 6.696 3.413 7.088C3.805 7.48 4.00067 7.95067 4 8.5C4 9.05 3.804 9.521 3.412 9.913C3.02 10.305 2.54934 10.5007 2 10.5ZM8 10.5C7.45 10.5 6.979 10.304 6.587 9.912C6.195 9.52 5.99934 9.04934 6 8.5C6 7.95 6.196 7.479 6.588 7.087C6.98 6.695 7.45067 6.49934 8 6.5C8.55 6.5 9.021 6.696 9.413 7.088C9.805 7.48 10.0007 7.95067 10 8.5C10 9.05 9.804 9.521 9.412 9.913C9.02 10.305 8.54934 10.5007 8 10.5ZM2 4.5C1.45 4.5 0.979002 4.304 0.587002 3.912C0.195002 3.52 -0.000664969 3.04934 1.69779e-06 2.5C1.69779e-06 1.95 0.196001 1.479 0.588001 1.087C0.980001 0.695002 1.45067 0.499335 2 0.500002C2.55 0.500002 3.021 0.696001 3.413 1.088C3.805 1.48 4.00067 1.95067 4 2.5C4 3.05 3.804 3.521 3.412 3.913C3.02 4.305 2.54934 4.50067 2 4.5ZM8 4.5C7.45 4.5 6.979 4.304 6.587 3.912C6.195 3.52 5.99934 3.04934 6 2.5C6 1.95 6.196 1.479 6.588 1.087C6.98 0.695002 7.45067 0.499335 8 0.500002C8.55 0.500002 9.021 0.696001 9.413 1.088C9.805 1.48 10.0007 1.95067 10 2.5C10 3.05 9.804 3.521 9.412 3.913C9.02 4.305 8.54934 4.50067 8 4.5Z" fill="#B9B9B9"/>
</svg>
