<svg width="54" height="54" viewBox="0 0 54 54" fill="none" xmlns="http://www.w3.org/2000/svg">
<path d="M30.7242 12.6076C29.8389 12.3715 28.8946 12.9027 28.6585 13.8471L21.8119 39.9346C21.5759 40.82 22.1071 41.7643 23.0514 42.0004C23.1694 42.0594 23.3465 42.0594 23.4646 42.0594C24.2318 42.0594 24.9401 41.5282 25.1172 40.7609L31.9637 14.6143C32.1998 13.729 31.6686 12.8437 30.7242 12.6076Z" fill="white"/>
<path d="M19.2153 17.3873C18.5661 16.7381 17.4447 16.7381 16.7954 17.3873L8.11925 26.1225C7.47001 26.7718 7.47001 27.8932 8.11925 28.5424L16.7364 37.2776C17.0905 37.6318 17.5037 37.8088 17.9759 37.8088C18.389 37.8088 18.8612 37.6318 19.1563 37.3366C19.8055 36.6874 19.8055 35.566 19.1563 34.9168L11.7786 27.303L19.2153 19.8072C19.8646 19.0989 19.8646 18.0366 19.2153 17.3873Z" fill="white"/>
<path d="M46.6008 26.1225L37.9246 17.3873C37.2754 16.7381 36.154 16.7381 35.5048 17.3873C34.8555 18.0366 34.8555 19.158 35.5048 19.8072L42.9415 27.303L35.5048 34.7987C34.8555 35.448 34.8555 36.5694 35.5048 37.2186C35.8589 37.5727 36.272 37.6908 36.6852 37.6908C37.0983 37.6908 37.5705 37.5137 37.9246 37.1596L46.6008 28.4834C47.2501 27.8342 47.2501 26.7718 46.6008 26.1225Z" fill="white"/>
<path d="M27.3599 0.744141C12.5455 0.862184 0.682146 12.8436 0.80019 27.481C0.918233 42.0003 12.7816 53.8636 27.3599 53.8636H27.537C34.6196 53.8046 41.2891 51.0306 46.2469 45.9547C51.2047 40.8789 53.9787 34.2094 53.9197 27.1268C53.8017 12.6075 41.9383 0.744141 27.3599 0.744141ZM43.7089 43.4758C39.4004 47.8434 33.6162 50.2633 27.478 50.3223H27.3599C14.7883 50.3223 4.45953 40.0526 4.40051 27.481C4.34149 14.7913 14.5522 4.46251 27.2419 4.34446C39.9906 4.34446 50.2604 14.6142 50.3784 27.1859C50.3784 33.3241 48.0175 39.1082 43.7089 43.4758Z" fill="white"/>
</svg>
