<svg width="16" height="16" viewBox="0 0 16 16" fill="none" xmlns="http://www.w3.org/2000/svg">
<path d="M8.00004 12.6246C8.36823 12.6246 8.66671 12.3261 8.66671 11.9579C8.66671 11.5897 8.36823 11.2913 8.00004 11.2913C7.63185 11.2913 7.33337 11.5897 7.33337 11.9579C7.33337 12.3261 7.63185 12.6246 8.00004 12.6246Z" fill="#8F9FBC"/>
<path d="M11.1514 14.6246H4.84869C4.43043 14.5996 4.03895 14.4105 3.75941 14.0984C3.47987 13.7863 3.3349 13.3764 3.35603 12.9579V3.04191C3.3349 2.62344 3.47987 2.21356 3.75941 1.90143C4.03895 1.58931 4.43043 1.4002 4.84869 1.37524H11.1514C11.5696 1.4002 11.9611 1.58931 12.2406 1.90143C12.5202 2.21356 12.6652 2.62344 12.644 3.04191V12.9579C12.6652 13.3764 12.5202 13.7863 12.2406 14.0984C11.9611 14.4105 11.5696 14.5996 11.1514 14.6246ZM4.84869 2.04191C4.60755 2.06738 4.386 2.18636 4.23158 2.37331C4.07716 2.56026 4.00216 2.8003 4.02269 3.04191V12.9579C4.00216 13.1995 4.07716 13.4396 4.23158 13.6265C4.386 13.8135 4.60755 13.9324 4.84869 13.9579H11.1514C11.3925 13.9324 11.6141 13.8135 11.7685 13.6265C11.9229 13.4396 11.9979 13.1995 11.9774 12.9579V3.04191C11.9979 2.8003 11.9229 2.56026 11.7685 2.37331C11.6141 2.18636 11.3925 2.06738 11.1514 2.04191H4.84869Z" fill="#8F9FBC"/>
</svg>
