<svg width="21" height="40" viewBox="0 0 21 40" fill="none" xmlns="http://www.w3.org/2000/svg">
<path d="M17.8331 0H3.16687C1.41904 0 0 1.41904 0 3.16687V36.2806C0 38.0284 1.41904 39.4475 3.16687 39.4475H17.8331C19.581 39.4475 21 38.0284 21 36.2806V3.17552C21 1.42769 19.581 0 17.8331 0ZM3.16687 1.73053H17.8331C18.6292 1.73053 19.2695 2.37948 19.2695 3.16687V4.43881H1.72188V3.17552C1.72188 2.37948 2.37083 1.73053 3.16687 1.73053ZM19.2695 5.31273V31.7206H1.72188V5.31273H19.2695ZM17.8331 37.7256H3.16687C2.37083 37.7256 1.73053 37.0766 1.73053 36.2892V32.5859H19.2695V36.2892C19.2695 37.0853 18.6205 37.7256 17.8331 37.7256Z" fill="white"/>
<path d="M10.487 33.4688C9.6044 33.4688 8.88623 34.1869 8.88623 35.0695C8.88623 35.9521 9.6044 36.6702 10.487 36.6702C11.3695 36.6702 12.0877 35.9521 12.0877 35.0695C12.0877 34.1869 11.3695 33.4688 10.487 33.4688ZM10.487 35.805C10.0803 35.805 9.7515 35.4762 9.7515 35.0695C9.7515 34.6628 10.0803 34.334 10.487 34.334C10.8936 34.334 11.2224 34.6628 11.2224 35.0695C11.2224 35.4762 10.8936 35.805 10.487 35.805Z" fill="white"/>
<path d="M10.6343 15.254C11.3177 15.254 11.8716 14.7 11.8716 14.0166C11.8716 13.3333 11.3177 12.7793 10.6343 12.7793C9.95094 12.7793 9.39697 13.3333 9.39697 14.0166C9.39697 14.7 9.95094 15.254 10.6343 15.254Z" fill="white"/>
<path d="M10.634 22.895C11.088 22.895 11.456 22.527 11.456 22.073C11.456 21.619 11.088 21.251 10.634 21.251C10.18 21.251 9.81201 21.619 9.81201 22.073C9.81201 22.527 10.18 22.895 10.634 22.895Z" fill="white"/>
<path d="M6.60205 19.0019C7.13248 19.0019 7.56249 18.5719 7.56249 18.0415C7.56249 17.5111 7.13248 17.0811 6.60205 17.0811C6.07161 17.0811 5.6416 17.5111 5.6416 18.0415C5.6416 18.5719 6.07161 19.0019 6.60205 19.0019Z" fill="white"/>
<path d="M14.6662 18.7245C15.0437 18.7245 15.3498 18.4185 15.3498 18.041C15.3498 17.6635 15.0437 17.3574 14.6662 17.3574C14.2887 17.3574 13.9827 17.6635 13.9827 18.041C13.9827 18.4185 14.2887 18.7245 14.6662 18.7245Z" fill="white"/>
<path d="M7.78722 21.7873C8.27943 21.7873 8.67844 21.3883 8.67844 20.8961C8.67844 20.4039 8.27943 20.0049 7.78722 20.0049C7.29501 20.0049 6.896 20.4039 6.896 20.8961C6.896 21.3883 7.29501 21.7873 7.78722 21.7873Z" fill="white"/>
<path d="M13.4808 16.4913C14.1976 16.4913 14.7787 15.9102 14.7787 15.1934C14.7787 14.4766 14.1976 13.8955 13.4808 13.8955C12.764 13.8955 12.1829 14.4766 12.1829 15.1934C12.1829 15.9102 12.764 16.4913 13.4808 16.4913Z" fill="white"/>
<path d="M13.4808 21.6481C13.8966 21.6481 14.2336 21.3111 14.2336 20.8954C14.2336 20.4796 13.8966 20.1426 13.4808 20.1426C13.0651 20.1426 12.728 20.4796 12.728 20.8954C12.728 21.3111 13.0651 21.6481 13.4808 21.6481Z" fill="white"/>
<path d="M7.78748 16.2234C8.35615 16.2234 8.81715 15.7624 8.81715 15.1937C8.81715 14.6251 8.35615 14.1641 7.78748 14.1641C7.21881 14.1641 6.75781 14.6251 6.75781 15.1937C6.75781 15.7624 7.21881 16.2234 7.78748 16.2234Z" fill="white"/>
</svg>
