<svg width="76" height="63" viewBox="0 0 76 63" fill="none" xmlns="http://www.w3.org/2000/svg">
<path d="M75.5502 5.4526C75.5502 2.44712 73.1503 0 70.2003 0H5.35108C2.40108 0.00118047 0 2.44712 0 5.4526V10.2713H75.5502V5.4526ZM7.38031 6.73341C6.50204 6.73341 5.7914 6.02159 5.7914 5.1445C5.7914 4.26741 6.50322 3.55558 7.38031 3.55558C8.25858 3.55558 8.96923 4.26741 8.96923 5.1445C8.96923 6.02159 8.2574 6.73341 7.38031 6.73341ZM12.1471 6.73341C11.2688 6.73341 10.5581 6.02159 10.5581 5.1445C10.5581 4.26741 11.27 3.55558 12.1471 3.55558C13.0241 3.55558 13.736 4.26741 13.736 5.1445C13.736 6.02159 13.0253 6.73341 12.1471 6.73341ZM16.915 6.73341C16.0367 6.73341 15.3261 6.02159 15.3261 5.1445C15.3261 4.26741 16.0379 3.55558 16.915 3.55558C17.7933 3.55558 18.5039 4.26741 18.5039 5.1445C18.5039 6.02159 17.7933 6.73341 16.915 6.73341ZM66.3272 6.73223H27.7848C26.9112 6.73223 26.1959 6.01687 26.1959 5.14332C26.1959 4.26977 26.9112 3.5544 27.7848 3.5544H66.3272C67.2007 3.5544 67.9161 4.26977 67.9161 5.14332C67.9161 6.01805 67.2007 6.73223 66.3272 6.73223Z" fill="white"/>
<path d="M75.55 11.9238H-0.000244141V62.9993H75.55V11.9238ZM21.5906 33.5772H53.9591V35.2299H21.5906V33.5772ZM62.1209 42.3953H13.4288V40.7427H62.1209V42.3953Z" fill="white"/>
</svg>
