<svg width="34" height="35" viewBox="0 0 34 35" fill="none" xmlns="http://www.w3.org/2000/svg">
<path d="M15.8334 30.833L24.1667 14.583H18.3334V4.16634L10 20.4163H15.8334V30.833ZM17 34.1663C14.6945 34.1663 12.5278 33.7286 10.5 32.853C8.47226 31.9775 6.70837 30.7902 5.20837 29.2913C3.70837 27.7913 2.52115 26.0275 1.64671 23.9997C0.772263 21.9719 0.334485 19.8052 0.333374 17.4997C0.333374 15.1941 0.771152 13.0275 1.64671 10.9997C2.52226 8.9719 3.70949 7.20801 5.20837 5.70801C6.70837 4.20801 8.47226 3.02079 10.5 2.14634C12.5278 1.2719 14.6945 0.834119 17 0.833008C19.3056 0.833008 21.4723 1.27079 23.5 2.14634C25.5278 3.0219 27.2917 4.20912 28.7917 5.70801C30.2917 7.20801 31.4795 8.9719 32.355 10.9997C33.2306 13.0275 33.6678 15.1941 33.6667 17.4997C33.6667 19.8052 33.2289 21.9719 32.3534 23.9997C31.4778 26.0275 30.2906 27.7913 28.7917 29.2913C27.2917 30.7913 25.5278 31.9791 23.5 32.8547C21.4723 33.7302 19.3056 34.1674 17 34.1663ZM17 30.833C20.6945 30.833 23.8406 29.5347 26.4384 26.938C29.0362 24.3413 30.3345 21.1952 30.3334 17.4997C30.3334 13.8052 29.035 10.6591 26.4384 8.06134C23.8417 5.46356 20.6956 4.16523 17 4.16634C13.3056 4.16634 10.1595 5.46467 7.56171 8.06134C4.96393 10.658 3.6656 13.8041 3.66671 17.4997C3.66671 21.1941 4.96504 24.3402 7.56171 26.938C10.1584 29.5358 13.3045 30.8341 17 30.833Z" fill="white"/>
</svg>
