<svg width="16" height="17" viewBox="0 0 16 17" fill="none" xmlns="http://www.w3.org/2000/svg">
<path d="M9.33333 5.83341V4.50008C9.33333 4.14646 9.19286 3.80732 8.94281 3.55727C8.69276 3.30722 8.35362 3.16675 8 3.16675H3.33333C2.97971 3.16675 2.64057 3.30722 2.39052 3.55727C2.14048 3.80732 2 4.14646 2 4.50008V12.5001C2 12.8537 2.14048 13.1928 2.39052 13.4429C2.64057 13.6929 2.97971 13.8334 3.33333 13.8334H8C8.35362 13.8334 8.69276 13.6929 8.94281 13.4429C9.19286 13.1928 9.33333 12.8537 9.33333 12.5001V11.1667" stroke="black" stroke-linecap="round" stroke-linejoin="round"/>
<path d="M6 8.5H14M14 8.5L12 6.5M14 8.5L12 10.5" stroke="black" stroke-linecap="round" stroke-linejoin="round"/>
</svg>
