<svg width="49" height="56" viewBox="0 0 49 56" fill="none" xmlns="http://www.w3.org/2000/svg">
<path d="M23.154 7.43489V3.85169H27.1959V7.51829C39.4022 8.78166 48.9208 19.0989 48.9208 31.6393C48.9208 45.0328 38.0632 55.8904 24.6697 55.8904C11.2763 55.8904 0.418701 45.0328 0.418701 31.6393C0.418701 18.7549 10.4666 8.21729 23.154 7.43489ZM24.6697 51.8485C35.831 51.8485 44.8789 42.8006 44.8789 31.6393C44.8789 20.4781 35.831 11.4301 24.6697 11.4301C13.5085 11.4301 4.46054 20.4781 4.46054 31.6393C4.46054 42.8006 13.5085 51.8485 24.6697 51.8485ZM35.2796 39.9126L32.7546 43.0688L22.8397 35.1368V16.9877H26.8815V33.1942L35.2796 39.9126ZM14.0599 4.86215V0.820312H35.2796V4.86215H14.0599Z" fill="white"/>
</svg>
