<svg width="23" height="29" viewBox="0 0 23 29" fill="none" xmlns="http://www.w3.org/2000/svg">
<path fill-rule="evenodd" clip-rule="evenodd" d="M13.6021 13.5924C13.5999 13.4634 13.6234 13.3352 13.6712 13.2154C13.719 13.0956 13.7903 12.9865 13.8807 12.8945C13.9711 12.8025 14.079 12.7295 14.1979 12.6796C14.3169 12.6297 14.4446 12.604 14.5736 12.604C14.7026 12.604 14.8303 12.6297 14.9493 12.6796C15.0683 12.7295 15.1761 12.8025 15.2666 12.8945C15.357 12.9865 15.4282 13.0956 15.476 13.2154C15.5239 13.3352 15.5474 13.4634 15.5451 13.5924V24.6008C15.5474 24.7298 15.5239 24.8579 15.476 24.9777C15.4282 25.0975 15.357 25.2066 15.2666 25.2986C15.1761 25.3906 15.0683 25.4637 14.9493 25.5136C14.8303 25.5635 14.7026 25.5892 14.5736 25.5892C14.4446 25.5892 14.3169 25.5635 14.1979 25.5136C14.079 25.4637 13.9711 25.3906 13.8807 25.2986C13.7903 25.2066 13.719 25.0975 13.6712 24.9777C13.6234 24.8579 13.5999 24.7298 13.6021 24.6008V13.5924ZM21.2381 4.06407H17.5828V3.24661C17.581 2.38636 17.2385 1.56185 16.6304 0.953422C16.0222 0.344999 15.1978 0.00219589 14.3376 0L8.6624 0C7.80216 0.00219589 6.97779 0.344999 6.36964 0.953422C5.76148 1.56185 5.41904 2.38636 5.41723 3.24661V4.06407H1.76189C1.29523 4.0661 0.848273 4.25238 0.518295 4.58236C0.188317 4.91234 0.00203634 5.3593 0 5.82596V7.58784H23V5.82596C22.998 5.3593 22.8117 4.91234 22.4817 4.58236C22.1517 4.25238 21.7048 4.0661 21.2381 4.06407ZM15.6397 4.06407H7.36055V3.24661C7.3622 2.90174 7.49986 2.57145 7.74361 2.32748C7.98737 2.08351 8.31754 1.94557 8.6624 1.94361H14.3376C14.6827 1.94527 15.0132 2.08307 15.2572 2.32706C15.5013 2.57106 15.6391 2.90152 15.6409 3.24661V4.06407H15.6397ZM20.5786 9.53117H2.21934L2.97833 27.1148C2.99588 27.532 3.1743 27.9262 3.47616 28.2148C3.77802 28.5034 4.17988 28.6638 4.59748 28.6626H18.2007C18.6183 28.6638 19.0201 28.5033 19.3219 28.2147C19.6237 27.9262 19.802 27.532 19.8196 27.1148L20.5786 9.53145V9.53117ZM7.25278 13.5924C7.25056 13.4634 7.27405 13.3352 7.32188 13.2154C7.36971 13.0956 7.44092 12.9865 7.53135 12.8945C7.62179 12.8025 7.72964 12.7295 7.84861 12.6796C7.96758 12.6297 8.09529 12.604 8.2243 12.604C8.3533 12.604 8.48101 12.6297 8.59999 12.6796C8.71896 12.7295 8.82681 12.8025 8.91724 12.8945C9.00767 12.9865 9.07888 13.0956 9.12671 13.2154C9.17454 13.3352 9.19803 13.4634 9.19582 13.5924V24.6008C9.19803 24.7298 9.17454 24.8579 9.12671 24.9777C9.07888 25.0975 9.00767 25.2066 8.91724 25.2986C8.82681 25.3906 8.71896 25.4637 8.59999 25.5136C8.48101 25.5635 8.3533 25.5892 8.2243 25.5892C8.09529 25.5892 7.96758 25.5635 7.84861 25.5136C7.72964 25.4637 7.62179 25.3906 7.53135 25.2986C7.44092 25.2066 7.36971 25.0975 7.32188 24.9777C7.27405 24.8579 7.25056 24.7298 7.25278 24.6008V13.5924Z" fill="white"/>
</svg>
