<svg width="20" height="20" viewBox="0 0 20 20" fill="none" xmlns="http://www.w3.org/2000/svg">
<g clip-path="url(#clip0_1450_7204)">
<path d="M9.9099 2.13283C9.9099 2.46408 9.91251 2.79586 9.90886 3.12711C9.90574 3.40783 9.78699 3.5344 9.51459 3.55783C6.65053 3.80419 4.2974 5.86565 3.6823 8.68804C3.38126 10.0677 3.52188 11.411 4.09428 12.7058C4.12865 12.7828 4.16407 12.8599 4.19324 12.9391C4.25782 13.1141 4.22084 13.2672 4.05834 13.3625C3.43074 13.7308 2.80209 14.0969 2.16824 14.4542C1.9672 14.5677 1.79792 14.4917 1.67761 14.2584C1.36719 13.6552 1.13126 13.0235 0.966674 12.3656C-0.0505135 8.29898 1.68959 4.12086 5.30522 1.97294C6.50678 1.2594 7.81095 0.859918 9.20365 0.716689C9.71199 0.664605 9.95313 0.70523 9.91199 1.37294C9.89636 1.62554 9.90938 1.87971 9.90938 2.13283H9.9099Z" fill="#565454"/>
<path d="M10.0474 19.4386C6.79062 19.3401 4.19167 17.9964 2.29896 15.3219C2.04219 14.9594 2.0776 14.8219 2.46719 14.5964C3.00104 14.287 3.53542 13.9792 4.07031 13.6714C4.38802 13.4886 4.50781 13.5193 4.72083 13.8141C5.87292 15.4073 7.42917 16.3542 9.38021 16.5422C11.7516 16.7708 13.7026 15.9094 15.213 14.063C15.4375 13.7886 15.55 13.7625 15.8568 13.9391C16.4141 14.2599 16.9719 14.5792 17.5276 14.9026C17.8318 15.0802 17.8729 15.2563 17.6656 15.537C16.1359 17.6083 14.1047 18.8719 11.5651 19.3115C11.399 19.3401 11.2318 19.3646 11.0646 19.3833C10.7286 19.4208 10.3917 19.4386 10.0479 19.438L10.0474 19.4386Z" fill="#565454"/>
<path d="M19.4308 10.0417C19.4391 11.6261 19.0568 13.1125 18.311 14.5078C18.1485 14.812 17.9917 14.8589 17.6974 14.6896C17.1344 14.3657 16.5719 14.0422 16.0099 13.7167C15.7156 13.5464 15.674 13.411 15.8318 13.1104C16.3209 12.1792 16.575 11.1844 16.5875 10.137C16.5985 9.20628 16.4229 8.30367 16.0401 7.44794C16.0136 7.38857 15.987 7.32972 15.9615 7.26982C15.838 6.97919 15.8787 6.8542 16.1558 6.69378C16.7287 6.36149 17.3021 6.02972 17.8766 5.70003C18.1396 5.54899 18.3078 5.59899 18.4469 5.87399C18.9688 6.90472 19.2797 7.99638 19.3933 9.14638C19.4229 9.44482 19.425 9.74222 19.4308 10.0412V10.0417Z" fill="#565454"/>
<path d="M10.612 0.69478C12.6896 0.848947 14.5193 1.57134 16.1042 2.89791C16.7807 3.46405 17.363 4.11666 17.8552 4.84999C18.0516 5.14218 18.0172 5.30676 17.7099 5.48541C17.1484 5.81197 16.5859 6.13645 16.0224 6.45884C15.7344 6.62343 15.6031 6.5927 15.4141 6.32707C14.2714 4.72499 12.7193 3.81197 10.7703 3.56666C10.1771 3.49218 10.1682 3.4828 10.1682 2.8828C10.1682 2.30468 10.1667 1.72655 10.1687 1.14843C10.1698 0.815093 10.3068 0.683843 10.6125 0.69478H10.612Z" fill="#565454"/>
<path d="M12.8765 11.0578C12.8948 11.8307 12.3552 12.4073 11.6401 12.4115C10.8901 12.4156 10.3417 11.8594 10.363 11.0964C10.3682 10.911 10.3135 10.7974 10.1614 10.6953C9.88124 10.5073 9.61144 10.3031 9.34217 10.0995C9.25832 10.036 9.18801 10.0302 9.09426 10.0787C8.68228 10.2912 8.26926 10.2849 7.86613 10.0557C7.77603 10.0047 7.71665 10.0167 7.64009 10.074C7.35415 10.288 7.0677 10.5021 6.77447 10.7057C6.65936 10.7854 6.62134 10.8667 6.6328 11.0104C6.67967 11.5875 6.41561 12.0542 5.9302 12.2891C5.47447 12.5099 4.92655 12.4344 4.54582 12.099C4.04634 11.6583 3.97707 10.9016 4.38749 10.3735C4.7953 9.84897 5.55051 9.72918 6.09738 10.1203C6.24113 10.2229 6.33072 10.2224 6.46353 10.1146C6.6953 9.92658 6.94113 9.75574 7.18592 9.58439C7.28905 9.51199 7.32395 9.4422 7.28749 9.30887C7.13749 8.76355 7.33853 8.21928 7.78384 7.91928C8.22655 7.62085 8.8229 7.63126 9.24738 7.9448C9.68488 8.26772 9.86145 8.8073 9.69582 9.35105C9.66145 9.46355 9.67655 9.52553 9.77447 9.59376C10.0463 9.78283 10.3125 9.98074 10.5766 10.1802C10.6594 10.2427 10.714 10.2594 10.8088 10.1823C11.2901 9.79116 11.9021 9.77918 12.3901 10.1511C12.4953 10.2313 12.562 10.225 12.6588 10.1505C12.9062 9.96095 13.1562 9.77397 13.4135 9.59845C13.5354 9.51512 13.5609 9.43491 13.5213 9.29064C13.3526 8.6797 13.6484 8.07033 14.2265 7.80783C14.7604 7.56512 15.3739 7.72189 15.7484 8.19637C16.0911 8.63022 16.089 9.29637 15.7437 9.73803C15.3844 10.1979 14.7552 10.3729 14.2396 10.1224C14.0375 10.024 13.9005 10.0417 13.7364 10.1797C13.5328 10.3505 13.3125 10.5021 13.0932 10.6537C12.9364 10.762 12.789 10.8656 12.8755 11.0583L12.8765 11.0578Z" fill="#565454"/>
</g>
<defs>
<clipPath id="clip0_1450_7204">
<rect width="20" height="20" fill="white"/>
</clipPath>
</defs>
</svg>
