<svg width="23" height="28" viewBox="0 0 23 28" fill="none" xmlns="http://www.w3.org/2000/svg">
<path d="M17.7332 16.9561C14.8176 16.9561 12.4663 19.3073 12.4663 22.223C12.4663 25.115 14.8176 27.4899 17.7332 27.4899C20.6253 27.4899 23.0001 25.115 23.0001 22.223C23.0001 19.3073 20.6253 16.9561 17.7332 16.9561ZM14.7941 19.8716H20.6723L17.7332 24.9505L14.7941 19.8716ZM17.4981 20.4595V22.3405H17.9684V20.4595H17.4981ZM17.4981 22.7167V23.3045H17.9684V22.7167H17.4981Z" fill="#FBFBFB"/>
<path fill-rule="evenodd" clip-rule="evenodd" d="M4.75732 15.0029C4.75732 15.2119 4.75732 15.4209 4.75732 15.6299H14.6974V15.0029H4.75732Z" fill="#FBFBFB"/>
<path fill-rule="evenodd" clip-rule="evenodd" d="M4.75781 17.4541C4.75781 17.6631 4.75781 17.8721 4.75781 18.0811H13.303C13.5141 17.8554 13.7408 17.6456 13.9839 17.4541H4.75781Z" fill="#FBFBFB"/>
<path fill-rule="evenodd" clip-rule="evenodd" d="M0 0C0 8.57684 0 17.1537 0 25.7305H12.7831C12.64 25.5291 12.5054 25.3215 12.3872 25.103H0.627574V0.627574H18.8272V16.2526C19.0404 16.2916 19.2499 16.3402 19.4548 16.4009V0H0Z" fill="#FBFBFB"/>
<path fill-rule="evenodd" clip-rule="evenodd" d="M4.75781 19.9043C4.75781 20.1133 4.75781 20.3223 4.75781 20.5312H11.9038C11.966 20.3175 12.037 20.1077 12.1214 19.9043H4.75781Z" fill="#FBFBFB"/>
<path d="M9.72736 5.1875L6.1709 6.96665V7.16031V11.4099L9.72736 13.1891L13.2838 11.4099V6.96665L9.72736 5.1875ZM9.72736 5.88923L12.6569 7.35459V11.022L9.72736 12.4873L6.79788 11.022V7.35459L9.72736 5.88923ZM9.72736 6.80975L8.60275 7.37236V8.57113L9.72736 9.13374L9.86772 9.06326L10.852 8.57113V7.37236L9.72736 6.80975ZM9.72736 7.51148L10.2244 7.76031V8.18318L9.72736 8.43201L9.23032 8.18318V7.76031L9.72736 7.51148ZM7.79192 9.18828V10.5991L9.72736 11.5668L11.6628 10.5991V9.18828H11.0352V10.2112L9.72736 10.8651L8.4195 10.2112V9.18828H7.79192Z" fill="#FBFBFB"/>
</svg>
