<svg width="16" height="17" viewBox="0 0 16 17" fill="none" xmlns="http://www.w3.org/2000/svg">
<g id="Pencil">
<path id="Vector" d="M10.8692 3.36834C11.0168 3.21553 11.1933 3.09364 11.3885 3.00978C11.5837 2.92593 11.7937 2.88179 12.0061 2.87994C12.2186 2.8781 12.4293 2.91858 12.6259 2.99903C12.8226 3.07948 13.0012 3.19828 13.1514 3.34851C13.3017 3.49874 13.4205 3.67738 13.5009 3.87402C13.5814 4.07065 13.6218 4.28134 13.62 4.49379C13.6181 4.70623 13.574 4.91618 13.4902 5.11139C13.4063 5.3066 13.2844 5.48315 13.1316 5.63074L12.4972 6.26514L10.2348 4.00274L10.8692 3.36834ZM9.10359 5.13394L2.40039 11.8371V14.0995H4.66279L11.3668 7.39634L9.10359 5.13394Z" fill="#8F9FBC"/>
</g>
</svg>
