<svg width="16" height="17" viewBox="0 0 16 17" fill="none" xmlns="http://www.w3.org/2000/svg">
<g id="Trash">
<path id="Vector" fill-rule="evenodd" clip-rule="evenodd" d="M7.20039 2.09961C7.05186 2.09969 6.90629 2.14112 6.77997 2.21925C6.65365 2.29739 6.55158 2.40914 6.48519 2.54201L5.90599 3.69961H3.20039C2.98822 3.69961 2.78473 3.78389 2.63471 3.93392C2.48468 4.08395 2.40039 4.28744 2.40039 4.49961C2.40039 4.71178 2.48468 4.91527 2.63471 5.06529C2.78473 5.21532 2.98822 5.29961 3.20039 5.29961V13.2996C3.20039 13.724 3.36896 14.1309 3.66902 14.431C3.96908 14.731 4.37604 14.8996 4.80039 14.8996H11.2004C11.6247 14.8996 12.0317 14.731 12.3318 14.431C12.6318 14.1309 12.8004 13.724 12.8004 13.2996V5.29961C13.0126 5.29961 13.216 5.21532 13.3661 5.06529C13.5161 4.91527 13.6004 4.71178 13.6004 4.49961C13.6004 4.28744 13.5161 4.08395 13.3661 3.93392C13.216 3.78389 13.0126 3.69961 12.8004 3.69961H10.0948L9.51559 2.54201C9.4492 2.40914 9.34713 2.29739 9.22081 2.21925C9.0945 2.14112 8.94892 2.09969 8.80039 2.09961H7.20039ZM5.60039 6.89961C5.60039 6.68744 5.68468 6.48395 5.83471 6.33392C5.98473 6.18389 6.18822 6.09961 6.40039 6.09961C6.61256 6.09961 6.81605 6.18389 6.96608 6.33392C7.11611 6.48395 7.20039 6.68744 7.20039 6.89961V11.6996C7.20039 11.9118 7.11611 12.1153 6.96608 12.2653C6.81605 12.4153 6.61256 12.4996 6.40039 12.4996C6.18822 12.4996 5.98473 12.4153 5.83471 12.2653C5.68468 12.1153 5.60039 11.9118 5.60039 11.6996V6.89961ZM9.60039 6.09961C9.38822 6.09961 9.18473 6.18389 9.03471 6.33392C8.88468 6.48395 8.80039 6.68744 8.80039 6.89961V11.6996C8.80039 11.9118 8.88468 12.1153 9.03471 12.2653C9.18473 12.4153 9.38822 12.4996 9.60039 12.4996C9.81256 12.4996 10.016 12.4153 10.1661 12.2653C10.3161 12.1153 10.4004 11.9118 10.4004 11.6996V6.89961C10.4004 6.68744 10.3161 6.48395 10.1661 6.33392C10.016 6.18389 9.81256 6.09961 9.60039 6.09961Z" fill="#F42B3D"/>
</g>
</svg>
